{
.appVersion = "895";
copyright = "Copyright 2016 The Montserrat and Sector Project Authors";
customParameters = (
{
name = fsType;
value = (
);
},
{
name = license;
value = "This Font Software is licensed under the SIL Open Font License Version 1.1.";
},
{
name = licenseURL;
value = "http://scripts.sil.org/OFL";
}
);
date = "2016-04-14 23:39:46 +0000";
designer = "Montserrat by Julieta Ulanovsky; Sector Gurmukhi by Gunnar Vilhjalmsson";
designerURL = "Montserrat http://www.zkysky.com.ar; Sector Gurmukhi http://universalthirst.com";
familyName = Sector;
fontMaster = (
{
alignmentZones = (
"{850, 19}",
"{692, 20}",
"{157, -12}",
"{-149, -19}"
);
ascender = 862;
capHeight = 692;
descender = -195;
id = "E8BF2718-0C92-4E31-9FCE-6752C723AF07";
weight = Bold;
weightValue = 170;
xHeight = 692;
}
);
glyphs = (
{
glyphname = A;
layers = (
{
anchors = (
{
name = ogonek;
position = "{791, 10}";
},
{
name = top;
position = "{387, 701}";
}
);
layerId = "E8BF2718-0C92-4E31-9FCE-6752C723AF07";
paths = (
{
closed = 1;
nodes = (
"296 701 LINE",
"-6 0 LINE",
"183 0 LINE",
"384 514 LINE",
"583 0 LINE",
"778 0 LINE",
"484 701 LINE"
);
},
{
closed = 1;
nodes = (
"175 264 LINE",
"175 124 LINE SMOOTH",
"584 124 LINE",
"584 264 LINE"
);
}
);
width = 773;
}
);
leftKerningGroup = A;
rightKerningGroup = A;
unicode = 0041;
},
{
glyphname = Aogonek;
layers = (
{
layerId = "E8BF2718-0C92-4E31-9FCE-6752C723AF07";
paths = (
{
closed = 1;
nodes = (
"296 701 LINE",
"-6 0 LINE",
"183 0 LINE",
"233 124 LINE",
"534 124 LINE",
"583 0 LINE",
"640 0 LINE",
"612 -41 OFFCURVE",
"593 -80 OFFCURVE",
"593 -119 CURVE SMOOTH",
"593 -182 OFFCURVE",
"642 -203 OFFCURVE",
"682 -203 CURVE SMOOTH",
"726 -203 OFFCURVE",
"766 -179 OFFCURVE",
"791 -135 CURVE",
"746 -82 LINE",
"733 -101 OFFCURVE",
"719 -112 OFFCURVE",
"703 -112 CURVE SMOOTH",
"691 -112 OFFCURVE",
"683 -105 OFFCURVE",
"683 -90 CURVE SMOOTH",
"683 -71 OFFCURVE",
"698 -39 OFFCURVE",
"725 0 CURVE",
"778 0 LINE",
"484 701 LINE"
);
},
{
closed = 1;
nodes = (
"483 264 LINE",
"285 264 LINE",
"385 514 LINE"
);
}
);
width = 773;
}
);
leftKerningGroup = A;
rightKerningGroup = A;
unicode = 0104;
},
{
glyphname = Aring;
layers = (
{
components = (
{
name = A;
}
);
layerId = "E8BF2718-0C92-4E31-9FCE-6752C723AF07";
paths = (
{
closed = 1;
nodes = (
"318 895 OFFCURVE",
"261 838 OFFCURVE",
"261 767 CURVE SMOOTH",
"261 695 OFFCURVE",
"318 638 OFFCURVE",
"390 638 CURVE SMOOTH",
"462 638 OFFCURVE",
"519 695 OFFCURVE",
"519 767 CURVE SMOOTH",
"519 838 OFFCURVE",
"462 895 OFFCURVE",
"390 895 CURVE SMOOTH"
);
},
{
closed = 1;
nodes = (
"420 819 OFFCURVE",
"443 796 OFFCURVE",
"443 767 CURVE SMOOTH",
"443 737 OFFCURVE",
"420 715 OFFCURVE",
"390 715 CURVE SMOOTH",
"360 715 OFFCURVE",
"336 737 OFFCURVE",
"336 767 CURVE SMOOTH",
"336 796 OFFCURVE",
"360 819 OFFCURVE",
"390 819 CURVE SMOOTH"
);
}
);
width = 773;
}
);
leftKerningGroup = A;
leftMetricsKey = A;
rightKerningGroup = A;
rightMetricsKey = A;
unicode = 00C5;
},
{
glyphname = AE;
layers = (
{
anchors = (
{
name = bottom;
position = "{773, 0}";
},
{
name = ogonek;
position = "{1056, 10}";
},
{
name = top;
position = "{644, 701}";
}
);
layerId = "E8BF2718-0C92-4E31-9FCE-6752C723AF07";
paths = (
{
closed = 1;
nodes = (
"391 701 LINE",
"-6 0 LINE",
"184 0 LINE",
"479 558 LINE",
"771 558 LINE",
"766 701 LINE"
);
},
{
closed = 1;
nodes = (
"209 278 LINE",
"205 144 LINE",
"591 144 LINE",
"595 278 LINE"
);
},
{
closed = 1;
nodes = (
"499 701 LINE",
"499 0 LINE",
"1062 0 LINE",
"1062 146 LINE",
"682 146 LINE",
"682 279 LINE",
"1016 279 LINE",
"1016 424 LINE",
"682 424 LINE",
"682 555 LINE",
"1052 555 LINE",
"1052 701 LINE"
);
}
);
width = 1106;
}
);
leftKerningGroup = A;
leftMetricsKey = A;
rightKerningGroup = E;
rightMetricsKey = E;
unicode = 00C6;
},
{
glyphname = B;
layers = (
{
layerId = "E8BF2718-0C92-4E31-9FCE-6752C723AF07";
paths = (
{
closed = 1;
nodes = (
"68 701 LINE",
"68 0 LINE",
"413.993 0 LINE SMOOTH",
"579 0 OFFCURVE",
"684 75 OFFCURVE",
"684 195 CURVE SMOOTH",
"684 285 OFFCURVE",
"629 354 OFFCURVE",
"540 372 CURVE",
"614 392 OFFCURVE",
"661 451 OFFCURVE",
"661 524 CURVE SMOOTH",
"661 632 OFFCURVE",
"560 701 OFFCURVE",
"401 701 CURVE SMOOTH"
);
},
{
closed = 1;
nodes = (
"455 290 OFFCURVE",
"494 262 OFFCURVE",
"494 218 CURVE SMOOTH",
"494 170 OFFCURVE",
"455 142 OFFCURVE",
"391 142 CURVE SMOOTH",
"250 142 LINE",
"250 290 LINE",
"391 290 LINE SMOOTH"
);
},
{
closed = 1;
nodes = (
"441 558 OFFCURVE",
"473 534 OFFCURVE",
"473 492 CURVE SMOOTH",
"473 448 OFFCURVE",
"441 422 OFFCURVE",
"391 422 CURVE SMOOTH",
"250 422 LINE",
"250 558 LINE",
"391 558 LINE SMOOTH"
);
}
);
width = 716;
}
);
leftKerningGroup = H;
rightKerningGroup = B;
unicode = 0042;
},
{
glyphname = C;
layers = (
{
anchors = (
{
name = bottom;
position = "{374, 0}";
},
{
name = top;
position = "{385, 701}";
}
);
layerId = "E8BF2718-0C92-4E31-9FCE-6752C723AF07";
paths = (
{
closed = 1;
nodes = (
"183 706 OFFCURVE",
"23 554 OFFCURVE",
"23 352 CURVE SMOOTH",
"23 146 OFFCURVE",
"180 -8 OFFCURVE",
"391 -8 CURVE SMOOTH",
"495 -8 OFFCURVE",
"606 43 OFFCURVE",
"681 122 CURVE",
"575 237 LINE",
"526 187 OFFCURVE",
"459 155 OFFCURVE",
"400 155 CURVE SMOOTH",
"292 155 OFFCURVE",
"210 241 OFFCURVE",
"210 354 CURVE SMOOTH",
"210 466 OFFCURVE",
"292 551 OFFCURVE",
"400 551 CURVE SMOOTH",
"462 551 OFFCURVE",
"529 515 OFFCURVE",
"575 459 CURVE",
"681 586 LINE",
"611 660 OFFCURVE",
"501 706 OFFCURVE",
"398 706 CURVE SMOOTH"
);
}
);
width = 692;
}
);
leftKerningGroup = O;
rightKerningGroup = C;
unicode = 0043;
},
{
glyphname = D;
layers = (
{
anchors = (
{
name = center;
position = "{378, 351}";
},
{
name = top;
position = "{358, 701}";
}
);
layerId = "E8BF2718-0C92-4E31-9FCE-6752C723AF07";
paths = (
{
closed = 1;
nodes = (
"68 701 LINE",
"68 0 LINE",
"363 0 LINE SMOOTH",
"590 0 OFFCURVE",
"743 142 OFFCURVE",
"743 351 CURVE SMOOTH",
"743 559 OFFCURVE",
"592 701 OFFCURVE",
"370 701 CURVE SMOOTH"
);
},
{
closed = 1;
nodes = (
"477 552 OFFCURVE",
"556 470 OFFCURVE",
"556 349 CURVE SMOOTH",
"556 229 OFFCURVE",
"481 148 OFFCURVE",
"375 148 CURVE SMOOTH",
"251 148 LINE",
"251 552 LINE",
"366 552 LINE SMOOTH"
);
}
);
width = 766;
}
);
leftKerningGroup = H;
rightKerningGroup = O;
unicode = 0044;
},
{
glyphname = Eth;
layers = (
{
components = (
{
name = D;
transform = "{1, 0, 0, 1, 33, 0}";
}
);
layerId = "E8BF2718-0C92-4E31-9FCE-6752C723AF07";
paths = (
{
closed = 1;
nodes = (
"0 400 LINE",
"0 302 LINE",
"439 302 LINE",
"439 400 LINE"
);
}
);
width = 799;
}
);
leftKerningGroup = H;
rightKerningGroup = O;
rightMetricsKey = D;
unicode = 00D0;
},
{
glyphname = E;
layers = (
{
anchors = (
{
name = bottom;
position = "{343, 0}";
},
{
name = ogonek;
position = "{625, 10}";
},
{
name = top;
position = "{346, 701}";
}
);
layerId = "E8BF2718-0C92-4E31-9FCE-6752C723AF07";
paths = (
{
closed = 1;
nodes = (
"68 701 LINE",
"68 0 LINE",
"631 0 LINE",
"631 146 LINE",
"251 146 LINE",
"251 278 LINE",
"585 278 LINE",
"585 424 LINE",
"251 424 LINE",
"251 555 LINE",
"621 555 LINE",
"621 701 LINE"
);
}
);
width = 675;
}
);
leftKerningGroup = H;
rightKerningGroup = E;
unicode = 0045;
},
{
glyphname = Eogonek;
layers = (
{
layerId = "E8BF2718-0C92-4E31-9FCE-6752C723AF07";
paths = (
{
closed = 1;
nodes = (
"68 701 LINE",
"68 0 LINE",
"478 0 LINE",
"450 -42 OFFCURVE",
"431 -80 OFFCURVE",
"431 -119 CURVE SMOOTH",
"431 -182 OFFCURVE",
"479 -203 OFFCURVE",
"520 -203 CURVE SMOOTH",
"564 -203 OFFCURVE",
"603 -179 OFFCURVE",
"629 -135 CURVE",
"584 -82 LINE",
"571 -101 OFFCURVE",
"556 -112 OFFCURVE",
"541 -112 CURVE SMOOTH",
"529 -112 OFFCURVE",
"520 -105 OFFCURVE",
"520 -90 CURVE SMOOTH",
"520 -71 OFFCURVE",
"535 -40 OFFCURVE",
"564 0 CURVE",
"635 0 LINE",
"635 142 LINE",
"251 142 LINE",
"251 282 LINE",
"589 282 LINE",
"589 424 LINE",
"251 424 LINE",
"251 558 LINE",
"625 558 LINE",
"625 701 LINE"
);
}
);
width = 679;
}
);
leftKerningGroup = H;
rightKerningGroup = E;
unicode = 0118;
},
{
glyphname = F;
layers = (
{
layerId = "E8BF2718-0C92-4E31-9FCE-6752C723AF07";
paths = (
{
closed = 1;
nodes = (
"68 701 LINE",
"68 0 LINE",
"251 0 LINE",
"251 253 LINE",
"565 253 LINE",
"565 399 LINE",
"251 399 LINE",
"251 555 LINE",
"591 555 LINE",
"592 701 LINE"
);
}
);
width = 607;
}
);
leftKerningGroup = H;
rightKerningGroup = F;
unicode = 0046;
},
{
glyphname = G;
layers = (
{
anchors = (
{
name = bottom;
position = "{392, 0}";
},
{
name = top;
position = "{392, 701}";
}
);
layerId = "E8BF2718-0C92-4E31-9FCE-6752C723AF07";
paths = (
{
closed = 1;
nodes = (
"188 706 OFFCURVE",
"23 554 OFFCURVE",
"23 350 CURVE SMOOTH",
"23 146 OFFCURVE",
"183 -8 OFFCURVE",
"398 -8 CURVE SMOOTH",
"496 -8 OFFCURVE",
"615 30 OFFCURVE",
"690 82 CURVE",
"586 213 LINE",
"533 174 OFFCURVE",
"462 148 OFFCURVE",
"410 148 CURVE SMOOTH",
"297 148 OFFCURVE",
"210 235 OFFCURVE",
"210 350 CURVE SMOOTH",
"210 464 OFFCURVE",
"296 551 OFFCURVE",
"409 551 CURVE SMOOTH",
"473 551 OFFCURVE",
"544 521 OFFCURVE",
"594 474 CURVE",
"698 602 LINE",
"625 666 OFFCURVE",
"515 706 OFFCURVE",
"409 706 CURVE SMOOTH"
);
},
{
closed = 1;
nodes = (
"532 358 LINE",
"532 82 LINE",
"690 82 LINE",
"690 358 LINE"
);
}
);
width = 743;
}
);
leftKerningGroup = O;
rightKerningGroup = G;
unicode = 0047;
},
{
glyphname = H;
layers = (
{
anchors = (
{
name = center;
position = "{393, 351}";
},
{
name = top;
position = "{401, 701}";
}
);
layerId = "E8BF2718-0C92-4E31-9FCE-6752C723AF07";
paths = (
{
closed = 1;
nodes = (
"534 701 LINE",
"534 415 LINE",
"251 415 LINE",
"251 701 LINE",
"68 701 LINE",
"68 0 LINE",
"251 0 LINE",
"251 269 LINE",
"534 269 LINE",
"534 0 LINE",
"717 0 LINE",
"717 701 LINE"
);
}
);
width = 785;
}
);
leftKerningGroup = H;
rightKerningGroup = H;
unicode = 0048;
},
{
glyphname = Hbar;
layers = (
{
components = (
{
name = H;
transform = "{1, 0, 0, 1, 41, 0}";
}
);
layerId = "E8BF2718-0C92-4E31-9FCE-6752C723AF07";
paths = (
{
closed = 1;
nodes = (
"25 615 LINE",
"25 511 LINE",
"843 511 LINE",
"843 615 LINE"
);
}
);
width = 868;
}
);
leftKerningGroup = H;
rightKerningGroup = H;
unicode = 0126;
},
{
glyphname = I;
layers = (
{
anchors = (
{
name = ogonek;
position = "{278, 10}";
},
{
name = top;
position = "{160, 701}";
}
);
layerId = "E8BF2718-0C92-4E31-9FCE-6752C723AF07";
paths = (
{
closed = 1;
nodes = (
"68 701 LINE",
"68 0 LINE",
"251 0 LINE",
"251 701 LINE"
);
}
);
width = 319;
}
);
leftKerningGroup = H;
rightKerningGroup = H;
unicode = 0049;
},
{
glyphname = Iogonek;
layers = (
{
layerId = "E8BF2718-0C92-4E31-9FCE-6752C723AF07";
paths = (
{
closed = 1;
nodes = (
"232 -82 LINE",
"219 -101 OFFCURVE",
"205 -112 OFFCURVE",
"189 -112 CURVE SMOOTH",
"178 -112 OFFCURVE",
"169 -105 OFFCURVE",
"169 -90 CURVE SMOOTH",
"169 -71 OFFCURVE",
"184 -39 OFFCURVE",
"212 0 CURVE",
"251 0 LINE",
"251 701 LINE",
"68 701 LINE",
"68 0 LINE",
"126 0 LINE",
"99 -41 OFFCURVE",
"80 -80 OFFCURVE",
"80 -119 CURVE SMOOTH",
"80 -182 OFFCURVE",
"128 -203 OFFCURVE",
"168 -203 CURVE SMOOTH",
"212 -203 OFFCURVE",
"252 -179 OFFCURVE",
"278 -135 CURVE"
);
}
);
width = 319;
}
);
leftKerningGroup = H;
rightKerningGroup = H;
unicode = 012E;
},
{
glyphname = J;
layers = (
{
anchors = (
{
name = top;
position = "{268, 701}";
}
);
layerId = "E8BF2718-0C92-4E31-9FCE-6752C723AF07";
paths = (
{
closed = 1;
nodes = (
"59 701 LINE",
"59 550 LINE",
"299 550 LINE",
"299 232 LINE SMOOTH",
"299 179 OFFCURVE",
"271 151 OFFCURVE",
"225 151 CURVE SMOOTH",
"185 151 OFFCURVE",
"129 177 OFFCURVE",
"78 230 CURVE",
"-6 105 LINE",
"57 33 OFFCURVE",
"138 -8 OFFCURVE",
"238 -8 CURVE SMOOTH",
"388 -8 OFFCURVE",
"483 78 OFFCURVE",
"483 228 CURVE SMOOTH",
"483 701 LINE"
);
}
);
width = 539;
}
);
leftKerningGroup = J;
rightKerningGroup = U;
unicode = 004A;
},
{
glyphname = K;
layers = (
{
anchors = (
{
name = bottom;
position = "{364, 0}";
},
{
name = top;
position = "{364, 701}";
}
);
layerId = "E8BF2718-0C92-4E31-9FCE-6752C723AF07";
paths = (
{
closed = 1;
nodes = (
"514 701 LINE",
"251 407 LINE",
"251 701 LINE",
"68 701 LINE",
"68 0 LINE",
"251 0 LINE",
"251 171 LINE",
"726 701 LINE"
);
},
{
closed = 1;
nodes = (
"330 287 LINE",
"523 0 LINE",
"742 0 LINE",
"452 433 LINE"
);
}
);
width = 749;
}
);
leftKerningGroup = H;
rightKerningGroup = X;
unicode = 004B;
},
{
glyphname = L;
layers = (
{
anchors = (
{
name = bottom;
position = "{291, 0}";
},
{
name = top;
position = "{156, 701}";
}
);
layerId = "E8BF2718-0C92-4E31-9FCE-6752C723AF07";
paths = (
{
closed = 1;
nodes = (
"68 701 LINE",
"68 0 LINE",
"548 0 LINE",
"548 156 LINE",
"251 156 LINE",
"251 701 LINE"
);
}
);
width = 563;
}
);
leftKerningGroup = H;
rightKerningGroup = L;
unicode = 004C;
},
{
glyphname = Lslash;
layers = (
{
components = (
{
name = L;
transform = "{1, 0, 0, 1, 20, 0}";
}
);
layerId = "E8BF2718-0C92-4E31-9FCE-6752C723AF07";
paths = (
{
closed = 1;
nodes = (
"-15 415 LINE",
"16 306 LINE",
"444 430 LINE",
"413 541 LINE"
);
}
);
width = 583;
}
);
leftKerningGroup = H;
rightKerningGroup = L;
rightMetricsKey = L;
unicode = 0141;
},
{
glyphname = M;
layers = (
{
layerId = "E8BF2718-0C92-4E31-9FCE-6752C723AF07";
paths = (
{
closed = 1;
nodes = (
"640 701 LINE",
"454 292 LINE",
"268 701 LINE",
"68 701 LINE",
"68 0 LINE",
"231 0 LINE",
"231 444 LINE",
"394 70 LINE",
"514 70 LINE",
"677 444 LINE",
"678 0 LINE",
"840 0 LINE",
"840 701 LINE"
);
}
);
width = 908;
}
);
leftKerningGroup = H;
rightKerningGroup = H;
unicode = 004D;
},
{
glyphname = N;
layers = (
{
anchors = (
{
name = bottom;
position = "{393, 0}";
},
{
name = top;
position = "{393, 701}";
}
);
layerId = "E8BF2718-0C92-4E31-9FCE-6752C723AF07";
paths = (
{
closed = 1;
nodes = (
"547 701 LINE",
"547 279 LINE",
"229 701 LINE",
"68 701 LINE",
"68 0 LINE",
"239 0 LINE",
"239 420 LINE",
"557 0 LINE",
"717 0 LINE",
"717 701 LINE"
);
}
);
width = 786;
}
);
leftKerningGroup = H;
rightKerningGroup = H;
unicode = 004E;
},
{
glyphname = Eng;
layers = (
{
anchors = (
{
name = bottom;
position = "{393, 0}";
},
{
name = top;
position = "{393, 701}";
}
);
layerId = "E8BF2718-0C92-4E31-9FCE-6752C723AF07";
paths = (
{
closed = 1;
nodes = (
"548 -28 OFFCURVE",
"521 -57 OFFCURVE",
"472 -57 CURVE SMOOTH",
"441 -57 OFFCURVE",
"400 -45 OFFCURVE",
"359 -21 CURVE",
"292 -160 LINE",
"342 -196 OFFCURVE",
"402 -216 OFFCURVE",
"473 -216 CURVE SMOOTH",
"617 -216 OFFCURVE",
"712 -135 OFFCURVE",
"717 0 CURVE",
"548 28 LINE"
);
},
{
closed = 1;
nodes = (
"547 701 LINE",
"547 279 LINE",
"229 701 LINE",
"68 701 LINE",
"68 0 LINE",
"239 0 LINE",
"239 420 LINE",
"557 0 LINE",
"717 0 LINE",
"717 701 LINE"
);
}
);
width = 786;
}
);
leftKerningGroup = H;
rightKerningGroup = H;
unicode = 014A;
},
{
glyphname = O;
layers = (
{
anchors = (
{
name = top;
position = "{394, 701}";
}
);
layerId = "E8BF2718-0C92-4E31-9FCE-6752C723AF07";
paths = (
{
closed = 1;
nodes = (
"185 706 OFFCURVE",
"23 555 OFFCURVE",
"23 351 CURVE SMOOTH",
"23 146 OFFCURVE",
"185 -8 OFFCURVE",
"402 -8 CURVE SMOOTH",
"619 -8 OFFCURVE",
"781 146 OFFCURVE",
"781 351 CURVE SMOOTH",
"781 554 OFFCURVE",
"619 706 OFFCURVE",
"402 706 CURVE SMOOTH"
);
},
{
closed = 1;
nodes = (
"509 550 OFFCURVE",
"594 464 OFFCURVE",
"594 350 CURVE SMOOTH",
"594 236 OFFCURVE",
"509 148 OFFCURVE",
"405 148 CURVE SMOOTH",
"300 148 OFFCURVE",
"211 236 OFFCURVE",
"211 350 CURVE SMOOTH",
"211 464 OFFCURVE",
"299 550 OFFCURVE",
"405 550 CURVE SMOOTH"
);
}
);
width = 804;
}
);
leftKerningGroup = O;
rightKerningGroup = O;
unicode = 004F;
},
{
glyphname = Oslash;
layers = (
{
anchors = (
{
name = top;
position = "{388, 701}";
}
);
components = (
{
name = O;
}
);
layerId = "E8BF2718-0C92-4E31-9FCE-6752C723AF07";
paths = (
{
closed = 1;
nodes = (
"506 807 LINE",
"183 -112 LINE",
"285 -112 LINE",
"609 807 LINE"
);
}
);
width = 804;
}
);
leftKerningGroup = O;
leftMetricsKey = O;
rightKerningGroup = O;
rightMetricsKey = O;
unicode = 00D8;
},
{
glyphname = OE;
layers = (
{
anchors = (
{
name = bottom;
position = "{781, 0}";
},
{
name = ogonek;
position = "{1064, 10}";
},
{
name = top;
position = "{554, 701}";
}
);
layerId = "E8BF2718-0C92-4E31-9FCE-6752C723AF07";
paths = (
{
closed = 1;
nodes = (
"401 701 LINE",
"184 701 OFFCURVE",
"23 549 OFFCURVE",
"23 349 CURVE SMOOTH",
"23 148 OFFCURVE",
"186 0 OFFCURVE",
"401 0 CURVE",
"561 0 LINE",
"563 151 LINE",
"401 150 LINE",
"292 150 OFFCURVE",
"210 235 OFFCURVE",
"210 348 CURVE SMOOTH",
"210 463 OFFCURVE",
"292 548 OFFCURVE",
"401 548 CURVE",
"547 548 LINE",
"547 701 LINE"
);
},
{
closed = 1;
nodes = (
"507 701 LINE",
"507 0 LINE",
"1070 0 LINE",
"1070 146 LINE",
"690 146 LINE",
"690 279 LINE",
"1024 279 LINE",
"1024 424 LINE",
"690 424 LINE",
"690 555 LINE",
"1060 555 LINE",
"1060 701 LINE"
);
}
);
width = 1114;
}
);
leftKerningGroup = O;
leftMetricsKey = O;
rightKerningGroup = E;
rightMetricsKey = E;
unicode = 0152;
},
{
glyphname = P;
layers = (
{
layerId = "E8BF2718-0C92-4E31-9FCE-6752C723AF07";
paths = (
{
closed = 1;
nodes = (
"68 701 LINE",
"68 0 LINE",
"251 0 LINE",
"251 194 LINE",
"376 194 LINE SMOOTH",
"555 194 OFFCURVE",
"658 290 OFFCURVE",
"658 455 CURVE SMOOTH",
"658 611 OFFCURVE",
"555 701 OFFCURVE",
"376 701 CURVE SMOOTH"
);
},
{
closed = 1;
nodes = (
"441 555 OFFCURVE",
"484 518 OFFCURVE",
"484 449 CURVE SMOOTH",
"484 378 OFFCURVE",
"441 340 OFFCURVE",
"367 340 CURVE SMOOTH",
"251 340 LINE",
"251 555 LINE",
"367 555 LINE SMOOTH"
);
}
);
width = 680;
}
);
leftKerningGroup = H;
rightKerningGroup = P;
unicode = 0050;
},
{
glyphname = Thorn;
layers = (
{
layerId = "E8BF2718-0C92-4E31-9FCE-6752C723AF07";
paths = (
{
closed = 1;
nodes = (
"215 609 LINE",
"240 467 LINE",
"363 467 LINE SMOOTH",
"438 467 OFFCURVE",
"480 428 OFFCURVE",
"480 362 CURVE SMOOTH",
"480 293 OFFCURVE",
"438 253 OFFCURVE",
"363 253 CURVE SMOOTH",
"241 253 LINE",
"241 111 LINE",
"371 111 LINE SMOOTH",
"555 111 OFFCURVE",
"667 208 OFFCURVE",
"667 367 CURVE SMOOTH",
"667 517 OFFCURVE",
"555 609 OFFCURVE",
"371 609 CURVE SMOOTH"
);
},
{
closed = 1;
nodes = (
"68 701 LINE",
"68 0 LINE",
"251 0 LINE",
"251 701 LINE"
);
}
);
width = 689;
}
);
leftKerningGroup = H;
leftMetricsKey = H;
rightKerningGroup = Thorn;
rightMetricsKey = P;
unicode = 00DE;
},
{
glyphname = Q;
layers = (
{
components = (
{
name = O;
}
);
layerId = "E8BF2718-0C92-4E31-9FCE-6752C723AF07";
paths = (
{
closed = 1;
nodes = (
"383 -1 LINE",
"427 -103 OFFCURVE",
"512 -167 OFFCURVE",
"612 -167 CURVE SMOOTH",
"681 -167 OFFCURVE",
"762 -137 OFFCURVE",
"816 -89 CURVE",
"751 24 LINE",
"709 -8 OFFCURVE",
"664 -28 OFFCURVE",
"632 -28 CURVE SMOOTH",
"592 -28 OFFCURVE",
"556 2 OFFCURVE",
"530 48 CURVE"
);
}
);
width = 809;
}
);
leftKerningGroup = O;
rightKerningGroup = O;
unicode = 0051;
},
{
glyphname = R;
layers = (
{
anchors = (
{
name = bottom;
position = "{359, 0}";
},
{
name = top;
position = "{365, 701}";
}
);
layerId = "E8BF2718-0C92-4E31-9FCE-6752C723AF07";
paths = (
{
closed = 1;
nodes = (
"68 701 LINE",
"68 0 LINE",
"251 0 LINE",
"251 194 LINE",
"383 194 LINE SMOOTH",
"569 194 OFFCURVE",
"675 290 OFFCURVE",
"675 455 CURVE SMOOTH",
"675 611 OFFCURVE",
"569 701 OFFCURVE",
"383 701 CURVE SMOOTH"
);
},
{
closed = 1;
nodes = (
"351 263 LINE",
"488 0 LINE",
"696 0 LINE",
"529 263 LINE"
);
},
{
closed = 1;
nodes = (
"458 555 OFFCURVE",
"501 518 OFFCURVE",
"501 449 CURVE SMOOTH",
"501 378 OFFCURVE",
"458 340 OFFCURVE",
"384 340 CURVE SMOOTH",
"251 340 LINE",
"251 555 LINE",
"384 555 LINE SMOOTH"
);
}
);
width = 724;
}
);
leftKerningGroup = H;
rightKerningGroup = R;
unicode = 0052;
},
{
glyphname = S;
layers = (
{
anchors = (
{
name = bottom;
position = "{333, 0}";
},
{
name = top;
position = "{342, 701}";
}
);
layerId = "E8BF2718-0C92-4E31-9FCE-6752C723AF07";
paths = (
{
closed = 1;
nodes = (
"171 709 OFFCURVE",
"60 626 OFFCURVE",
"60 495 CURVE SMOOTH",
"60 247 OFFCURVE",
"429 319 OFFCURVE",
"429 200 CURVE SMOOTH",
"429 163 OFFCURVE",
"396 143 OFFCURVE",
"341 143 CURVE SMOOTH",
"268 143 OFFCURVE",
"159 187 OFFCURVE",
"87 249 CURVE",
"16 106 LINE",
"100 37 OFFCURVE",
"222 -6 OFFCURVE",
"339 -6 CURVE SMOOTH",
"495 -6 OFFCURVE",
"621 67 OFFCURVE",
"621 210 CURVE SMOOTH",
"621 462 OFFCURVE",
"252 396 OFFCURVE",
"252 512 CURVE SMOOTH",
"252 544 OFFCURVE",
"281 560 OFFCURVE",
"325 560 CURVE SMOOTH",
"383 560 OFFCURVE",
"478 527 OFFCURVE",
"551 485 CURVE",
"620 630 LINE",
"547 677 OFFCURVE",
"443 709 OFFCURVE",
"341 709 CURVE SMOOTH"
);
}
);
width = 646;
}
);
leftKerningGroup = S;
rightKerningGroup = S;
unicode = 0053;
},
{
glyphname = T;
layers = (
{
anchors = (
{
name = bottom;
position = "{295, 0}";
},
{
name = center;
position = "{297, 351}";
},
{
name = top;
position = "{320, 701}";
}
);
layerId = "E8BF2718-0C92-4E31-9FCE-6752C723AF07";
paths = (
{
closed = 1;
nodes = (
"7 701 LINE",
"7 550 LINE",
"215 550 LINE",
"215 0 LINE",
"399 0 LINE",
"399 550 LINE",
"608 550 LINE",
"608 701 LINE"
);
}
);
width = 614;
}
);
leftKerningGroup = T;
rightKerningGroup = T;
unicode = 0054;
},
{
glyphname = U;
layers = (
{
anchors = (
{
name = ogonek;
position = "{565, 10}";
},
{
name = top;
position = "{379, 701}";
}
);
layerId = "E8BF2718-0C92-4E31-9FCE-6752C723AF07";
paths = (
{
closed = 1;
nodes = (
"518 701 LINE",
"518 294 LINE SMOOTH",
"518 203 OFFCURVE",
"463 148 OFFCURVE",
"381 148 CURVE SMOOTH",
"299 148 OFFCURVE",
"239 204 OFFCURVE",
"239 294 CURVE SMOOTH",
"239 701 LINE",
"56 701 LINE",
"56 294 LINE SMOOTH",
"56 109 OFFCURVE",
"183 -8 OFFCURVE",
"381 -8 CURVE SMOOTH",
"577 -8 OFFCURVE",
"702 109 OFFCURVE",
"702 294 CURVE SMOOTH",
"702 701 LINE"
);
}
);
width = 758;
}
);
leftKerningGroup = U;
rightKerningGroup = U;
unicode = 0055;
},
{
glyphname = Uogonek;
layers = (
{
layerId = "E8BF2718-0C92-4E31-9FCE-6752C723AF07";
paths = (
{
closed = 1;
nodes = (
"518 701 LINE",
"518 294 LINE SMOOTH",
"518 203 OFFCURVE",
"463 148 OFFCURVE",
"381 148 CURVE SMOOTH",
"299 148 OFFCURVE",
"239 204 OFFCURVE",
"239 294 CURVE SMOOTH",
"239 701 LINE",
"56 701 LINE",
"56 294 LINE SMOOTH",
"56 109 OFFCURVE",
"183 -8 OFFCURVE",
"380 -8 CURVE SMOOTH",
"577 -8 OFFCURVE",
"702 109 OFFCURVE",
"702 294 CURVE SMOOTH",
"702 701 LINE"
);
},
{
closed = 1;
nodes = (
"427 20 LINE",
"393 -27 OFFCURVE",
"367 -73 OFFCURVE",
"367 -119 CURVE SMOOTH",
"367 -182 OFFCURVE",
"415 -203 OFFCURVE",
"456 -203 CURVE SMOOTH",
"500 -203 OFFCURVE",
"539 -179 OFFCURVE",
"565 -135 CURVE",
"519 -82 LINE",
"507 -101 OFFCURVE",
"492 -112 OFFCURVE",
"477 -112 CURVE SMOOTH",
"465 -112 OFFCURVE",
"456 -105 OFFCURVE",
"456 -90 CURVE SMOOTH",
"456 -68 OFFCURVE",
"478 -29 OFFCURVE",
"513 20 CURVE"
);
}
);
width = 758;
}
);
leftKerningGroup = U;
rightKerningGroup = U;
unicode = 0172;
},
{
glyphname = V;
layers = (
{
layerId = "E8BF2718-0C92-4E31-9FCE-6752C723AF07";
paths = (
{
closed = 1;
nodes = (
"546 701 LINE",
"371 194 LINE",
"195 701 LINE",
"-1 701 LINE",
"271 0 LINE",
"460 0 LINE",
"734 701 LINE"
);
}
);
width = 732;
}
);
leftKerningGroup = V;
rightKerningGroup = V;
unicode = 0056;
},
{
glyphname = W;
layers = (
{
anchors = (
{
name = top;
position = "{546, 701}";
}
);
layerId = "E8BF2718-0C92-4E31-9FCE-6752C723AF07";
paths = (
{
closed = 1;
nodes = (
"904 701 LINE",
"773 194 LINE",
"639 701 LINE",
"460 701 LINE",
"328 194 LINE",
"195 701 LINE",
"-1 701 LINE",
"228 0 LINE",
"417 0 LINE",
"546 473 LINE",
"673 0 LINE",
"861 0 LINE",
"1092 701 LINE"
);
}
);
width = 1085;
}
);
leftKerningGroup = V;
rightKerningGroup = V;
unicode = 0057;
},
{
glyphname = X;
layers = (
{
layerId = "E8BF2718-0C92-4E31-9FCE-6752C723AF07";
paths = (
{
closed = 1;
nodes = (
"496 701 LINE",
"365 502 LINE",
"233 701 LINE",
"20 701 LINE",
"253 357 LINE",
"4 0 LINE",
"218 0 LINE",
"365 217 LINE",
"513 0 LINE",
"733 0 LINE",
"481 366 LINE",
"712 701 LINE"
);
}
);
width = 738;
}
);
leftKerningGroup = X;
rightKerningGroup = X;
unicode = 0058;
},
{
glyphname = Y;
layers = (
{
anchors = (
{
name = top;
position = "{342, 701}";
}
);
layerId = "E8BF2718-0C92-4E31-9FCE-6752C723AF07";
paths = (
{
closed = 1;
nodes = (
"505 701 LINE",
"344 400 LINE",
"177 701 LINE",
"-6 701 LINE",
"331 71 LINE",
"354 71 LINE",
"689 701 LINE"
);
},
{
closed = 1;
nodes = (
"253 308 LINE",
"253 0 LINE",
"436 0 LINE",
"436 308 LINE"
);
}
);
width = 684;
}
);
leftKerningGroup = V;
rightKerningGroup = V;
unicode = 0059;
},
{
glyphname = Z;
layers = (
{
anchors = (
{
name = top;
position = "{353, 701}";
}
);
layerId = "E8BF2718-0C92-4E31-9FCE-6752C723AF07";
paths = (
{
closed = 1;
nodes = (
"39 701 LINE",
"39 554 LINE",
"397 554 LINE",
"27 119 LINE",
"27 0 LINE",
"648 0 LINE",
"648 147 LINE",
"272 147 LINE",
"642 581 LINE",
"642 701 LINE"
);
}
);
width = 676;
}
);
leftKerningGroup = Z;
rightKerningGroup = Z;
unicode = 005A;
},
{
glyphname = A.ss01;
layers = (
{
anchors = (
{
name = ogonek;
position = "{725, 10}";
},
{
name = top;
position = "{381, 701}";
}
);
layerId = "E8BF2718-0C92-4E31-9FCE-6752C723AF07";
paths = (
{
closed = 1;
nodes = (
"181 708 OFFCURVE",
"56 589 OFFCURVE",
"56 405 CURVE SMOOTH",
"56 0 LINE",
"239 0 LINE",
"239 165 LINE",
"523 165 LINE",
"523 0 LINE",
"706 0 LINE",
"706 405 LINE SMOOTH",
"706 589 OFFCURVE",
"580 708 OFFCURVE",
"379 708 CURVE SMOOTH"
);
},
{
closed = 1;
nodes = (
"468 552 OFFCURVE",
"523 495 OFFCURVE",
"523 405 CURVE SMOOTH",
"523 305 LINE",
"239 305 LINE",
"239 405 LINE SMOOTH",
"239 495 OFFCURVE",
"293 552 OFFCURVE",
"381 552 CURVE SMOOTH"
);
}
);
width = 762;
}
);
leftKerningGroup = A.ss01;
leftMetricsKey = U;
rightKerningGroup = A.ss01;
rightMetricsKey = U;
},
{
glyphname = Aogonek.ss01;
layers = (
{
layerId = "E8BF2718-0C92-4E31-9FCE-6752C723AF07";
paths = (
{
closed = 1;
nodes = (
"181 708 OFFCURVE",
"56 589 OFFCURVE",
"56 405 CURVE SMOOTH",
"56 0 LINE",
"239 0 LINE",
"239 165 LINE",
"523 165 LINE",
"523 0 LINE",
"574 0 LINE",
"546 -41 OFFCURVE",
"527 -80 OFFCURVE",
"527 -119 CURVE SMOOTH",
"527 -182 OFFCURVE",
"575 -203 OFFCURVE",
"616 -203 CURVE SMOOTH",
"660 -203 OFFCURVE",
"699 -179 OFFCURVE",
"725 -135 CURVE",
"680 -82 LINE",
"667 -101 OFFCURVE",
"653 -112 OFFCURVE",
"637 -112 CURVE SMOOTH",
"625 -112 OFFCURVE",
"617 -105 OFFCURVE",
"617 -90 CURVE SMOOTH",
"617 -71 OFFCURVE",
"632 -39 OFFCURVE",
"659 0 CURVE",
"706 0 LINE",
"706 405 LINE SMOOTH",
"706 589 OFFCURVE",
"580 708 OFFCURVE",
"379 708 CURVE SMOOTH"
);
},
{
closed = 1;
nodes = (
"468 552 OFFCURVE",
"523 495 OFFCURVE",
"523 405 CURVE SMOOTH",
"523 305 LINE",
"239 305 LINE",
"239 405 LINE SMOOTH",
"239 495 OFFCURVE",
"293 552 OFFCURVE",
"381 552 CURVE SMOOTH"
);
}
);
width = 765;
}
);
leftKerningGroup = Aogonek.ss01;
rightKerningGroup = Aogonek.ss01;
},
{
glyphname = E.ss01;
layers = (
{
anchors = (
{
name = bottom;
position = "{307, 0}";
},
{
name = ogonek;
position = "{551, 10}";
},
{
name = top;
position = "{307, 701}";
}
);
layerId = "E8BF2718-0C92-4E31-9FCE-6752C723AF07";
paths = (
{
closed = 1;
nodes = (
"179 709 OFFCURVE",
"71 635 OFFCURVE",
"71 522 CURVE SMOOTH",
"71 455 OFFCURVE",
"111 393 OFFCURVE",
"170 369 CURVE",
"87 344 OFFCURVE",
"33 272 OFFCURVE",
"33 192 CURVE SMOOTH",
"33 71 OFFCURVE",
"153 -8 OFFCURVE",
"321 -8 CURVE SMOOTH",
"424 -8 OFFCURVE",
"535 23 OFFCURVE",
"599 63 CURVE",
"530 198 LINE",
"493 174 OFFCURVE",
"410 143 OFFCURVE",
"342 143 CURVE SMOOTH",
"275 143 OFFCURVE",
"222 172 OFFCURVE",
"222 218 CURVE SMOOTH",
"222 259 OFFCURVE",
"264 288 OFFCURVE",
"323 288 CURVE SMOOTH",
"488 288 LINE",
"488 428 LINE",
"323 428 LINE SMOOTH",
"275 428 OFFCURVE",
"244 457 OFFCURVE",
"244 492 CURVE SMOOTH",
"244 535 OFFCURVE",
"292 557 OFFCURVE",
"358 557 CURVE SMOOTH",
"407 557 OFFCURVE",
"465 544 OFFCURVE",
"516 521 CURVE",
"574 658 LINE",
"520 688 OFFCURVE",
"422 709 OFFCURVE",
"339 709 CURVE SMOOTH"
);
}
);
width = 613;
}
);
leftKerningGroup = E.ss01;
leftMetricsKey = eight;
rightKerningGroup = E.ss01;
},
{
glyphname = Eogonek.ss01;
layers = (
{
layerId = "E8BF2718-0C92-4E31-9FCE-6752C723AF07";
paths = (
{
closed = 1;
nodes = (
"179 709 OFFCURVE",
"71 635 OFFCURVE",
"71 522 CURVE SMOOTH",
"71 455 OFFCURVE",
"111 393 OFFCURVE",
"170 369 CURVE",
"87 344 OFFCURVE",
"33 272 OFFCURVE",
"33 192 CURVE SMOOTH",
"33 71 OFFCURVE",
"153 -8 OFFCURVE",
"321 -8 CURVE SMOOTH",
"424 -8 OFFCURVE",
"535 23 OFFCURVE",
"599 63 CURVE",
"530 198 LINE",
"493 174 OFFCURVE",
"410 143 OFFCURVE",
"342 143 CURVE SMOOTH",
"275 143 OFFCURVE",
"222 172 OFFCURVE",
"222 218 CURVE SMOOTH",
"222 259 OFFCURVE",
"264 288 OFFCURVE",
"323 288 CURVE SMOOTH",
"488 288 LINE",
"488 428 LINE",
"323 428 LINE SMOOTH",
"275 428 OFFCURVE",
"244 457 OFFCURVE",
"244 492 CURVE SMOOTH",
"244 535 OFFCURVE",
"292 557 OFFCURVE",
"358 557 CURVE SMOOTH",
"407 557 OFFCURVE",
"465 544 OFFCURVE",
"516 521 CURVE",
"574 658 LINE",
"520 688 OFFCURVE",
"422 709 OFFCURVE",
"339 709 CURVE SMOOTH"
);
},
{
closed = 1;
nodes = (
"413 20 LINE",
"379 -26 OFFCURVE",
"353 -73 OFFCURVE",
"353 -119 CURVE SMOOTH",
"353 -182 OFFCURVE",
"401 -203 OFFCURVE",
"442 -203 CURVE SMOOTH",
"485 -203 OFFCURVE",
"525 -179 OFFCURVE",
"551 -135 CURVE",
"505 -82 LINE",
"493 -101 OFFCURVE",
"478 -112 OFFCURVE",
"463 -112 CURVE SMOOTH",
"451 -112 OFFCURVE",
"442 -105 OFFCURVE",
"442 -90 CURVE SMOOTH",
"442 -65 OFFCURVE",
"466 -23 OFFCURVE",
"507 30 CURVE"
);
}
);
width = 613;
}
);
leftKerningGroup = Eogonek.ss01;
rightKerningGroup = Eogonek.ss01;
},
{
glyphname = F.ss01;
layers = (
{
layerId = "E8BF2718-0C92-4E31-9FCE-6752C723AF07";
paths = (
{
closed = 1;
nodes = (
"240 0 LINE",
"240 460 LINE SMOOTH",
"240 516 OFFCURVE",
"277 553 OFFCURVE",
"333 553 CURVE SMOOTH",
"388 553 OFFCURVE",
"464 534 OFFCURVE",
"521 509 CURVE",
"563 662 LINE",
"503 690 OFFCURVE",
"407 708 OFFCURVE",
"316 708 CURVE SMOOTH",
"158 708 OFFCURVE",
"56 613 OFFCURVE",
"56 464 CURVE SMOOTH",
"56 0 LINE"
);
},
{
closed = 1;
nodes = (
"94 393 LINE",
"94 247 LINE SMOOTH",
"500 247 LINE",
"500 393 LINE"
);
}
);
width = 559;
}
);
leftKerningGroup = F.ss01;
leftMetricsKey = U;
rightKerningGroup = F.ss01;
},
{
glyphname = G.ss01;
layers = (
{
anchors = (
{
name = bottom;
position = "{374, 0}";
},
{
name = top;
position = "{374, 701}";
}
);
layerId = "E8BF2718-0C92-4E31-9FCE-6752C723AF07";
paths = (
{
closed = 1;
nodes = (
"187 706 OFFCURVE",
"23 554 OFFCURVE",
"23 350 CURVE SMOOTH",
"23 146 OFFCURVE",
"175 -8 OFFCURVE",
"378 -8 CURVE SMOOTH",
"482 -8 OFFCURVE",
"591 57 OFFCURVE",
"645 147 CURVE",
"557 247 LINE",
"529 188 OFFCURVE",
"466 148 OFFCURVE",
"399 148 CURVE SMOOTH",
"292 148 OFFCURVE",
"210 235 OFFCURVE",
"210 350 CURVE SMOOTH",
"210 464 OFFCURVE",
"297 551 OFFCURVE",
"409 551 CURVE SMOOTH",
"474 551 OFFCURVE",
"544 521 OFFCURVE",
"594 474 CURVE",
"698 602 LINE",
"625 666 OFFCURVE",
"512 706 OFFCURVE",
"407 706 CURVE SMOOTH"
);
},
{
closed = 1;
nodes = (
"532 363 LINE",
"532 115 LINE",
"555 95 LINE",
"555 0 LINE",
"690 0 LINE",
"690 363 LINE"
);
}
);
width = 743;
}
);
leftKerningGroup = O;
leftMetricsKey = O;
rightKerningGroup = G;
},
{
glyphname = I.ss01;
layers = (
{
anchors = (
{
name = ogonek;
position = "{456, 10}";
},
{
name = top;
position = "{253, 701}";
}
);
layerId = "E8BF2718-0C92-4E31-9FCE-6752C723AF07";
paths = (
{
closed = 1;
nodes = (
"45 555 LINE",
"462 555 LINE",
"462 701 LINE",
"45 701 LINE"
);
},
{
closed = 1;
nodes = (
"45 0 LINE",
"462 0 LINE",
"462 146 LINE",
"45 146 LINE"
);
},
{
closed = 1;
nodes = (
"162 701 LINE",
"162 0 LINE",
"345 0 LINE",
"345 701 LINE"
);
}
);
width = 507;
}
);
leftKerningGroup = I.ss01;
rightKerningGroup = I.ss01;
},
{
glyphname = J.ss01;
layers = (
{
anchors = (
{
name = top;
position = "{272, 701}";
}
);
layerId = "E8BF2718-0C92-4E31-9FCE-6752C723AF07";
paths = (
{
closed = 1;
nodes = (
"59 701 LINE",
"59 550 LINE",
"299 550 LINE",
"299 132 LINE SMOOTH",
"299 79 OFFCURVE",
"271 51 OFFCURVE",
"225 51 CURVE SMOOTH",
"185 51 OFFCURVE",
"129 77 OFFCURVE",
"78 130 CURVE",
"-6 5 LINE",
"57 -67 OFFCURVE",
"138 -108 OFFCURVE",
"238 -108 CURVE SMOOTH",
"388 -108 OFFCURVE",
"483 -22 OFFCURVE",
"483 128 CURVE SMOOTH",
"483 701 LINE"
);
}
);
width = 539;
}
);
leftKerningGroup = J.ss01;
leftMetricsKey = J;
rightKerningGroup = J.ss01;
rightMetricsKey = J;
},
{
glyphname = M.ss01;
layers = (
{
anchors = (
{
name = ogonek;
position = "{278, 10}";
},
{
name = top;
position = "{160, 701}";
}
);
layerId = "E8BF2718-0C92-4E31-9FCE-6752C723AF07";
paths = (
{
closed = 1;
nodes = (
"302 700 OFFCURVE",
"200 578 OFFCURVE",
"200 394 CURVE",
"251 378 LINE",
"251 467 OFFCURVE",
"306 532 OFFCURVE",
"384 533 CURVE SMOOTH",
"455 533 OFFCURVE",
"500 480 OFFCURVE",
"500 399 CURVE SMOOTH",
"500 0 LINE",
"685 0 LINE",
"685 443 LINE SMOOTH",
"685 598 OFFCURVE",
"593 701 OFFCURVE",
"458 701 CURVE SMOOTH"
);
},
{
closed = 1;
nodes = (
"736 700 OFFCURVE",
"634 578 OFFCURVE",
"634 394 CURVE",
"685 378 LINE",
"685 467 OFFCURVE",
"740 532 OFFCURVE",
"818 533 CURVE SMOOTH",
"889 533 OFFCURVE",
"934 480 OFFCURVE",
"934 399 CURVE SMOOTH",
"934 0 LINE",
"1119 0 LINE",
"1119 443 LINE SMOOTH",
"1119 598 OFFCURVE",
"1026 701 OFFCURVE",
"892 701 CURVE SMOOTH"
);
},
{
closed = 1;
nodes = (
"68 701 LINE",
"68 0 LINE",
"251 0 LINE",
"251 701 LINE"
);
}
);
width = 1175;
}
);
leftKerningGroup = M.ss01;
leftMetricsKey = H;
rightKerningGroup = M.ss01;
rightMetricsKey = U;
},
{
glyphname = N.ss01;
layers = (
{
anchors = (
{
name = bottom;
position = "{383, 0}";
},
{
name = ogonek;
position = "{278, 10}";
},
{
name = top;
position = "{394, 701}";
}
);
layerId = "E8BF2718-0C92-4E31-9FCE-6752C723AF07";
paths = (
{
closed = 1;
nodes = (
"308 700 OFFCURVE",
"200 578 OFFCURVE",
"200 394 CURVE",
"251 378 LINE",
"251 467 OFFCURVE",
"311 532 OFFCURVE",
"400 533 CURVE SMOOTH",
"474 533 OFFCURVE",
"524 479 OFFCURVE",
"524 400 CURVE SMOOTH",
"524 0 LINE",
"709 0 LINE",
"709 443 LINE SMOOTH",
"709 598 OFFCURVE",
"613 701 OFFCURVE",
"470 701 CURVE SMOOTH"
);
},
{
closed = 1;
nodes = (
"68 701 LINE",
"68 0 LINE",
"251 0 LINE",
"251 701 LINE"
);
}
);
width = 765;
}
);
leftKerningGroup = N.ss01;
leftMetricsKey = H;
rightKerningGroup = N.ss01;
rightMetricsKey = U;
},
{
glyphname = Eng.ss01;
layers = (
{
anchors = (
{
name = bottom;
position = "{383, 0}";
},
{
name = ogonek;
position = "{278, 10}";
},
{
name = top;
position = "{394, 701}";
}
);
layerId = "E8BF2718-0C92-4E31-9FCE-6752C723AF07";
paths = (
{
closed = 1;
nodes = (
"524 -32 OFFCURVE",
"498 -57 OFFCURVE",
"455 -57 CURVE SMOOTH",
"425 -57 OFFCURVE",
"387 -45 OFFCURVE",
"349 -21 CURVE",
"284 -160 LINE",
"334 -196 OFFCURVE",
"394 -216 OFFCURVE",
"465 -216 CURVE SMOOTH",
"609 -216 OFFCURVE",
"704 -135 OFFCURVE",
"709 0 CURVE",
"524 15 LINE"
);
},
{
closed = 1;
nodes = (
"308 700 OFFCURVE",
"200 578 OFFCURVE",
"200 394 CURVE",
"251 378 LINE",
"251 467 OFFCURVE",
"311 532 OFFCURVE",
"400 533 CURVE SMOOTH",
"474 533 OFFCURVE",
"524 479 OFFCURVE",
"524 400 CURVE SMOOTH",
"524 0 LINE",
"709 0 LINE",
"709 443 LINE SMOOTH",
"709 598 OFFCURVE",
"613 701 OFFCURVE",
"470 701 CURVE SMOOTH"
);
},
{
closed = 1;
nodes = (
"68 701 LINE",
"68 0 LINE",
"251 0 LINE",
"251 701 LINE"
);
}
);
width = 765;
}
);
leftKerningGroup = H;
rightKerningGroup = H;
},
{
glyphname = Q.ss01;
layers = (
{
components = (
{
name = O;
}
);
layerId = "E8BF2718-0C92-4E31-9FCE-6752C723AF07";
paths = (
{
closed = 1;
nodes = (
"336 -120 LINE",
"459 -120 LINE",
"459 295 LINE",
"336 295 LINE"
);
}
);
width = 804;
}
);
leftKerningGroup = O;
leftMetricsKey = O;
rightKerningGroup = O;
rightMetricsKey = O;
},
{
glyphname = T.ss01;
layers = (
{
anchors = (
{
name = bottom;
position = "{326, 0}";
},
{
name = center;
position = "{343, 351}";
},
{
name = top;
position = "{343, 701}";
}
);
layerId = "E8BF2718-0C92-4E31-9FCE-6752C723AF07";
paths = (
{
closed = 1;
nodes = (
"223 708 OFFCURVE",
"110 680 OFFCURVE",
"17 629 CURVE",
"68 487 LINE",
"145 527 OFFCURVE",
"239 551 OFFCURVE",
"338 551 CURVE SMOOTH",
"437 551 OFFCURVE",
"530 528 OFFCURVE",
"611 487 CURVE",
"661 628 LINE",
"566 680 OFFCURVE",
"454 708 OFFCURVE",
"338 708 CURVE SMOOTH"
);
},
{
closed = 1;
nodes = (
"248 619 LINE",
"248 0 LINE",
"431 0 LINE",
"431 619 LINE"
);
}
);
width = 687;
}
);
leftKerningGroup = T;
rightKerningGroup = T;
},
{
glyphname = W.ss01;
layers = (
{
anchors = (
{
name = top;
position = "{582, 701}";
}
);
layerId = "E8BF2718-0C92-4E31-9FCE-6752C723AF07";
paths = (
{
closed = 1;
nodes = (
"926 701 LINE",
"926 276 LINE SMOOTH",
"926 201 OFFCURVE",
"877 148 OFFCURVE",
"803 148 CURVE SMOOTH",
"729 148 OFFCURVE",
"674 201 OFFCURVE",
"674 276 CURVE SMOOTH",
"674 701 LINE",
"491 701 LINE",
"491 276 LINE SMOOTH",
"490 201 OFFCURVE",
"439 148 OFFCURVE",
"365 148 CURVE SMOOTH",
"292 148 OFFCURVE",
"239 201 OFFCURVE",
"239 276 CURVE SMOOTH",
"239 701 LINE",
"56 701 LINE",
"56 276 LINE SMOOTH",
"56 110 OFFCURVE",
"173 -8 OFFCURVE",
"336 -8 CURVE SMOOTH",
"445 -8 OFFCURVE",
"539 45 OFFCURVE",
"583 118 CURVE",
"628 45 OFFCURVE",
"724 -8 OFFCURVE",
"832 -8 CURVE SMOOTH",
"993 -8 OFFCURVE",
"1109 110 OFFCURVE",
"1109 276 CURVE SMOOTH",
"1109 701 LINE"
);
}
);
width = 1165;
}
);
leftKerningGroup = W.ss01;
leftMetricsKey = U;
rightKerningGroup = W.ss01;
rightMetricsKey = U;
},
{
glyphname = Y.ss01;
layers = (
{
anchors = (
{
name = top;
position = "{372, 701}";
}
);
layerId = "E8BF2718-0C92-4E31-9FCE-6752C723AF07";
paths = (
{
closed = 1;
nodes = (
"456 155 OFFCURVE",
"555 273 OFFCURVE",
"555 453 CURVE",
"504 460 LINE",
"504 373 OFFCURVE",
"448 314 OFFCURVE",
"367 313 CURVE SMOOTH",
"290 313 OFFCURVE",
"239 364 OFFCURVE",
"239 438 CURVE SMOOTH",
"239 701 LINE",
"56 701 LINE",
"56 421 LINE SMOOTH",
"56 261 OFFCURVE",
"157 154 OFFCURVE",
"305 154 CURVE SMOOTH"
);
},
{
closed = 1;
nodes = (
"504 701 LINE",
"504 190 LINE SMOOTH",
"504 105 OFFCURVE",
"437 48 OFFCURVE",
"340 48 CURVE",
"272 48 OFFCURVE",
"191 77 OFFCURVE",
"137 119 CURVE",
"64 -6 LINE",
"133 -67 OFFCURVE",
"251 -108 OFFCURVE",
"363 -108 CURVE SMOOTH",
"557 -108 OFFCURVE",
"687 9 OFFCURVE",
"687 186 CURVE SMOOTH",
"687 701 LINE"
);
}
);
width = 743;
}
);
leftKerningGroup = Y.ss01;
leftMetricsKey = U;
rightKerningGroup = Y.ss01;
rightMetricsKey = J;
},
{
glyphname = Z.ss01;
layers = (
{
anchors = (
{
name = top;
position = "{338, 701}";
}
);
layerId = "E8BF2718-0C92-4E31-9FCE-6752C723AF07";
paths = (
{
closed = 1;
nodes = (
"87 418 LINE",
"87 298 LINE",
"350 298 LINE",
"350 418 LINE"
);
},
{
closed = 1;
nodes = (
"334 408 LINE",
"334 288 LINE",
"586 288 LINE",
"586 408 LINE"
);
},
{
closed = 1;
nodes = (
"39 701 LINE",
"39 554 LINE",
"397 554 LINE",
"27 119 LINE",
"27 0 LINE",
"648 0 LINE",
"648 147 LINE",
"272 147 LINE",
"642 581 LINE",
"642 701 LINE"
);
}
);
width = 676;
}
);
leftKerningGroup = Z.ss01;
leftMetricsKey = Z;
rightKerningGroup = Z.ss01;
rightMetricsKey = Z;
},
{
glyphname = a;
layers = (
{
anchors = (
{
name = ogonek;
position = "{573, 10}";
},
{
name = top;
position = "{300, 541}";
}
);
layerId = "E8BF2718-0C92-4E31-9FCE-6752C723AF07";
paths = (
{
closed = 1;
nodes = (
"223 548 OFFCURVE",
"145 527 OFFCURVE",
"60 489 CURVE",
"109 369 LINE",
"167 397 OFFCURVE",
"226 412 OFFCURVE",
"271 412 CURVE SMOOTH",
"339 412 OFFCURVE",
"374 382 OFFCURVE",
"374 331 CURVE",
"374 0 LINE",
"549 0 LINE",
"549 352 LINE SMOOTH",
"548 476 OFFCURVE",
"461 548 OFFCURVE",
"312 548 CURVE SMOOTH"
);
},
{
closed = 1;
nodes = (
"233 325 LINE SMOOTH",
"99 323 OFFCURVE",
"26 264 OFFCURVE",
"26 161 CURVE SMOOTH",
"26 62 OFFCURVE",
"95 -8 OFFCURVE",
"211 -8 CURVE SMOOTH",
"305 -8 OFFCURVE",
"369 32 OFFCURVE",
"398 105 CURVE",
"374 183 LINE",
"363 142 OFFCURVE",
"319 113 OFFCURVE",
"266 113 CURVE SMOOTH",
"220 113 OFFCURVE",
"193 137 OFFCURVE",
"193 174 CURVE SMOOTH",
"193 212 OFFCURVE",
"218 230 OFFCURVE",
"267 230 CURVE SMOOTH",
"391 230 LINE",
"391 325 LINE"
);
}
);
width = 601;
}
);
leftKerningGroup = a;
rightKerningGroup = n;
unicode = 0061;
},
{
glyphname = aogonek;
layers = (
{
layerId = "E8BF2718-0C92-4E31-9FCE-6752C723AF07";
paths = (
{
closed = 1;
nodes = (
"223 548 OFFCURVE",
"145 527 OFFCURVE",
"60 489 CURVE",
"109 369 LINE",
"167 397 OFFCURVE",
"227 412 OFFCURVE",
"272 412 CURVE SMOOTH",
"340 412 OFFCURVE",
"375 383 OFFCURVE",
"377 332 CURVE",
"377 325 LINE",
"234 325 LINE SMOOTH",
"100 323 OFFCURVE",
"26 264 OFFCURVE",
"26 161 CURVE SMOOTH",
"26 62 OFFCURVE",
"95 -9 OFFCURVE",
"212 -9 CURVE SMOOTH",
"285 -9 OFFCURVE",
"342 16 OFFCURVE",
"377 62 CURVE",
"377 0 LINE",
"425 0 LINE",
"397 -40 OFFCURVE",
"378 -80 OFFCURVE",
"378 -119 CURVE SMOOTH",
"378 -182 OFFCURVE",
"426 -203 OFFCURVE",
"466 -203 CURVE SMOOTH",
"510 -203 OFFCURVE",
"550 -179 OFFCURVE",
"576 -135 CURVE",
"530 -82 LINE",
"517 -101 OFFCURVE",
"503 -112 OFFCURVE",
"488 -112 CURVE SMOOTH",
"476 -112 OFFCURVE",
"467 -105 OFFCURVE",
"467 -90 CURVE SMOOTH",
"467 -71 OFFCURVE",
"483 -39 OFFCURVE",
"510 0 CURVE",
"552 0 LINE",
"552 352 LINE SMOOTH",
"551 476 OFFCURVE",
"464 548 OFFCURVE",
"313 548 CURVE SMOOTH"
);
},
{
closed = 1;
nodes = (
"377 180 LINE",
"365 142 OFFCURVE",
"318 113 OFFCURVE",
"267 113 CURVE SMOOTH",
"221 113 OFFCURVE",
"193 137 OFFCURVE",
"193 174 CURVE SMOOTH",
"193 212 OFFCURVE",
"218 230 OFFCURVE",
"269 230 CURVE SMOOTH",
"377 230 LINE"
);
}
);
width = 606;
}
);
leftKerningGroup = a;
rightKerningGroup = n;
unicode = 0105;
},
{
glyphname = ae;
layers = (
{
anchors = (
{
name = top;
position = "{484, 541}";
}
);
layerId = "E8BF2718-0C92-4E31-9FCE-6752C723AF07";
paths = (
{
closed = 0;
nodes = (
"555 124 LINE"
);
},
{
closed = 1;
nodes = (
"234 548 OFFCURVE",
"146 527 OFFCURVE",
"60 490 CURVE",
"101 369 LINE",
"162 397 OFFCURVE",
"224 412 OFFCURVE",
"272 412 CURVE SMOOTH",
"340 412 OFFCURVE",
"376 382 OFFCURVE",
"376 331 CURVE",
"377 166 LINE",
"552 124 LINE",
"551 352 LINE SMOOTH",
"551 476 OFFCURVE",
"463 548 OFFCURVE",
"313 548 CURVE SMOOTH"
);
},
{
closed = 1;
nodes = (
"234 319 LINE SMOOTH",
"100 317 OFFCURVE",
"26 262 OFFCURVE",
"26 159 CURVE SMOOTH",
"26 59 OFFCURVE",
"100 -9 OFFCURVE",
"223 -9 CURVE SMOOTH",
"339 -9 OFFCURVE",
"420 43 OFFCURVE",
"458 134 CURVE",
"380 180 LINE",
"355 130 OFFCURVE",
"314 109 OFFCURVE",
"267 109 CURVE SMOOTH",
"221 109 OFFCURVE",
"193 134 OFFCURVE",
"193 174 CURVE SMOOTH",
"193 212 OFFCURVE",
"221 233 OFFCURVE",
"271 233 CURVE SMOOTH",
"394 233 LINE",
"394 319 LINE"
);
},
{
closed = 1;
nodes = (
"528 231 LINE",
"942 231 LINE",
"951 421 OFFCURVE",
"843 547 OFFCURVE",
"662 547 CURVE SMOOTH",
"502 547 OFFCURVE",
"403 436 OFFCURVE",
"403 269 CURVE SMOOTH",
"403 103 OFFCURVE",
"498 -6 OFFCURVE",
"667 -6 CURVE SMOOTH",
"767 -6 OFFCURVE",
"848 28 OFFCURVE",
"904 90 CURVE",
"810 183 LINE",
"774 147 OFFCURVE",
"729 128 OFFCURVE",
"682 128 CURVE SMOOTH",
"604 128 OFFCURVE",
"552 184 OFFCURVE",
"552 279 CURVE SMOOTH",
"552 362 OFFCURVE",
"594 425 OFFCURVE",
"664 425 CURVE SMOOTH",
"724 425 OFFCURVE",
"765 380 OFFCURVE",
"764 317 CURVE",
"528 317 LINE"
);
}
);
width = 965;
}
);
leftKerningGroup = a;
leftMetricsKey = a;
rightKerningGroup = e;
rightMetricsKey = e;
unicode = 00E6;
},
{
glyphname = b;
layers = (
{
layerId = "E8BF2718-0C92-4E31-9FCE-6752C723AF07";
paths = (
{
closed = 1;
nodes = (
"73 742 LINE",
"73 0 LINE",
"251 0 LINE",
"251 742 LINE"
);
},
{
closed = 1;
nodes = (
"276 547 OFFCURVE",
"193 440 OFFCURVE",
"193 268 CURVE",
"193 100 OFFCURVE",
"277 -6 OFFCURVE",
"414 -6 CURVE SMOOTH",
"564 -6 OFFCURVE",
"662 103 OFFCURVE",
"662 268 CURVE SMOOTH",
"662 436 OFFCURVE",
"561 547 OFFCURVE",
"409 547 CURVE SMOOTH"
);
},
{
closed = 1;
nodes = (
"436 407 OFFCURVE",
"483 352 OFFCURVE",
"483 272 CURVE SMOOTH",
"483 192 OFFCURVE",
"436 138 OFFCURVE",
"367 138 CURVE SMOOTH",
"298 138 OFFCURVE",
"251 192 OFFCURVE",
"251 272 CURVE SMOOTH",
"251 352 OFFCURVE",
"298 407 OFFCURVE",
"367 407 CURVE SMOOTH"
);
}
);
width = 686;
}
);
leftKerningGroup = h;
rightKerningGroup = o;
unicode = 0062;
},
{
glyphname = c;
layers = (
{
anchors = (
{
name = bottom;
position = "{290, 0}";
},
{
name = top;
position = "{294, 541}";
}
);
layerId = "E8BF2718-0C92-4E31-9FCE-6752C723AF07";
paths = (
{
closed = 1;
nodes = (
"136 547 OFFCURVE",
"24 436 OFFCURVE",
"24 268 CURVE SMOOTH",
"24 103 OFFCURVE",
"136 -6 OFFCURVE",
"303 -6 CURVE SMOOTH",
"417 -6 OFFCURVE",
"505 41 OFFCURVE",
"549 124 CURVE",
"417 199 LINE",
"395 157 OFFCURVE",
"359 138 OFFCURVE",
"312 138 CURVE SMOOTH",
"247 138 OFFCURVE",
"203 190 OFFCURVE",
"203 269 CURVE SMOOTH",
"203 347 OFFCURVE",
"247 400 OFFCURVE",
"312 400 CURVE SMOOTH",
"358 400 OFFCURVE",
"393 379 OFFCURVE",
"417 344 CURVE",
"546 419 LINE",
"500 500 OFFCURVE",
"413 547 OFFCURVE",
"304 547 CURVE SMOOTH"
);
}
);
width = 562;
}
);
leftKerningGroup = o;
rightKerningGroup = c;
unicode = 0063;
},
{
glyphname = d;
layers = (
{
anchors = (
{
name = center;
position = "{-15, 0}";
}
);
layerId = "E8BF2718-0C92-4E31-9FCE-6752C723AF07";
paths = (
{
closed = 0;
nodes = (
"429 264 LINE"
);
},
{
closed = 1;
nodes = (
"123 547 OFFCURVE",
"24 438 OFFCURVE",
"24 273 CURVE SMOOTH",
"24 105 OFFCURVE",
"124 -7 OFFCURVE",
"277 -7 CURVE SMOOTH",
"411 -7 OFFCURVE",
"494 101 OFFCURVE",
"493 272 CURVE",
"494 441 OFFCURVE",
"409 547 OFFCURVE",
"272 547 CURVE SMOOTH"
);
},
{
closed = 1;
nodes = (
"389 403 OFFCURVE",
"436 349 OFFCURVE",
"436 268 CURVE SMOOTH",
"436 188 OFFCURVE",
"389 133 OFFCURVE",
"320 133 CURVE SMOOTH",
"250 133 OFFCURVE",
"203 188 OFFCURVE",
"203 268 CURVE SMOOTH",
"203 348 OFFCURVE",
"250 403 OFFCURVE",
"320 403 CURVE SMOOTH"
);
},
{
closed = 1;
nodes = (
"436 742 LINE",
"436 0 LINE",
"614 0 LINE",
"614 742 LINE"
);
}
);
width = 687;
}
);
leftKerningGroup = o;
rightKerningGroup = l;
unicode = 0064;
},
{
glyphname = eth;
layers = (
{
layerId = "E8BF2718-0C92-4E31-9FCE-6752C723AF07";
paths = (
{
closed = 1;
nodes = (
"101 676 LINE",
"249 609 OFFCURVE",
"370 496 OFFCURVE",
"407 389 CURVE",
"375 424 OFFCURVE",
"313 446 OFFCURVE",
"248 446 CURVE SMOOTH",
"110 446 OFFCURVE",
"21 359 OFFCURVE",
"21 226 CURVE SMOOTH",
"21 84 OFFCURVE",
"124 -8 OFFCURVE",
"284 -8 CURVE SMOOTH",
"465 -8 OFFCURVE",
"582 108 OFFCURVE",
"582 287 CURVE SMOOTH",
"582 483 OFFCURVE",
"440 665 OFFCURVE",
"220 750 CURVE"
);
},
{
closed = 1;
nodes = (
"353 325 OFFCURVE",
"392 289 OFFCURVE",
"392 232 CURVE SMOOTH",
"392 177 OFFCURVE",
"353 141 OFFCURVE",
"291 141 CURVE SMOOTH",
"230 141 OFFCURVE",
"191 178 OFFCURVE",
"191 235 CURVE SMOOTH",
"191 290 OFFCURVE",
"230 325 OFFCURVE",
"290 325 CURVE SMOOTH"
);
},
{
closed = 1;
nodes = (
"112 566 LINE",
"139 483 LINE",
"554 623 LINE",
"526 707 LINE"
);
}
);
width = 605;
}
);
leftKerningGroup = o;
rightKerningGroup = O;
rightMetricsKey = O;
unicode = 00F0;
},
{
glyphname = dcroat;
layers = (
{
components = (
{
name = d;
}
);
layerId = "E8BF2718-0C92-4E31-9FCE-6752C723AF07";
paths = (
{
closed = 1;
nodes = (
"352 685 LINE",
"352 592 LINE",
"679 592 LINE",
"679 685 LINE"
);
}
);
width = 692;
}
);
leftKerningGroup = o;
rightKerningGroup = l;
unicode = 0111;
},
{
glyphname = e;
layers = (
{
anchors = (
{
name = bottom;
position = "{304, 0}";
},
{
name = ogonek;
position = "{542, 10}";
},
{
name = top;
position = "{301, 541}";
}
);
layerId = "E8BF2718-0C92-4E31-9FCE-6752C723AF07";
paths = (
{
closed = 1;
nodes = (
"172 223 LINE",
"579 223 LINE",
"592 420 OFFCURVE",
"496 547 OFFCURVE",
"306 547 CURVE SMOOTH",
"138 547 OFFCURVE",
"24 436 OFFCURVE",
"24 268 CURVE SMOOTH",
"24 103 OFFCURVE",
"134 -6 OFFCURVE",
"311 -6 CURVE SMOOTH",
"411 -6 OFFCURVE",
"491 28 OFFCURVE",
"547 90 CURVE",
"454 183 LINE",
"418 147 OFFCURVE",
"373 128 OFFCURVE",
"326 128 CURVE SMOOTH",
"248 128 OFFCURVE",
"196 184 OFFCURVE",
"196 279 CURVE SMOOTH",
"196 362 OFFCURVE",
"238 422 OFFCURVE",
"308 422 CURVE SMOOTH",
"367 422 OFFCURVE",
"408 380 OFFCURVE",
"408 318 CURVE",
"172 318 LINE"
);
}
);
width = 603;
}
);
leftKerningGroup = o;
rightKerningGroup = o;
unicode = 0065;
},
{
glyphname = eogonek;
layers = (
{
layerId = "E8BF2718-0C92-4E31-9FCE-6752C723AF07";
paths = (
{
closed = 1;
nodes = (
"131 545 OFFCURVE",
"24 433 OFFCURVE",
"24 269 CURVE SMOOTH",
"24 103 OFFCURVE",
"135 -6 OFFCURVE",
"309 -6 CURVE SMOOTH",
"342 -6 OFFCURVE",
"372 1 OFFCURVE",
"402 15 CURVE",
"369 -30 OFFCURVE",
"348 -76 OFFCURVE",
"348 -118 CURVE SMOOTH",
"348 -183 OFFCURVE",
"396 -203 OFFCURVE",
"436 -203 CURVE SMOOTH",
"481 -203 OFFCURVE",
"519 -179 OFFCURVE",
"545 -135 CURVE",
"499 -82 LINE",
"487 -100 OFFCURVE",
"474 -112 OFFCURVE",
"458 -112 CURVE SMOOTH",
"446 -112 OFFCURVE",
"437 -105 OFFCURVE",
"437 -89 CURVE SMOOTH",
"437 -43 OFFCURVE",
"502 38 OFFCURVE",
"547 90 CURVE",
"454 183 LINE",
"418 147 OFFCURVE",
"372 128 OFFCURVE",
"326 128 CURVE SMOOTH",
"263 128 OFFCURVE",
"220 164 OFFCURVE",
"204 223 CURVE",
"580 223 LINE",
"592 422 OFFCURVE",
"491 549 OFFCURVE",
"306 547 CURVE SMOOTH"
);
},
{
closed = 1;
nodes = (
"367 422 OFFCURVE",
"407 379 OFFCURVE",
"407 318 CURVE",
"199 318 LINE",
"208 379 OFFCURVE",
"249 422 OFFCURVE",
"307 422 CURVE SMOOTH"
);
}
);
width = 603;
}
);
leftKerningGroup = o;
rightKerningGroup = e;
unicode = 0119;
},
{
glyphname = f;
layers = (
{
layerId = "E8BF2718-0C92-4E31-9FCE-6752C723AF07";
paths = (
{
closed = 1;
nodes = (
"190 751 OFFCURVE",
"100 684 OFFCURVE",
"100 565 CURVE SMOOTH",
"100 0 LINE",
"277 0 LINE",
"277 550 LINE",
"277 589 OFFCURVE",
"302 608 OFFCURVE",
"337 608 CURVE",
"357 608 OFFCURVE",
"381 600 OFFCURVE",
"400 586 CURVE",
"462 712 LINE",
"421 736 OFFCURVE",
"362 750 OFFCURVE",
"308 750 CURVE"
);
},
{
closed = 1;
nodes = (
"27 515 LINE",
"27 397 LINE",
"397 397 LINE",
"397 515 LINE"
);
}
);
width = 390;
}
);
leftKerningGroup = f;
rightKerningGroup = f;
unicode = 0066;
},
{
glyphname = g;
layers = (
{
anchors = (
{
name = top;
position = "{324, 541}";
}
);
layerId = "E8BF2718-0C92-4E31-9FCE-6752C723AF07";
paths = (
{
closed = 1;
nodes = (
"408 541 LINE",
"408 43 LINE SMOOTH",
"408 -20 OFFCURVE",
"360 -61 OFFCURVE",
"279 -61 CURVE SMOOTH",
"220 -61 OFFCURVE",
"160 -42 OFFCURVE",
"112 -8 CURVE",
"50 -131 LINE",
"110 -171 OFFCURVE",
"197 -201 OFFCURVE",
"292 -201 CURVE SMOOTH",
"467 -201 OFFCURVE",
"585 -105 OFFCURVE",
"585 48 CURVE SMOOTH",
"585 541 LINE"
);
},
{
closed = 1;
nodes = (
"117 547 OFFCURVE",
"24 445 OFFCURVE",
"24 291 CURVE SMOOTH",
"24 134 OFFCURVE",
"120 30 OFFCURVE",
"255 30 CURVE SMOOTH",
"388 30 OFFCURVE",
"463 130 OFFCURVE",
"462 290 CURVE",
"463 448 OFFCURVE",
"385 547 OFFCURVE",
"251 547 CURVE SMOOTH"
);
},
{
closed = 1;
nodes = (
"365 413 OFFCURVE",
"409 362 OFFCURVE",
"409 286 CURVE SMOOTH",
"409 212 OFFCURVE",
"365 160 OFFCURVE",
"300 160 CURVE SMOOTH",
"234 160 OFFCURVE",
"190 212 OFFCURVE",
"190 286 CURVE SMOOTH",
"190 361 OFFCURVE",
"235 413 OFFCURVE",
"300 413 CURVE SMOOTH"
);
}
);
width = 648;
}
);
leftKerningGroup = o;
rightKerningGroup = j;
unicode = 0067;
},
{
glyphname = h;
layers = (
{
anchors = (
{
name = bottom;
position = "{654, 0}";
},
{
name = center;
position = "{337, 271}";
},
{
name = top;
position = "{157, 742}";
},
{
name = topright;
position = "{292, 542}";
}
);
layerId = "E8BF2718-0C92-4E31-9FCE-6752C723AF07";
paths = (
{
closed = 1;
nodes = (
"626 0 LINE",
"626 341 LINE SMOOTH",
"626 468 OFFCURVE",
"548 548 OFFCURVE",
"430 548 CURVE SMOOTH",
"292 548 OFFCURVE",
"208 450 OFFCURVE",
"208 267 CURVE",
"250 267 LINE",
"250 338 OFFCURVE",
"291 388 OFFCURVE",
"357 389 CURVE SMOOTH",
"413 389 OFFCURVE",
"449 351 OFFCURVE",
"449 290 CURVE SMOOTH",
"449 0 LINE"
);
},
{
closed = 1;
nodes = (
"251 0 LINE",
"251 742 LINE",
"73 742 LINE",
"73 0 LINE"
);
}
);
width = 679;
}
);
leftKerningGroup = h;
rightKerningGroup = n;
unicode = 0068;
},
{
glyphname = hbar;
layers = (
{
components = (
{
name = h;
}
);
layerId = "E8BF2718-0C92-4E31-9FCE-6752C723AF07";
paths = (
{
closed = 1;
nodes = (
"-6 672 LINE",
"-6 574 LINE",
"367 574 LINE",
"367 672 LINE"
);
}
);
width = 736;
}
);
leftKerningGroup = h;
rightKerningGroup = n;
unicode = 0127;
},
{
glyphname = i;
layers = (
{
anchors = (
{
name = _top;
position = "{157, 541}";
},
{
name = ogonek;
position = "{273, 10}";
},
{
name = top;
position = "{157, 541}";
}
);
layerId = "E8BF2718-0C92-4E31-9FCE-6752C723AF07";
paths = (
{
closed = 1;
nodes = (
"68 541 LINE",
"68 0 LINE",
"245 0 LINE",
"245 541 LINE"
);
},
{
closed = 1;
nodes = (
"102 790 OFFCURVE",
"63 751 OFFCURVE",
"63 695 CURVE SMOOTH",
"63 639 OFFCURVE",
"102 600 OFFCURVE",
"157 600 CURVE SMOOTH",
"211 600 OFFCURVE",
"250 639 OFFCURVE",
"250 695 CURVE SMOOTH",
"250 751 OFFCURVE",
"211 790 OFFCURVE",
"157 790 CURVE SMOOTH"
);
}
);
width = 313;
}
);
leftKerningGroup = dotlessi;
rightKerningGroup = dotlessi;
unicode = 0069;
},
{
glyphname = idotless;
layers = (
{
anchors = (
{
name = ogonek;
position = "{273, 10}";
},
{
name = top;
position = "{157, 541}";
}
);
layerId = "E8BF2718-0C92-4E31-9FCE-6752C723AF07";
paths = (
{
closed = 1;
nodes = (
"68 541 LINE",
"68 0 LINE",
"245 0 LINE",
"245 541 LINE"
);
}
);
width = 313;
}
);
leftKerningGroup = i;
rightKerningGroup = i;
unicode = 0131;
},
{
glyphname = iogonek;
layers = (
{
layerId = "E8BF2718-0C92-4E31-9FCE-6752C723AF07";
paths = (
{
closed = 1;
nodes = (
"58 541 LINE",
"58 0 LINE",
"108 0 LINE",
"80 -41 OFFCURVE",
"61 -80 OFFCURVE",
"61 -119 CURVE SMOOTH",
"61 -182 OFFCURVE",
"109 -203 OFFCURVE",
"150 -203 CURVE SMOOTH",
"194 -203 OFFCURVE",
"234 -179 OFFCURVE",
"259 -135 CURVE",
"214 -82 LINE",
"201 -101 OFFCURVE",
"187 -112 OFFCURVE",
"172 -112 CURVE SMOOTH",
"159 -112 OFFCURVE",
"151 -105 OFFCURVE",
"151 -90 CURVE SMOOTH",
"151 -71 OFFCURVE",
"166 -39 OFFCURVE",
"194 0 CURVE",
"236 0 LINE",
"236 541 LINE"
);
},
{
closed = 1;
nodes = (
"92 790 OFFCURVE",
"53 751 OFFCURVE",
"53 695 CURVE SMOOTH",
"53 639 OFFCURVE",
"92 600 OFFCURVE",
"147 600 CURVE SMOOTH",
"202 600 OFFCURVE",
"241 639 OFFCURVE",
"241 695 CURVE SMOOTH",
"241 751 OFFCURVE",
"202 790 OFFCURVE",
"147 790 CURVE SMOOTH"
);
}
);
width = 292;
}
);
leftKerningGroup = i;
rightKerningGroup = i;
unicode = 012F;
},
{
glyphname = j;
layers = (
{
layerId = "E8BF2718-0C92-4E31-9FCE-6752C723AF07";
paths = (
{
closed = 1;
nodes = (
"70 541 LINE",
"70 -1 LINE",
"70 -41 OFFCURVE",
"49 -59 OFFCURVE",
"18 -59 CURVE",
"-2 -59 OFFCURVE",
"-23 -52 OFFCURVE",
"-43 -40 CURVE",
"-88 -167 LINE",
"-50 -189 OFFCURVE",
"-2 -201 OFFCURVE",
"50 -201 CURVE",
"162 -202 OFFCURVE",
"247 -136 OFFCURVE",
"247 -16 CURVE",
"247 541 LINE"
);
},
{
closed = 1;
nodes = (
"100 790 OFFCURVE",
"58 751 OFFCURVE",
"58 695 CURVE SMOOTH",
"58 640 OFFCURVE",
"100 600 OFFCURVE",
"158 600 CURVE SMOOTH",
"218 600 OFFCURVE",
"259 640 OFFCURVE",
"259 695 CURVE SMOOTH",
"259 751 OFFCURVE",
"218 790 OFFCURVE",
"158 790 CURVE SMOOTH"
);
}
);
width = 322;
}
);
leftKerningGroup = j;
rightKerningGroup = j;
unicode = 006A;
},
{
glyphname = jdotless;
layers = (
{
anchors = (
{
name = top;
position = "{152, 541}";
}
);
layerId = "E8BF2718-0C92-4E31-9FCE-6752C723AF07";
paths = (
{
closed = 1;
nodes = (
"70 541 LINE",
"70 7 LINE",
"70 -38 OFFCURVE",
"51 -61 OFFCURVE",
"14 -60 CURVE",
"-7 -60 OFFCURVE",
"-28 -54 OFFCURVE",
"-49 -42 CURVE",
"-90 -166 LINE",
"-50 -189 OFFCURVE",
"0 -201 OFFCURVE",
"54 -201 CURVE",
"174 -202 OFFCURVE",
"248 -134 OFFCURVE",
"248 -20 CURVE",
"248 541 LINE"
);
}
);
width = 311;
}
);
leftKerningGroup = j;
rightKerningGroup = j;
rightMetricsKey = i;
unicode = 0237;
},
{
glyphname = k;
layers = (
{
anchors = (
{
name = bottom;
position = "{134, 0}";
},
{
name = top;
position = "{162, 742}";
},
{
name = topright;
position = "{294, 541}";
}
);
layerId = "E8BF2718-0C92-4E31-9FCE-6752C723AF07";
paths = (
{
closed = 0;
nodes = (
"230 111 LINE"
);
},
{
closed = 1;
nodes = (
"73 742 LINE",
"73 0 LINE",
"251 0 LINE",
"251 742 LINE"
);
},
{
closed = 1;
nodes = (
"424 541 LINE",
"241 347 LINE",
"241 136 LINE",
"626 541 LINE"
);
},
{
closed = 1;
nodes = (
"284 243 LINE",
"420 0 LINE",
"631 0 LINE",
"415 353 LINE"
);
}
);
width = 633;
}
);
leftKerningGroup = h;
rightKerningGroup = x;
unicode = 006B;
},
{
glyphname = kgreenlandic;
layers = (
{
anchors = (
{
name = bottom;
position = "{311, 0}";
},
{
name = ogonek;
position = "{273, 10}";
},
{
name = top;
position = "{157, 541}";
}
);
layerId = "E8BF2718-0C92-4E31-9FCE-6752C723AF07";
paths = (
{
closed = 0;
nodes = (
"230 111 LINE"
);
},
{
closed = 1;
nodes = (
"68 541 LINE",
"68 0 LINE",
"245 0 LINE",
"245 541 LINE"
);
},
{
closed = 1;
nodes = (
"418 541 LINE",
"235 348 LINE",
"235 136 LINE",
"620 541 LINE"
);
},
{
closed = 1;
nodes = (
"277 244 LINE",
"413 0 LINE",
"624 0 LINE",
"408 353 LINE"
);
}
);
width = 626;
}
);
leftKerningGroup = h;
leftMetricsKey = n;
rightKerningGroup = k;
rightMetricsKey = k;
unicode = 0138;
},
{
glyphname = l;
layers = (
{
anchors = (
{
name = bottom;
position = "{162, 0}";
},
{
name = top;
position = "{162, 742}";
},
{
name = topright;
position = "{294, 541}";
}
);
layerId = "E8BF2718-0C92-4E31-9FCE-6752C723AF07";
paths = (
{
closed = 1;
nodes = (
"73 742 LINE",
"73 0 LINE",
"251 0 LINE",
"251 742 LINE"
);
}
);
width = 324;
}
);
leftKerningGroup = h;
rightKerningGroup = l;
unicode = 006C;
},
{
glyphname = ldot;
layers = (
{
components = (
{
name = l;
}
);
layerId = "E8BF2718-0C92-4E31-9FCE-6752C723AF07";
paths = (
{
closed = 1;
nodes = (
"308 399 OFFCURVE",
"273 363 OFFCURVE",
"273 312 CURVE SMOOTH",
"273 262 OFFCURVE",
"308 226 OFFCURVE",
"358 226 CURVE SMOOTH",
"408 226 OFFCURVE",
"443 262 OFFCURVE",
"443 312 CURVE SMOOTH",
"443 363 OFFCURVE",
"408 399 OFFCURVE",
"358 399 CURVE SMOOTH"
);
}
);
width = 403;
}
);
leftKerningGroup = h;
leftMetricsKey = l;
rightKerningGroup = l;
unicode = 0140;
},
{
glyphname = lslash;
layers = (
{
components = (
{
name = l;
transform = "{1, 0, 0, 1, 31, 0}";
}
);
layerId = "E8BF2718-0C92-4E31-9FCE-6752C723AF07";
paths = (
{
closed = 1;
nodes = (
"-25 428 LINE",
"6 318 LINE",
"393 430 LINE",
"363 541 LINE"
);
}
);
width = 366;
}
);
leftKerningGroup = lslash;
rightKerningGroup = lslash;
unicode = 0142;
},
{
glyphname = m;
layers = (
{
layerId = "E8BF2718-0C92-4E31-9FCE-6752C723AF07";
paths = (
{
closed = 1;
nodes = (
"68 541 LINE",
"68 0 LINE",
"245 0 LINE",
"245 541 LINE"
);
},
{
closed = 1;
nodes = (
"286 548 OFFCURVE",
"203 450 OFFCURVE",
"203 267 CURVE",
"245 267 LINE",
"245 338 OFFCURVE",
"285 388 OFFCURVE",
"348 389 CURVE SMOOTH",
"403 389 OFFCURVE",
"437 352 OFFCURVE",
"437 290 CURVE SMOOTH",
"437 0 LINE",
"615 0 LINE",
"615 341 LINE SMOOTH",
"615 468 OFFCURVE",
"538 548 OFFCURVE",
"421 548 CURVE SMOOTH"
);
},
{
closed = 1;
nodes = (
"655 548 OFFCURVE",
"572 450 OFFCURVE",
"572 267 CURVE",
"615 267 LINE",
"615 338 OFFCURVE",
"654 388 OFFCURVE",
"717 389 CURVE SMOOTH",
"771 389 OFFCURVE",
"806 352 OFFCURVE",
"806 290 CURVE SMOOTH",
"806 0 LINE",
"984 0 LINE",
"984 341 LINE SMOOTH",
"984 468 OFFCURVE",
"907 548 OFFCURVE",
"790 548 CURVE SMOOTH"
);
}
);
width = 1037;
}
);
leftKerningGroup = n;
rightKerningGroup = n;
unicode = 006D;
},
{
glyphname = n;
layers = (
{
anchors = (
{
name = bottom;
position = "{342, 0}";
},
{
name = top;
position = "{354, 541}";
}
);
layerId = "E8BF2718-0C92-4E31-9FCE-6752C723AF07";
paths = (
{
closed = 1;
nodes = (
"68 541 LINE",
"68 0 LINE",
"246 0 LINE",
"246 541 LINE"
);
},
{
closed = 1;
nodes = (
"287 548 OFFCURVE",
"203 450 OFFCURVE",
"203 267 CURVE",
"245 267 LINE",
"245 338 OFFCURVE",
"286 388 OFFCURVE",
"352 389 CURVE SMOOTH",
"408 389 OFFCURVE",
"444 351 OFFCURVE",
"444 290 CURVE SMOOTH",
"444 0 LINE",
"621 0 LINE",
"621 341 LINE SMOOTH",
"621 468 OFFCURVE",
"543 548 OFFCURVE",
"425 548 CURVE SMOOTH"
);
}
);
width = 674;
}
);
leftKerningGroup = n;
rightKerningGroup = n;
unicode = 006E;
},
{
glyphname = eng;
layers = (
{
anchors = (
{
name = bottom;
position = "{342, 0}";
},
{
name = top;
position = "{354, 541}";
}
);
layerId = "E8BF2718-0C92-4E31-9FCE-6752C723AF07";
paths = (
{
closed = 1;
nodes = (
"287 548 OFFCURVE",
"203 450 OFFCURVE",
"203 267 CURVE",
"245 267 LINE",
"245 338 OFFCURVE",
"286 388 OFFCURVE",
"352 389 CURVE SMOOTH",
"408 389 OFFCURVE",
"444 351 OFFCURVE",
"444 290 CURVE SMOOTH",
"444 -1 LINE SMOOTH",
"444 -41 OFFCURVE",
"422 -59 OFFCURVE",
"391 -59 CURVE",
"372 -59 OFFCURVE",
"351 -52 OFFCURVE",
"331 -40 CURVE",
"286 -167 LINE",
"324 -189 OFFCURVE",
"372 -201 OFFCURVE",
"423 -201 CURVE SMOOTH",
"535 -202 OFFCURVE",
"621 -136 OFFCURVE",
"621 -20 CURVE SMOOTH",
"621 341 LINE SMOOTH",
"621 468 OFFCURVE",
"543 548 OFFCURVE",
"425 548 CURVE SMOOTH"
);
},
{
closed = 1;
nodes = (
"68 541 LINE",
"68 0 LINE",
"246 0 LINE",
"246 541 LINE"
);
}
);
width = 674;
}
);
leftKerningGroup = i;
rightKerningGroup = i;
unicode = 014B;
},
{
glyphname = o;
layers = (
{
anchors = (
{
name = top;
position = "{319, 541}";
}
);
layerId = "E8BF2718-0C92-4E31-9FCE-6752C723AF07";
paths = (
{
closed = 1;
nodes = (
"142 547 OFFCURVE",
"24 437 OFFCURVE",
"24 271 CURVE SMOOTH",
"24 104 OFFCURVE",
"142 -6 OFFCURVE",
"320 -6 CURVE SMOOTH",
"497 -6 OFFCURVE",
"615 104 OFFCURVE",
"615 271 CURVE SMOOTH",
"615 437 OFFCURVE",
"497 547 OFFCURVE",
"320 547 CURVE SMOOTH"
);
},
{
closed = 1;
nodes = (
"389 403 OFFCURVE",
"436 349 OFFCURVE",
"436 268 CURVE SMOOTH",
"436 188 OFFCURVE",
"389 134 OFFCURVE",
"319 134 CURVE SMOOTH",
"250 134 OFFCURVE",
"203 188 OFFCURVE",
"203 268 CURVE SMOOTH",
"203 349 OFFCURVE",
"250 403 OFFCURVE",
"319 403 CURVE SMOOTH"
);
}
);
width = 638;
}
);
leftKerningGroup = o;
rightKerningGroup = o;
unicode = 006F;
},
{
glyphname = oslash;
layers = (
{
anchors = (
{
name = top;
position = "{319, 541}";
}
);
layerId = "E8BF2718-0C92-4E31-9FCE-6752C723AF07";
paths = (
{
closed = 1;
nodes = (
"414 672 LINE",
"149 -142 LINE",
"222 -142 LINE",
"486 672 LINE"
);
},
{
closed = 1;
nodes = (
"142 547 OFFCURVE",
"24 437 OFFCURVE",
"24 271 CURVE SMOOTH",
"24 104 OFFCURVE",
"142 -6 OFFCURVE",
"320 -6 CURVE SMOOTH",
"497 -6 OFFCURVE",
"615 104 OFFCURVE",
"615 271 CURVE SMOOTH",
"615 437 OFFCURVE",
"497 547 OFFCURVE",
"320 547 CURVE SMOOTH"
);
},
{
closed = 1;
nodes = (
"395 418 OFFCURVE",
"447 358 OFFCURVE",
"447 268 CURVE SMOOTH",
"447 178 OFFCURVE",
"395 119 OFFCURVE",
"319 119 CURVE SMOOTH",
"243 119 OFFCURVE",
"191 178 OFFCURVE",
"191 268 CURVE SMOOTH",
"191 358 OFFCURVE",
"243 418 OFFCURVE",
"319 418 CURVE SMOOTH"
);
}
);
width = 638;
}
);
leftKerningGroup = o;
leftMetricsKey = o;
rightKerningGroup = o;
rightMetricsKey = o;
unicode = 00F8;
},
{
glyphname = oe;
layers = (
{
anchors = (
{
name = top;
position = "{513, 541}";
}
);
layerId = "E8BF2718-0C92-4E31-9FCE-6752C723AF07";
paths = (
{
closed = 0;
nodes = (
"334 230 LINE"
);
},
{
closed = 1;
nodes = (
"142 547 OFFCURVE",
"24 437 OFFCURVE",
"24 271 CURVE SMOOTH",
"24 104 OFFCURVE",
"142 -6 OFFCURVE",
"320 -6 CURVE SMOOTH",
"484 -6 OFFCURVE",
"577 104 OFFCURVE",
"577 271 CURVE SMOOTH",
"577 437 OFFCURVE",
"484 547 OFFCURVE",
"320 547 CURVE SMOOTH"
);
},
{
closed = 1;
nodes = (
"389 403 OFFCURVE",
"436 349 OFFCURVE",
"436 268 CURVE SMOOTH",
"436 188 OFFCURVE",
"389 134 OFFCURVE",
"319 134 CURVE SMOOTH",
"250 134 OFFCURVE",
"203 188 OFFCURVE",
"203 268 CURVE SMOOTH",
"203 349 OFFCURVE",
"250 403 OFFCURVE",
"319 403 CURVE SMOOTH"
);
},
{
closed = 1;
nodes = (
"577 231 LINE",
"994 231 LINE",
"1003 422 OFFCURVE",
"894 547 OFFCURVE",
"713 547 CURVE SMOOTH",
"557 547 OFFCURVE",
"467 436 OFFCURVE",
"467 268 CURVE SMOOTH",
"467 103 OFFCURVE",
"553 -6 OFFCURVE",
"717 -6 CURVE SMOOTH",
"818 -6 OFFCURVE",
"899 28 OFFCURVE",
"955 90 CURVE",
"862 183 LINE",
"825 147 OFFCURVE",
"780 128 OFFCURVE",
"733 128 CURVE SMOOTH",
"654 128 OFFCURVE",
"601 184 OFFCURVE",
"601 279 CURVE SMOOTH",
"601 362 OFFCURVE",
"644 425 OFFCURVE",
"714 425 CURVE SMOOTH",
"774 425 OFFCURVE",
"816 380 OFFCURVE",
"816 317 CURVE",
"577 317 LINE"
);
}
);
width = 1017;
}
);
leftKerningGroup = o;
leftMetricsKey = o;
rightKerningGroup = e;
rightMetricsKey = e;
unicode = 0153;
},
{
glyphname = p;
layers = (
{
layerId = "E8BF2718-0C92-4E31-9FCE-6752C723AF07";
paths = (
{
closed = 1;
nodes = (
"73 541 LINE",
"73 -194 LINE",
"251 -194 LINE",
"251 541 LINE"
);
},
{
closed = 0;
nodes = (
"315 24 LINE"
);
},
{
closed = 1;
nodes = (
"276 547 OFFCURVE",
"193 440 OFFCURVE",
"193 268 CURVE",
"193 100 OFFCURVE",
"277 -6 OFFCURVE",
"414 -6 CURVE SMOOTH",
"564 -6 OFFCURVE",
"662 103 OFFCURVE",
"662 268 CURVE SMOOTH",
"662 436 OFFCURVE",
"561 547 OFFCURVE",
"409 547 CURVE SMOOTH"
);
},
{
closed = 1;
nodes = (
"436 407 OFFCURVE",
"483 352 OFFCURVE",
"483 272 CURVE SMOOTH",
"483 192 OFFCURVE",
"436 138 OFFCURVE",
"367 138 CURVE SMOOTH",
"298 138 OFFCURVE",
"251 192 OFFCURVE",
"251 272 CURVE SMOOTH",
"251 352 OFFCURVE",
"298 407 OFFCURVE",
"367 407 CURVE SMOOTH"
);
}
);
width = 686;
}
);
leftKerningGroup = p;
rightKerningGroup = o;
unicode = 0070;
},
{
glyphname = thorn;
layers = (
{
anchors = (
{
name = bottom;
position = "{162, 0}";
},
{
name = top;
position = "{162, 742}";
},
{
name = topright;
position = "{294, 541}";
}
);
layerId = "E8BF2718-0C92-4E31-9FCE-6752C723AF07";
paths = (
{
closed = 0;
nodes = (
"338 291 LINE"
);
},
{
closed = 1;
nodes = (
"73 541 LINE",
"73 -194 LINE",
"251 -194 LINE",
"251 541 LINE"
);
},
{
closed = 0;
nodes = (
"315 24 LINE"
);
},
{
closed = 1;
nodes = (
"276 547 OFFCURVE",
"193 440 OFFCURVE",
"193 268 CURVE",
"193 100 OFFCURVE",
"277 -6 OFFCURVE",
"414 -6 CURVE SMOOTH",
"564 -6 OFFCURVE",
"662 103 OFFCURVE",
"662 268 CURVE SMOOTH",
"662 436 OFFCURVE",
"561 547 OFFCURVE",
"409 547 CURVE SMOOTH"
);
},
{
closed = 1;
nodes = (
"436 407 OFFCURVE",
"483 352 OFFCURVE",
"483 272 CURVE SMOOTH",
"483 192 OFFCURVE",
"436 138 OFFCURVE",
"367 138 CURVE SMOOTH",
"298 138 OFFCURVE",
"251 192 OFFCURVE",
"251 272 CURVE SMOOTH",
"251 352 OFFCURVE",
"298 407 OFFCURVE",
"367 407 CURVE SMOOTH"
);
},
{
closed = 1;
nodes = (
"73 742 LINE",
"73 0 LINE",
"251 0 LINE",
"251 742 LINE"
);
}
);
width = 685;
}
);
leftKerningGroup = h;
leftMetricsKey = l;
rightKerningGroup = o;
rightMetricsKey = o;
unicode = 00FE;
},
{
glyphname = q;
layers = (
{
layerId = "E8BF2718-0C92-4E31-9FCE-6752C723AF07";
paths = (
{
closed = 1;
nodes = (
"436 541 LINE",
"436 -194 LINE",
"614 -194 LINE",
"614 541 LINE"
);
},
{
closed = 0;
nodes = (
"441 216 LINE"
);
},
{
closed = 1;
nodes = (
"123 547 OFFCURVE",
"24 438 OFFCURVE",
"24 273 CURVE SMOOTH",
"24 105 OFFCURVE",
"124 -7 OFFCURVE",
"277 -7 CURVE SMOOTH",
"411 -7 OFFCURVE",
"494 101 OFFCURVE",
"493 272 CURVE",
"494 441 OFFCURVE",
"409 547 OFFCURVE",
"272 547 CURVE SMOOTH"
);
},
{
closed = 1;
nodes = (
"389 403 OFFCURVE",
"436 349 OFFCURVE",
"436 268 CURVE SMOOTH",
"436 188 OFFCURVE",
"389 133 OFFCURVE",
"320 133 CURVE SMOOTH",
"250 133 OFFCURVE",
"203 188 OFFCURVE",
"203 268 CURVE SMOOTH",
"203 348 OFFCURVE",
"250 403 OFFCURVE",
"320 403 CURVE SMOOTH"
);
}
);
width = 687;
}
);
leftKerningGroup = o;
rightKerningGroup = q;
unicode = 0071;
},
{
glyphname = r;
layers = (
{
anchors = (
{
name = bottom;
position = "{152, 0}";
},
{
name = top;
position = "{227, 541}";
}
);
layerId = "E8BF2718-0C92-4E31-9FCE-6752C723AF07";
paths = (
{
closed = 1;
nodes = (
"68 541 LINE",
"68 0 LINE",
"246 0 LINE",
"246 541 LINE"
);
},
{
closed = 1;
nodes = (
"287 548 OFFCURVE",
"203 443 OFFCURVE",
"203 267 CURVE",
"245 259 LINE",
"245 344 OFFCURVE",
"313 396 OFFCURVE",
"420 385 CURVE",
"420 548 LINE"
);
}
);
width = 430;
}
);
leftKerningGroup = n;
rightKerningGroup = r;
unicode = 0072;
},
{
glyphname = s;
layers = (
{
anchors = (
{
name = bottom;
position = "{257, 0}";
},
{
name = top;
position = "{268, 541}";
}
);
layerId = "E8BF2718-0C92-4E31-9FCE-6752C723AF07";
paths = (
{
closed = 1;
nodes = (
"137 549 OFFCURVE",
"42 487 OFFCURVE",
"42 374 CURVE SMOOTH",
"42 187 OFFCURVE",
"321 224 OFFCURVE",
"321 150 CURVE SMOOTH",
"321 128 OFFCURVE",
"297 117 OFFCURVE",
"264 117 CURVE SMOOTH",
"204 117 OFFCURVE",
"134 141 OFFCURVE",
"72 184 CURVE",
"16 69 LINE",
"82 18 OFFCURVE",
"169 -8 OFFCURVE",
"260 -8 CURVE SMOOTH",
"392 -8 OFFCURVE",
"489 55 OFFCURVE",
"489 166 CURVE SMOOTH",
"490 354 OFFCURVE",
"206 320 OFFCURVE",
"206 391 CURVE SMOOTH",
"206 414 OFFCURVE",
"227 425 OFFCURVE",
"257 425 CURVE SMOOTH",
"302 425 OFFCURVE",
"362 405 OFFCURVE",
"429 370 CURVE",
"489 486 LINE",
"422 527 OFFCURVE",
"343 549 OFFCURVE",
"264 549 CURVE SMOOTH"
);
}
);
width = 517;
}
);
leftKerningGroup = s;
rightKerningGroup = s;
unicode = 0073;
},
{
glyphname = germandbls;
layers = (
{
layerId = "E8BF2718-0C92-4E31-9FCE-6752C723AF07";
paths = (
{
closed = 1;
nodes = (
"161 750 OFFCURVE",
"56 649 OFFCURVE",
"56 492 CURVE SMOOTH",
"56 0 LINE",
"233 0 LINE",
"233 506 LINE SMOOTH",
"233 576 OFFCURVE",
"268 615 OFFCURVE",
"330 615 CURVE SMOOTH",
"385 615 OFFCURVE",
"416 583 OFFCURVE",
"416 523 CURVE SMOOTH",
"416 462 OFFCURVE",
"380 429 OFFCURVE",
"313 429 CURVE",
"313 302 LINE",
"331 302 LINE SMOOTH",
"413 302 OFFCURVE",
"458 272 OFFCURVE",
"458 216 CURVE SMOOTH",
"458 161 OFFCURVE",
"417 128 OFFCURVE",
"342 128 CURVE SMOOTH",
"303 128 LINE",
"303 0 LINE",
"352 0 LINE SMOOTH",
"522 0 OFFCURVE",
"631 86 OFFCURVE",
"631 214 CURVE SMOOTH",
"631 299 OFFCURVE",
"575 361 OFFCURVE",
"494 383 CURVE",
"552 416 OFFCURVE",
"589 481 OFFCURVE",
"589 550 CURVE SMOOTH",
"589 671 OFFCURVE",
"485 750 OFFCURVE",
"328 750 CURVE SMOOTH"
);
}
);
width = 663;
}
);
leftKerningGroup = f;
leftMetricsKey = U;
rightKerningGroup = B;
rightMetricsKey = B;
unicode = 00DF;
},
{
glyphname = t;
layers = (
{
anchors = (
{
name = bottom;
position = "{260, 0}";
},
{
name = center;
position = "{219, 271}";
}
);
layerId = "E8BF2718-0C92-4E31-9FCE-6752C723AF07";
paths = (
{
closed = 1;
nodes = (
"93 665 LINE",
"93 165 LINE",
"93 53 OFFCURVE",
"169 -9 OFFCURVE",
"275 -8 CURVE",
"327 -8 OFFCURVE",
"381 5 OFFCURVE",
"420 28 CURVE",
"386 154 LINE",
"360 143 OFFCURVE",
"337 136 OFFCURVE",
"319 136 CURVE",
"289 135 OFFCURVE",
"270 153 OFFCURVE",
"270 193 CURVE",
"270 665 LINE"
);
},
{
closed = 1;
nodes = (
"18 515 LINE",
"18 397 LINE",
"410 397 LINE",
"410 515 LINE"
);
}
);
width = 437;
}
);
leftKerningGroup = u;
rightKerningGroup = t;
unicode = 0074;
},
{
glyphname = tbar;
layers = (
{
anchors = (
{
name = bottom;
position = "{260, 0}";
},
{
name = center;
position = "{219, 271}";
}
);
layerId = "E8BF2718-0C92-4E31-9FCE-6752C723AF07";
paths = (
{
closed = 1;
nodes = (
"93 665 LINE",
"93 165 LINE",
"93 53 OFFCURVE",
"169 -9 OFFCURVE",
"275 -8 CURVE",
"327 -8 OFFCURVE",
"381 5 OFFCURVE",
"420 28 CURVE",
"386 154 LINE",
"360 143 OFFCURVE",
"337 136 OFFCURVE",
"319 136 CURVE",
"289 135 OFFCURVE",
"270 153 OFFCURVE",
"270 193 CURVE",
"270 665 LINE"
);
},
{
closed = 1;
nodes = (
"18 515 LINE",
"18 412 LINE",
"410 412 LINE",
"410 515 LINE"
);
},
{
closed = 1;
nodes = (
"18 342 LINE",
"18 239 LINE",
"410 239 LINE",
"410 342 LINE"
);
}
);
width = 437;
}
);
leftKerningGroup = t;
rightKerningGroup = t;
unicode = 0167;
},
{
glyphname = u;
layers = (
{
anchors = (
{
name = ogonek;
position = "{612, 10}";
},
{
name = top;
position = "{327, 541}";
}
);
layerId = "E8BF2718-0C92-4E31-9FCE-6752C723AF07";
paths = (
{
closed = 1;
nodes = (
"596 0 LINE",
"596 541 LINE",
"418 541 LINE",
"418 0 LINE"
);
},
{
closed = 1;
nodes = (
"378 -7 OFFCURVE",
"460 91 OFFCURVE",
"460 274 CURVE",
"418 274 LINE",
"418 203 OFFCURVE",
"380 153 OFFCURVE",
"317 152 CURVE SMOOTH",
"264 152 OFFCURVE",
"230 189 OFFCURVE",
"230 250 CURVE SMOOTH",
"230 541 LINE",
"52 541 LINE",
"52 199 LINE SMOOTH",
"52 73 OFFCURVE",
"128 -8 OFFCURVE",
"245 -8 CURVE SMOOTH"
);
}
);
width = 664;
}
);
leftKerningGroup = u;
rightKerningGroup = i;
unicode = 0075;
},
{
glyphname = uogonek;
layers = (
{
layerId = "E8BF2718-0C92-4E31-9FCE-6752C723AF07";
paths = (
{
closed = 1;
nodes = (
"423 541 LINE",
"423 264 LINE SMOOTH",
"420 199 OFFCURVE",
"381 153 OFFCURVE",
"320 152 CURVE SMOOTH",
"265 152 OFFCURVE",
"229 189 OFFCURVE",
"229 250 CURVE SMOOTH",
"229 541 LINE",
"52 541 LINE",
"52 199 LINE SMOOTH",
"52 73 OFFCURVE",
"129 -8 OFFCURVE",
"247 -8 CURVE SMOOTH",
"326 -7 OFFCURVE",
"386 25 OFFCURVE",
"423 87 CURVE",
"423 0 LINE",
"471 0 LINE",
"443 -41 OFFCURVE",
"424 -80 OFFCURVE",
"424 -119 CURVE SMOOTH",
"424 -182 OFFCURVE",
"473 -203 OFFCURVE",
"513 -203 CURVE SMOOTH",
"557 -203 OFFCURVE",
"597 -179 OFFCURVE",
"622 -135 CURVE",
"577 -82 LINE",
"564 -101 OFFCURVE",
"550 -112 OFFCURVE",
"535 -112 CURVE SMOOTH",
"522 -112 OFFCURVE",
"514 -105 OFFCURVE",
"514 -90 CURVE SMOOTH",
"514 -71 OFFCURVE",
"529 -39 OFFCURVE",
"557 0 CURVE",
"601 0 LINE",
"601 541 LINE"
);
}
);
width = 661;
}
);
leftKerningGroup = u;
leftMetricsKey = u;
rightKerningGroup = u;
unicode = 0173;
},
{
glyphname = v;
layers = (
{
layerId = "E8BF2718-0C92-4E31-9FCE-6752C723AF07";
paths = (
{
closed = 1;
nodes = (
"404 541 LINE",
"291 165 LINE",
"178 541 LINE",
"-6 541 LINE",
"197 0 LINE",
"379 0 LINE",
"582 541 LINE"
);
}
);
width = 575;
}
);
leftKerningGroup = v;
rightKerningGroup = v;
unicode = 0076;
},
{
glyphname = w;
layers = (
{
anchors = (
{
name = top;
position = "{471, 541}";
}
);
layerId = "E8BF2718-0C92-4E31-9FCE-6752C723AF07";
paths = (
{
closed = 1;
nodes = (
"774 541 LINE",
"667 175 LINE",
"559 541 LINE",
"390 541 LINE",
"284 175 LINE",
"175 541 LINE",
"-6 541 LINE",
"191 0 LINE",
"368 0 LINE",
"472 334 LINE",
"574 0 LINE",
"751 0 LINE",
"948 541 LINE"
);
}
);
width = 941;
}
);
leftKerningGroup = v;
rightKerningGroup = v;
unicode = 0077;
},
{
glyphname = x;
layers = (
{
layerId = "E8BF2718-0C92-4E31-9FCE-6752C723AF07";
paths = (
{
closed = 1;
nodes = (
"15 541 LINE",
"187 277 LINE",
"3 0 LINE",
"199 0 LINE",
"306 165 LINE",
"402 0 LINE",
"607 0 LINE",
"424 277 LINE",
"595 541 LINE",
"400 541 LINE",
"306 389 LINE",
"219 541 LINE"
);
}
);
width = 611;
}
);
leftKerningGroup = x;
rightKerningGroup = x;
unicode = 0078;
},
{
glyphname = y;
layers = (
{
anchors = (
{
name = top;
position = "{293, 541}";
}
);
layerId = "E8BF2718-0C92-4E31-9FCE-6752C723AF07";
paths = (
{
closed = 1;
nodes = (
"414 541 LINE",
"300 189 LINE",
"170 541 LINE",
"-13 541 LINE",
"211 13 LINE",
"199 -12 LINE SMOOTH",
"185 -39 OFFCURVE",
"163 -53 OFFCURVE",
"133 -53 CURVE SMOOTH",
"108 -53 OFFCURVE",
"86 -44 OFFCURVE",
"62 -23 CURVE",
"-13 -146 LINE",
"37 -184 OFFCURVE",
"86 -202 OFFCURVE",
"148 -202 CURVE SMOOTH",
"249 -202 OFFCURVE",
"319 -154 OFFCURVE",
"359 -53 CURVE SMOOTH",
"592 541 LINE"
);
}
);
width = 584;
}
);
leftKerningGroup = v;
rightKerningGroup = v;
unicode = 0079;
},
{
glyphname = z;
layers = (
{
anchors = (
{
name = top;
position = "{277, 541}";
}
);
layerId = "E8BF2718-0C92-4E31-9FCE-6752C723AF07";
paths = (
{
closed = 1;
nodes = (
"44 541 LINE",
"44 404 LINE",
"295 404 LINE",
"34 108 LINE",
"34 0 LINE",
"527 0 LINE",
"527 136 LINE",
"257 136 LINE",
"518 432 LINE",
"518 540 LINE"
);
}
);
width = 555;
}
);
leftKerningGroup = z;
rightKerningGroup = z;
unicode = 007A;
},
{
glyphname = a.ss01;
layers = (
{
anchors = (
{
name = ogonek;
position = "{636, 10}";
},
{
name = top;
position = "{335, 541}";
}
);
layerId = "E8BF2718-0C92-4E31-9FCE-6752C723AF07";
paths = (
{
closed = 1;
nodes = (
"435 541 LINE",
"435 0 LINE",
"612 0 LINE",
"612 541 LINE"
);
},
{
closed = 1;
nodes = (
"122 547 OFFCURVE",
"24 438 OFFCURVE",
"24 273 CURVE SMOOTH",
"24 105 OFFCURVE",
"124 -7 OFFCURVE",
"277 -7 CURVE SMOOTH",
"411 -7 OFFCURVE",
"494 101 OFFCURVE",
"493 272 CURVE",
"494 441 OFFCURVE",
"409 548 OFFCURVE",
"272 547 CURVE SMOOTH"
);
},
{
closed = 1;
nodes = (
"389 403 OFFCURVE",
"436 349 OFFCURVE",
"436 268 CURVE SMOOTH",
"436 188 OFFCURVE",
"389 133 OFFCURVE",
"320 133 CURVE SMOOTH",
"250 133 OFFCURVE",
"203 188 OFFCURVE",
"203 268 CURVE SMOOTH",
"203 348 OFFCURVE",
"250 403 OFFCURVE",
"320 403 CURVE SMOOTH"
);
}
);
width = 680;
}
);
leftKerningGroup = o;
leftMetricsKey = o;
rightKerningGroup = dotlessi;
rightMetricsKey = dotlessi;
},
{
glyphname = ae.ss01;
layers = (
{
anchors = (
{
name = top;
position = "{476, 541}";
}
);
layerId = "E8BF2718-0C92-4E31-9FCE-6752C723AF07";
paths = (
{
closed = 0;
nodes = (
"555 124 LINE"
);
},
{
closed = 1;
nodes = (
"234 325 LINE SMOOTH",
"100 323 OFFCURVE",
"26 264 OFFCURVE",
"26 162 CURVE SMOOTH",
"26 62 OFFCURVE",
"99 -9 OFFCURVE",
"225 -9 CURVE SMOOTH",
"342 -9 OFFCURVE",
"424 43 OFFCURVE",
"462 134 CURVE",
"377 184 LINE",
"366 142 OFFCURVE",
"320 113 OFFCURVE",
"267 113 CURVE SMOOTH",
"220 113 OFFCURVE",
"193 137 OFFCURVE",
"193 174 CURVE SMOOTH",
"193 212 OFFCURVE",
"218 230 OFFCURVE",
"269 230 CURVE SMOOTH",
"394 230 LINE",
"394 325 LINE"
);
},
{
closed = 1;
nodes = (
"109 369 LINE",
"167 397 OFFCURVE",
"227 412 OFFCURVE",
"272 412 CURVE SMOOTH",
"341 412 OFFCURVE",
"376 382 OFFCURVE",
"377 331 CURVE",
"377 145 LINE",
"552 113 LINE",
"551 352 LINE SMOOTH",
"551 476 OFFCURVE",
"464 548 OFFCURVE",
"314 548 CURVE SMOOTH",
"224 548 OFFCURVE",
"145 527 OFFCURVE",
"60 489 CURVE"
);
},
{
closed = 1;
nodes = (
"780 151 OFFCURVE",
"733 128 OFFCURVE",
"686 128 CURVE SMOOTH",
"609 128 OFFCURVE",
"558 186 OFFCURVE",
"558 281 CURVE SMOOTH",
"558 369 OFFCURVE",
"600 421 OFFCURVE",
"670 421 CURVE SMOOTH",
"716 421 OFFCURVE",
"752 400 OFFCURVE",
"765 347 CURVE",
"528 289 LINE",
"529 189 LINE",
"935 286 LINE",
"931 446 OFFCURVE",
"831 548 OFFCURVE",
"670 547 CURVE SMOOTH",
"501 546 OFFCURVE",
"401 434 OFFCURVE",
"401 271 CURVE SMOOTH",
"401 103 OFFCURVE",
"507 -6 OFFCURVE",
"675 -6 CURVE SMOOTH",
"769 -6 OFFCURVE",
"857 29 OFFCURVE",
"921 104 CURVE",
"820 194 LINE"
);
}
);
width = 958;
}
);
leftKerningGroup = ae.ss01;
leftMetricsKey = a;
rightKerningGroup = ae.ss01;
rightMetricsKey = e;
},
{
glyphname = e.ss01;
layers = (
{
anchors = (
{
name = bottom;
position = "{306, 0}";
},
{
name = ogonek;
position = "{550, 10}";
},
{
name = top;
position = "{306, 541}";
}
);
layerId = "E8BF2718-0C92-4E31-9FCE-6752C723AF07";
paths = (
{
closed = 1;
nodes = (
"174 192 LINE",
"579 289 LINE",
"575 449 OFFCURVE",
"469 548 OFFCURVE",
"306 547 CURVE SMOOTH",
"134 546 OFFCURVE",
"24 434 OFFCURVE",
"24 268 CURVE SMOOTH",
"24 103 OFFCURVE",
"141 -6 OFFCURVE",
"316 -6 CURVE SMOOTH",
"418 -6 OFFCURVE",
"502 30 OFFCURVE",
"565 104 CURVE",
"465 194 LINE",
"424 151 OFFCURVE",
"377 128 OFFCURVE",
"330 128 CURVE SMOOTH",
"253 128 OFFCURVE",
"202 187 OFFCURVE",
"202 279 CURVE SMOOTH",
"202 370 OFFCURVE",
"245 421 OFFCURVE",
"314 421 CURVE SMOOTH",
"359 421 OFFCURVE",
"391 398 OFFCURVE",
"404 350 CURVE",
"172 292 LINE"
);
}
);
width = 609;
}
);
leftKerningGroup = o;
leftMetricsKey = o;
rightKerningGroup = e;
},
{
glyphname = eogonek.ss01;
layers = (
{
layerId = "E8BF2718-0C92-4E31-9FCE-6752C723AF07";
paths = (
{
closed = 1;
nodes = (
"253 128 OFFCURVE",
"202 187 OFFCURVE",
"202 279 CURVE SMOOTH",
"202 370 OFFCURVE",
"245 421 OFFCURVE",
"314 421 CURVE SMOOTH",
"359 421 OFFCURVE",
"391 398 OFFCURVE",
"404 350 CURVE",
"172 292 LINE",
"174 192 LINE",
"579 289 LINE",
"575 449 OFFCURVE",
"469 548 OFFCURVE",
"306 547 CURVE SMOOTH",
"134 546 OFFCURVE",
"24 434 OFFCURVE",
"24 268 CURVE SMOOTH",
"24 103 OFFCURVE",
"141 -6 OFFCURVE",
"316 -6 CURVE",
"348 -6 OFFCURVE",
"380 2 OFFCURVE",
"408 15 CURVE",
"374 -31 OFFCURVE",
"353 -76 OFFCURVE",
"353 -119 CURVE SMOOTH",
"353 -182 OFFCURVE",
"401 -203 OFFCURVE",
"442 -203 CURVE SMOOTH",
"486 -203 OFFCURVE",
"524 -179 OFFCURVE",
"550 -135 CURVE",
"505 -82 LINE",
"492 -101 OFFCURVE",
"478 -112 OFFCURVE",
"464 -112 CURVE SMOOTH",
"452 -112 OFFCURVE",
"443 -105 OFFCURVE",
"443 -90 CURVE SMOOTH",
"443 -42 OFFCURVE",
"508 38 OFFCURVE",
"552 90 CURVE",
"459 183 LINE",
"423 147 OFFCURVE",
"376 128 OFFCURVE",
"330 128 CURVE"
);
}
);
width = 609;
}
);
leftKerningGroup = o;
rightKerningGroup = e;
},
{
glyphname = f.ss01;
layers = (
{
layerId = "E8BF2718-0C92-4E31-9FCE-6752C723AF07";
paths = (
{
closed = 1;
nodes = (
"147 751 OFFCURVE",
"57 684 OFFCURVE",
"57 565 CURVE",
"57 0 LINE",
"234 0 LINE",
"234 550 LINE",
"234 589 OFFCURVE",
"259 608 OFFCURVE",
"294 608 CURVE",
"314 608 OFFCURVE",
"338 600 OFFCURVE",
"357 586 CURVE",
"419 712 LINE",
"378 736 OFFCURVE",
"319 750 OFFCURVE",
"265 750 CURVE"
);
},
{
closed = 1;
nodes = (
"76 515 LINE",
"76 397 LINE",
"354 397 LINE",
"354 515 LINE"
);
}
);
width = 353;
}
);
leftKerningGroup = f.ss01;
rightKerningGroup = f.ss01;
},
{
glyphname = g.ss01;
layers = (
{
anchors = (
{
name = top;
position = "{318, 541}";
}
);
layerId = "E8BF2718-0C92-4E31-9FCE-6752C723AF07";
paths = (
{
closed = 1;
nodes = (
"408 541 LINE",
"408 43 LINE SMOOTH",
"408 -20 OFFCURVE",
"358 -61 OFFCURVE",
"281 -61 CURVE SMOOTH",
"218 -60 OFFCURVE",
"161 -29 OFFCURVE",
"121 18 CURVE",
"40 -81 LINE",
"91 -157 OFFCURVE",
"191 -201 OFFCURVE",
"289 -202 CURVE SMOOTH",
"468 -202 OFFCURVE",
"585 -105 OFFCURVE",
"585 48 CURVE SMOOTH",
"585 541 LINE"
);
},
{
closed = 1;
nodes = (
"116 546 OFFCURVE",
"24 444 OFFCURVE",
"24 291 CURVE SMOOTH",
"24 134 OFFCURVE",
"118 30 OFFCURVE",
"260 30 CURVE SMOOTH",
"385 30 OFFCURVE",
"462 130 OFFCURVE",
"462 290 CURVE",
"462 448 OFFCURVE",
"383 547 OFFCURVE",
"255 546 CURVE SMOOTH"
);
},
{
closed = 1;
nodes = (
"365 412 OFFCURVE",
"408 362 OFFCURVE",
"408 286 CURVE SMOOTH",
"408 212 OFFCURVE",
"365 160 OFFCURVE",
"300 160 CURVE SMOOTH",
"234 160 OFFCURVE",
"190 212 OFFCURVE",
"190 286 CURVE SMOOTH",
"190 361 OFFCURVE",
"235 412 OFFCURVE",
"300 412 CURVE SMOOTH"
);
}
);
width = 648;
}
);
leftKerningGroup = o;
leftMetricsKey = o;
rightKerningGroup = j;
rightMetricsKey = j;
},
{
glyphname = l.ss01;
layers = (
{
anchors = (
{
name = bottom;
position = "{174, 0}";
},
{
name = top;
position = "{174, 541}";
},
{
name = topright;
position = "{328, 541}";
}
);
layerId = "E8BF2718-0C92-4E31-9FCE-6752C723AF07";
paths = (
{
closed = 1;
nodes = (
"58 194 LINE SMOOTH",
"58 56 OFFCURVE",
"145 -9 OFFCURVE",
"245 -9 CURVE SMOOTH",
"279 -9 OFFCURVE",
"314 0 OFFCURVE",
"348 14 CURVE",
"334 161 LINE",
"316 152 OFFCURVE",
"299 147 OFFCURVE",
"283 147 CURVE SMOOTH",
"255 147 OFFCURVE",
"235 163 OFFCURVE",
"235 202 CURVE SMOOTH",
"235 742 LINE",
"58 742 LINE"
);
}
);
width = 346;
}
);
leftKerningGroup = l.ss01;
rightKerningGroup = l.ss01;
},
{
glyphname = oe.ss01;
layers = (
{
anchors = (
{
name = bottom;
position = "{944, 0}";
},
{
name = ogonek;
position = "{1189, 10}";
},
{
name = top;
position = "{944, 541}";
}
);
layerId = "E8BF2718-0C92-4E31-9FCE-6752C723AF07";
paths = (
{
closed = 1;
nodes = (
"142 547 OFFCURVE",
"24 437 OFFCURVE",
"24 271 CURVE SMOOTH",
"24 104 OFFCURVE",
"142 -6 OFFCURVE",
"320 -6 CURVE SMOOTH",
"484 -6 OFFCURVE",
"577 104 OFFCURVE",
"577 271 CURVE SMOOTH",
"577 437 OFFCURVE",
"484 547 OFFCURVE",
"320 547 CURVE SMOOTH"
);
},
{
closed = 1;
nodes = (
"389 403 OFFCURVE",
"436 349 OFFCURVE",
"436 269 CURVE SMOOTH",
"436 188 OFFCURVE",
"389 134 OFFCURVE",
"320 134 CURVE SMOOTH",
"250 134 OFFCURVE",
"203 188 OFFCURVE",
"203 269 CURVE SMOOTH",
"203 349 OFFCURVE",
"250 403 OFFCURVE",
"320 403 CURVE SMOOTH"
);
},
{
closed = 1;
nodes = (
"559 546 OFFCURVE",
"468 434 OFFCURVE",
"468 268 CURVE SMOOTH",
"468 103 OFFCURVE",
"566 -6 OFFCURVE",
"729 -6 CURVE SMOOTH",
"831 -6 OFFCURVE",
"914 30 OFFCURVE",
"977 104 CURVE",
"877 194 LINE",
"837 151 OFFCURVE",
"790 128 OFFCURVE",
"742 128 CURVE SMOOTH",
"666 128 OFFCURVE",
"615 187 OFFCURVE",
"615 279 CURVE SMOOTH",
"615 370 OFFCURVE",
"658 421 OFFCURVE",
"727 421 CURVE SMOOTH",
"771 421 OFFCURVE",
"804 398 OFFCURVE",
"817 350 CURVE",
"584 292 LINE",
"587 192 LINE",
"992 289 LINE",
"988 449 OFFCURVE",
"881 548 OFFCURVE",
"719 547 CURVE SMOOTH"
);
}
);
width = 1022;
}
);
leftKerningGroup = o;
leftMetricsKey = "=o";
rightKerningGroup = o;
rightMetricsKey = e.ss01;
},
{
glyphname = t.ss01;
layers = (
{
anchors = (
{
name = bottom;
position = "{207, 0}";
},
{
name = center;
position = "{183, 271}";
}
);
layerId = "E8BF2718-0C92-4E31-9FCE-6752C723AF07";
paths = (
{
closed = 1;
nodes = (
"57 665 LINE",
"57 173 LINE",
"57 58 OFFCURVE",
"132 -9 OFFCURVE",
"240 -8 CURVE",
"291 -8 OFFCURVE",
"345 5 OFFCURVE",
"384 28 CURVE",
"350 154 LINE",
"324 143 OFFCURVE",
"301 136 OFFCURVE",
"284 136 CURVE",
"253 135 OFFCURVE",
"234 157 OFFCURVE",
"234 201 CURVE",
"234 665 LINE"
);
},
{
closed = 1;
nodes = (
"82 515 LINE",
"82 397 LINE",
"374 397 LINE",
"374 515 LINE"
);
}
);
width = 401;
}
);
leftKerningGroup = u;
rightKerningGroup = t;
rightMetricsKey = t;
},
{
glyphname = tbar.ss01;
layers = (
{
anchors = (
{
name = bottom;
position = "{207, 0}";
},
{
name = center;
position = "{183, 271}";
}
);
layerId = "E8BF2718-0C92-4E31-9FCE-6752C723AF07";
paths = (
{
closed = 1;
nodes = (
"57 665 LINE",
"57 173 LINE",
"57 58 OFFCURVE",
"132 -9 OFFCURVE",
"240 -8 CURVE",
"291 -8 OFFCURVE",
"345 5 OFFCURVE",
"384 28 CURVE",
"350 154 LINE",
"324 143 OFFCURVE",
"301 136 OFFCURVE",
"284 136 CURVE",
"253 135 OFFCURVE",
"234 157 OFFCURVE",
"234 201 CURVE",
"234 665 LINE"
);
},
{
closed = 1;
nodes = (
"80 515 LINE",
"80 412 LINE",
"372 412 LINE",
"372 515 LINE"
);
},
{
closed = 1;
nodes = (
"80 342 LINE",
"80 239 LINE",
"372 239 LINE",
"372 342 LINE"
);
}
);
width = 401;
}
);
leftKerningGroup = tbar.ss01;
rightKerningGroup = tbar.ss01;
},
{
glyphname = w.ss01;
layers = (
{
anchors = (
{
name = top;
position = "{490, 541}";
}
);
layerId = "E8BF2718-0C92-4E31-9FCE-6752C723AF07";
paths = (
{
closed = 1;
nodes = (
"753 541 LINE",
"753 242 LINE SMOOTH",
"753 186 OFFCURVE",
"719 150 OFFCURVE",
"669 150 CURVE SMOOTH",
"615 150 OFFCURVE",
"578 186 OFFCURVE",
"578 242 CURVE SMOOTH",
"578 541 LINE",
"402 541 LINE",
"402 242 LINE SMOOTH",
"402 186 OFFCURVE",
"368 150 OFFCURVE",
"316 150 CURVE SMOOTH",
"263 150 OFFCURVE",
"228 186 OFFCURVE",
"228 242 CURVE SMOOTH",
"228 541 LINE",
"52 541 LINE",
"52 234 LINE SMOOTH",
"52 89 OFFCURVE",
"147 -8 OFFCURVE",
"288 -8 CURVE SMOOTH",
"369 -8 OFFCURVE",
"452 35 OFFCURVE",
"491 100 CURVE",
"532 35 OFFCURVE",
"616 -8 OFFCURVE",
"697 -8 CURVE SMOOTH",
"836 -8 OFFCURVE",
"930 89 OFFCURVE",
"930 234 CURVE SMOOTH",
"930 541 LINE"
);
}
);
width = 980;
}
);
leftKerningGroup = u;
rightKerningGroup = w.ss01;
},
{
glyphname = y.ss01;
layers = (
{
anchors = (
{
name = top;
position = "{328, 541}";
}
);
layerId = "E8BF2718-0C92-4E31-9FCE-6752C723AF07";
paths = (
{
closed = 1;
nodes = (
"391 45 OFFCURVE",
"473 149 OFFCURVE",
"473 330 CURVE",
"428 330 LINE",
"428 254 OFFCURVE",
"388 205 OFFCURVE",
"322 205 CURVE SMOOTH",
"265 205 OFFCURVE",
"230 242 OFFCURVE",
"230 303 CURVE SMOOTH",
"230 541 LINE",
"52 541 LINE",
"52 252 LINE SMOOTH",
"52 125 OFFCURVE",
"127 45 OFFCURVE",
"246 45 CURVE SMOOTH"
);
},
{
closed = 1;
nodes = (
"428 541 LINE",
"428 59 LINE",
"428 -13 OFFCURVE",
"376 -60 OFFCURVE",
"299 -60 CURVE SMOOTH",
"244 -59 OFFCURVE",
"170 -37 OFFCURVE",
"119 -6 CURVE",
"76 -130 LINE",
"138 -171 OFFCURVE",
"238 -200 OFFCURVE",
"319 -201 CURVE",
"488 -202 OFFCURVE",
"605 -97 OFFCURVE",
"605 56 CURVE",
"605 541 LINE"
);
}
);
width = 668;
}
);
leftKerningGroup = u;
leftMetricsKey = u;
rightKerningGroup = j;
rightMetricsKey = g;
},
{
glyphname = z.ss01;
layers = (
{
anchors = (
{
name = top;
position = "{277, 541}";
}
);
layerId = "E8BF2718-0C92-4E31-9FCE-6752C723AF07";
paths = (
{
closed = 1;
nodes = (
"263 317 LINE",
"263 218 LINE",
"484 218 LINE",
"484 317 LINE"
);
},
{
closed = 1;
nodes = (
"68 326 LINE",
"68 227 LINE",
"280 227 LINE",
"280 326 LINE"
);
},
{
closed = 1;
nodes = (
"44 541 LINE",
"44 404 LINE",
"295 404 LINE",
"34 108 LINE",
"34 0 LINE",
"527 0 LINE",
"527 136 LINE",
"257 136 LINE",
"518 432 LINE",
"518 540 LINE"
);
}
);
width = 555;
}
);
leftKerningGroup = z;
leftMetricsKey = z;
rightKerningGroup = z;
rightMetricsKey = z;
},
{
glyphname = fi;
layers = (
{
components = (
{
name = i;
transform = "{1, 0, 0, 1, 390, 0}";
}
);
layerId = "E8BF2718-0C92-4E31-9FCE-6752C723AF07";
paths = (
{
closed = 1;
nodes = (
"191 751 OFFCURVE",
"100 685 OFFCURVE",
"100 565 CURVE",
"100 0 LINE",
"277 0 LINE",
"277 550 LINE",
"277 589 OFFCURVE",
"302 608 OFFCURVE",
"337 607 CURVE",
"359 607 OFFCURVE",
"385 599 OFFCURVE",
"408 587 CURVE",
"414 730 LINE",
"386 743 OFFCURVE",
"346 750 OFFCURVE",
"308 750 CURVE"
);
},
{
closed = 1;
nodes = (
"27 521 LINE",
"27 403 LINE",
"397 403 LINE",
"397 521 LINE"
);
}
);
width = 703;
}
);
leftKerningGroup = f;
leftMetricsKey = f;
rightKerningGroup = dotlessi;
rightMetricsKey = i;
unicode = FB01;
},
{
glyphname = fl;
layers = (
{
components = (
{
name = l;
transform = "{1, 0, 0, 1, 396, 0}";
}
);
layerId = "E8BF2718-0C92-4E31-9FCE-6752C723AF07";
paths = (
{
closed = 1;
nodes = (
"183 753 OFFCURVE",
"100 680 OFFCURVE",
"100 571 CURVE",
"100 0 LINE",
"277 0 LINE",
"277 544 LINE",
"277 585 OFFCURVE",
"305 612 OFFCURVE",
"346 611 CURVE",
"366 611 OFFCURVE",
"390 603 OFFCURVE",
"409 589 CURVE",
"414 733 LINE",
"387 745 OFFCURVE",
"346 752 OFFCURVE",
"309 752 CURVE"
);
},
{
closed = 1;
nodes = (
"27 521 LINE",
"27 403 LINE",
"397 403 LINE",
"397 521 LINE"
);
}
);
width = 720;
}
);
leftKerningGroup = f;
leftMetricsKey = f;
rightKerningGroup = l;
rightMetricsKey = l;
unicode = FB02;
},
{
glyphname = fi.ss01;
layers = (
{
components = (
{
name = i;
transform = "{1, 0, 0, 1, 352, 0}";
}
);
layerId = "E8BF2718-0C92-4E31-9FCE-6752C723AF07";
paths = (
{
closed = 1;
nodes = (
"148 751 OFFCURVE",
"57 685 OFFCURVE",
"57 565 CURVE",
"57 0 LINE",
"234 0 LINE",
"234 550 LINE",
"234 589 OFFCURVE",
"259 608 OFFCURVE",
"294 607 CURVE",
"316 607 OFFCURVE",
"342 599 OFFCURVE",
"365 587 CURVE",
"371 730 LINE",
"343 743 OFFCURVE",
"303 750 OFFCURVE",
"265 750 CURVE"
);
},
{
closed = 1;
nodes = (
"85 515 LINE",
"85 397 LINE",
"355 397 LINE",
"355 515 LINE"
);
}
);
width = 665;
}
);
leftKerningGroup = f;
leftMetricsKey = f.ss01;
rightKerningGroup = dotlessi;
rightMetricsKey = i;
},
{
glyphname = fl.ss01;
layers = (
{
anchors = (
{
name = caret_1;
position = "{372, 0}";
}
);
layerId = "E8BF2718-0C92-4E31-9FCE-6752C723AF07";
paths = (
{
closed = 1;
nodes = (
"730 61 LINE",
"711 52 OFFCURVE",
"694 47 OFFCURVE",
"678 47 CURVE SMOOTH",
"651 47 OFFCURVE",
"631 63 OFFCURVE",
"631 102 CURVE SMOOTH",
"631 540 LINE SMOOTH",
"631 671 OFFCURVE",
"534 749 OFFCURVE",
"370 750 CURVE SMOOTH",
"201 750 OFFCURVE",
"100 681 OFFCURVE",
"100 563 CURVE SMOOTH",
"100 491 LINE",
"27 491 LINE",
"27 373 LINE",
"100 373 LINE",
"100 0 LINE",
"277 0 LINE",
"277 373 LINE",
"375 373 LINE",
"375 491 LINE",
"277 491 LINE",
"277 545 LINE SMOOTH",
"277 585 OFFCURVE",
"308 609 OFFCURVE",
"362 608 CURVE SMOOTH",
"420 607 OFFCURVE",
"454 581 OFFCURVE",
"454 536 CURVE SMOOTH",
"454 94 LINE SMOOTH",
"454 -44 OFFCURVE",
"541 -109 OFFCURVE",
"640 -109 CURVE SMOOTH",
"674 -109 OFFCURVE",
"710 -100 OFFCURVE",
"744 -86 CURVE"
);
}
);
width = 742;
}
);
leftKerningGroup = f;
leftMetricsKey = f;
rightKerningGroup = l;
rightMetricsKey = l.ss01;
},
{
glyphname = ordfeminine;
layers = (
{
layerId = "E8BF2718-0C92-4E31-9FCE-6752C723AF07";
paths = (
{
closed = 1;
nodes = (
"155 787 OFFCURVE",
"97 774 OFFCURVE",
"42 754 CURVE",
"70 674 LINE",
"109 689 OFFCURVE",
"148 698 OFFCURVE",
"176 698 CURVE",
"217 698 OFFCURVE",
"238 682 OFFCURVE",
"238 654 CURVE",
"238 458 LINE",
"357 458 LINE",
"357 668 LINE",
"358 744 OFFCURVE",
"301 787 OFFCURVE",
"205 787 CURVE"
);
},
{
closed = 1;
nodes = (
"249 651 LINE",
"152 651 LINE",
"67 650 OFFCURVE",
"20 616 OFFCURVE",
"20 554 CURVE",
"20 493 OFFCURVE",
"63 453 OFFCURVE",
"134 453 CURVE",
"194 453 OFFCURVE",
"235 480 OFFCURVE",
"253 526 CURVE",
"237 562 LINE",
"223 539 OFFCURVE",
"201 529 OFFCURVE",
"175 529 CURVE",
"149 529 OFFCURVE",
"135 542 OFFCURVE",
"135 563 CURVE",
"135 584 OFFCURVE",
"150 595 OFFCURVE",
"177 595 CURVE",
"249 595 LINE"
);
}
);
width = 394;
}
);
leftKerningGroup = asterisk;
rightKerningGroup = asterisk;
unicode = 00AA;
},
{
glyphname = ordmasculine;
layers = (
{
layerId = "E8BF2718-0C92-4E31-9FCE-6752C723AF07";
paths = (
{
closed = 1;
nodes = (
"94 786 OFFCURVE",
"20 721 OFFCURVE",
"20 620 CURVE SMOOTH",
"20 520 OFFCURVE",
"94 454 OFFCURVE",
"207 454 CURVE SMOOTH",
"320 454 OFFCURVE",
"394 520 OFFCURVE",
"394 620 CURVE SMOOTH",
"394 721 OFFCURVE",
"320 786 OFFCURVE",
"207 786 CURVE SMOOTH"
);
},
{
closed = 1;
nodes = (
"245 692 OFFCURVE",
"271 663 OFFCURVE",
"271 618 CURVE SMOOTH",
"271 575 OFFCURVE",
"245 546 OFFCURVE",
"207 546 CURVE SMOOTH",
"168 546 OFFCURVE",
"142 575 OFFCURVE",
"142 618 CURVE SMOOTH",
"142 663 OFFCURVE",
"168 692 OFFCURVE",
"207 692 CURVE SMOOTH"
);
}
);
width = 414;
}
);
leftKerningGroup = asterisk;
rightKerningGroup = asterisk;
unicode = 00BA;
},
{
glyphname = Delta;
layers = (
{
layerId = "E8BF2718-0C92-4E31-9FCE-6752C723AF07";
paths = (
{
closed = 1;
nodes = (
"296 701 LINE",
"-6 0 LINE",
"183 0 LINE",
"384 514 LINE",
"583 0 LINE",
"778 0 LINE",
"484 701 LINE"
);
},
{
closed = 1;
nodes = (
"152 135 LINE",
"152 0 LINE SMOOTH",
"608 0 LINE",
"608 135 LINE"
);
}
);
width = 773;
}
);
leftKerningGroup = A;
rightKerningGroup = A;
unicode = 0394;
},
{
glyphname = Omega;
layers = (
{
anchors = (
{
name = topleft;
position = "{20, 701}";
}
);
layerId = "E8BF2718-0C92-4E31-9FCE-6752C723AF07";
paths = (
{
closed = 1;
nodes = (
"219 710 OFFCURVE",
"67 571 OFFCURVE",
"67 383 CURVE SMOOTH",
"67 299 OFFCURVE",
"115 201 OFFCURVE",
"180 146 CURVE",
"7 146 LINE",
"7 0 LINE",
"358 0 LINE",
"358 134 LINE",
"284 185 OFFCURVE",
"230 283 OFFCURVE",
"230 367 CURVE SMOOTH",
"230 478 OFFCURVE",
"313 557 OFFCURVE",
"427 557 CURVE SMOOTH",
"541 557 OFFCURVE",
"625 478 OFFCURVE",
"625 367 CURVE SMOOTH",
"625 283 OFFCURVE",
"571 185 OFFCURVE",
"497 135 CURVE",
"497 0 LINE",
"848 0 LINE",
"848 146 LINE",
"676 146 LINE",
"741 201 OFFCURVE",
"788 300 OFFCURVE",
"788 383 CURVE SMOOTH",
"788 571 OFFCURVE",
"635 710 OFFCURVE",
"427 710 CURVE SMOOTH"
);
}
);
width = 854;
}
);
leftMetricsKey = T;
rightMetricsKey = T;
unicode = 03A9;
},
{
glyphname = pi;
layers = (
{
layerId = "E8BF2718-0C92-4E31-9FCE-6752C723AF07";
paths = (
{
closed = 1;
nodes = (
"164 541 LINE",
"59 541 OFFCURVE",
"-18 474 OFFCURVE",
"-17 384 CURVE",
"-16 340 OFFCURVE",
"-1 285 OFFCURVE",
"21 243 CURVE",
"143 286 LINE",
"131 309 OFFCURVE",
"122 336 OFFCURVE",
"122 354 CURVE",
"121 389 OFFCURVE",
"149 414 OFFCURVE",
"187 414 CURVE",
"718 414 LINE",
"717 541 LINE"
);
},
{
closed = 1;
nodes = (
"447 431 LINE",
"447 0 LINE",
"594 0 LINE",
"594 431 LINE"
);
},
{
closed = 1;
nodes = (
"218 431 LINE",
"172 0 LINE",
"319 0 LINE",
"365 431 LINE"
);
}
);
width = 730;
}
);
unicode = 03C0;
},
{
glyphname = "aaMatra-gurmukhi";
layers = (
{
anchors = (
{
name = bindu;
position = "{156, 680}";
},
{
name = candra;
position = "{156, 690}";
},
{
name = top;
position = "{156, 670}";
}
);
layerId = "E8BF2718-0C92-4E31-9FCE-6752C723AF07";
paths = (
{
closed = 1;
nodes = (
"244 258 LINE",
"244 552 LINE",
"313 552 LINE",
"313 692 LINE",
"0 692 LINE",
"0 552 LINE",
"69 552 LINE",
"69 258 LINE"
);
}
);
width = 313;
}
);
unicode = 0A3E;
},
{
glyphname = "iMatra-gurmukhi";
layers = (
{
anchors = (
{
name = bindu;
position = "{637, 670}";
},
{
name = candra;
position = "{736, 690}";
}
);
layerId = "E8BF2718-0C92-4E31-9FCE-6752C723AF07";
paths = (
{
closed = 1;
nodes = (
"254 552 LINE",
"254 734 LINE SMOOTH",
"254 787 OFFCURVE",
"286 812 OFFCURVE",
"322 812 CURVE SMOOTH",
"355 812 OFFCURVE",
"380 801 OFFCURVE",
"411 751 CURVE",
"524 813 LINE",
"474 915 OFFCURVE",
"385 949 OFFCURVE",
"298 949 CURVE SMOOTH",
"189 949 OFFCURVE",
"86 879 OFFCURVE",
"86 749 CURVE SMOOTH",
"86 692 LINE",
"0 692 LINE",
"0 552 LINE"
);
},
{
closed = 1;
nodes = (
"254 0 LINE",
"254 621 LINE",
"210 552 LINE",
"322 552 LINE",
"322 692 LINE",
"79 692 LINE",
"79 0 LINE"
);
}
);
width = 322;
}
);
unicode = 0A3F;
},
{
glyphname = "iiMatra-gurmukhi";
layers = (
{
anchors = (
{
name = bindu;
position = "{326, 670}";
},
{
name = candra;
position = "{440, 690}";
}
);
layerId = "E8BF2718-0C92-4E31-9FCE-6752C723AF07";
paths = (
{
closed = 1;
nodes = (
"229 552 LINE",
"229 708 LINE SMOOTH",
"229 842 OFFCURVE",
"122 949 OFFCURVE",
"-24 949 CURVE SMOOTH",
"-141 949 OFFCURVE",
"-208 896 OFFCURVE",
"-230 817 CURVE",
"-85 754 LINE",
"-70 783 OFFCURVE",
"-51 812 OFFCURVE",
"-9 812 CURVE SMOOTH",
"45 812 OFFCURVE",
"61 771 OFFCURVE",
"61 721 CURVE SMOOTH",
"61 616 LINE",
"136 692 LINE",
"-62 692 LINE",
"-62 552 LINE"
);
},
{
closed = 1;
nodes = (
"229 0 LINE",
"229 621 LINE",
"185 552 LINE",
"297 552 LINE",
"297 692 LINE",
"54 692 LINE",
"54 0 LINE"
);
}
);
width = 297;
}
);
rightMetricsKey = "STEM-GURM";
unicode = 0A40;
},
{
glyphname = "a-gurmukhi";
layers = (
{
anchors = (
{
name = bindu;
position = "{712, 692}";
},
{
name = candra;
position = "{712, 702}";
},
{
name = top;
position = "{712, 682}";
}
);
layerId = "E8BF2718-0C92-4E31-9FCE-6752C723AF07";
paths = (
{
closed = 1;
nodes = (
"542 178 OFFCURVE",
"574 267 OFFCURVE",
"574 363 CURVE SMOOTH",
"574 539 OFFCURVE",
"466 631 OFFCURVE",
"342 631 CURVE SMOOTH",
"287 631 OFFCURVE",
"235 613 OFFCURVE",
"194 576 CURVE",
"237 568 LINE",
"189 651 OFFCURVE",
"97 692 OFFCURVE",
"0 692 CURVE SMOOTH",
"-20 692 LINE",
"-20 552 LINE",
"12 552 LINE SMOOTH",
"75 552 OFFCURVE",
"135 520 OFFCURVE",
"128 453 CURVE",
"139 505 LINE",
"91 432 OFFCURVE",
"51 339 OFFCURVE",
"53 193 CURVE",
"195 158 LINE",
"252 262 OFFCURVE",
"279 335 OFFCURVE",
"276 422 CURVE",
"274 379 LINE",
"279 450 OFFCURVE",
"319 480 OFFCURVE",
"360 480 CURVE SMOOTH",
"407 480 OFFCURVE",
"438 442 OFFCURVE",
"433 362 CURVE",
"453 428 LINE",
"368 345 OFFCURVE",
"334 225 OFFCURVE",
"334 129 CURVE SMOOTH",
"334 112 OFFCURVE",
"335 95 OFFCURVE",
"337 79 CURVE",
"479 61 LINE"
);
},
{
closed = 1;
nodes = (
"728 296 LINE",
"728 436 LINE",
"478 436 LINE",
"475 296 LINE"
);
},
{
closed = 1;
nodes = (
"824 0 LINE",
"824 621 LINE",
"780 552 LINE",
"892 552 LINE",
"892 692 LINE",
"649 692 LINE",
"649 0 LINE"
);
}
);
width = 892;
}
);
rightMetricsKey = "STEM-GURM";
unicode = 0A05;
},
{
glyphname = "ee-gurmukhi";
layers = (
{
anchors = (
{
name = _top;
position = "{461, 670}";
},
{
name = bindu;
position = "{641, 680}";
},
{
name = bottom;
position = "{397, 2}";
},
{
name = candra;
position = "{746, 690}";
},
{
name = caret_1;
position = "{397, 30}";
},
{
name = nukta;
position = "{108, -54}";
},
{
name = top;
position = "{461, 670}";
}
);
components = (
{
name = "iri-gurmukhi";
}
);
layerId = "E8BF2718-0C92-4E31-9FCE-6752C723AF07";
paths = (
{
closed = 1;
nodes = (
"528 634 LINE",
"528 833 OFFCURVE",
"414 955 OFFCURVE",
"214 955 CURVE SMOOTH",
"168 955 OFFCURVE",
"122 948 OFFCURVE",
"81 933 CURVE",
"115 803 LINE",
"156 812 OFFCURVE",
"196 817 OFFCURVE",
"232 817 CURVE SMOOTH",
"352 817 OFFCURVE",
"390 756 OFFCURVE",
"398 634 CURVE"
);
}
);
width = 643;
}
);
unicode = 0A0F;
},
{
glyphname = "ai-gurmukhi";
layers = (
{
anchors = (
{
name = _top;
position = "{712, 682}";
},
{
name = bindu;
position = "{904, 680}";
},
{
name = candra;
position = "{1009, 690}";
},
{
name = top;
position = "{712, 682}";
}
);
components = (
{
name = "a-gurmukhi";
}
);
layerId = "E8BF2718-0C92-4E31-9FCE-6752C723AF07";
paths = (
{
closed = 1;
nodes = (
"779 662 LINE",
"776 944 OFFCURVE",
"650 1096 OFFCURVE",
"437 1096 CURVE",
"443 978 LINE",
"584 978 OFFCURVE",
"672 905 OFFCURVE",
"690 732 CURVE",
"705 759 LINE",
"654 868 OFFCURVE",
"531 929 OFFCURVE",
"389 929 CURVE SMOOTH",
"333 929 OFFCURVE",
"278 919 OFFCURVE",
"231 898 CURVE",
"265 778 LINE",
"303 791 OFFCURVE",
"357 799 OFFCURVE",
"412 799 CURVE SMOOTH",
"538 799 OFFCURVE",
"649 771 OFFCURVE",
"649 662 CURVE"
);
}
);
width = 892;
}
);
unicode = 0A10;
},
{
glyphname = "oo-gurmukhi";
layers = (
{
anchors = (
{
name = bindu;
position = "{660, 680}";
},
{
name = bottom;
position = "{405, 2}";
},
{
name = candra;
position = "{774, 650}";
},
{
name = caret_1;
position = "{405, 30}";
},
{
name = nukta;
position = "{92, -20}";
},
{
name = top;
position = "{531, 670}";
}
);
layerId = "E8BF2718-0C92-4E31-9FCE-6752C723AF07";
paths = (
{
closed = 1;
nodes = (
"551 -15 OFFCURVE",
"635 69 OFFCURVE",
"635 161 CURVE SMOOTH",
"635 243 OFFCURVE",
"568 331 OFFCURVE",
"429 365 CURVE",
"436 297 LINE",
"594 359 OFFCURVE",
"642 458 OFFCURVE",
"642 589 CURVE",
"473 615 LINE",
"473 498 OFFCURVE",
"435 419 OFFCURVE",
"270 419 CURVE SMOOTH",
"141 419 LINE",
"141 296 LINE",
"324 296 LINE SMOOTH",
"415 296 OFFCURVE",
"463 240 OFFCURVE",
"463 192 CURVE SMOOTH",
"463 157 OFFCURVE",
"437 127 OFFCURVE",
"384 127 CURVE SMOOTH",
"236 127 OFFCURVE",
"207 366 OFFCURVE",
"207 532 CURVE SMOOTH",
"207 673 OFFCURVE",
"228 816 OFFCURVE",
"383 816 CURVE SMOOTH",
"409 816 OFFCURVE",
"455 812 OFFCURVE",
"498 802 CURVE",
"532 932 LINE",
"480 947 OFFCURVE",
"421 954 OFFCURVE",
"370 954 CURVE SMOOTH",
"108 954 OFFCURVE",
"41 766 OFFCURVE",
"41 543 CURVE SMOOTH",
"41 271 OFFCURVE",
"141 -15 OFFCURVE",
"407 -15 CURVE SMOOTH"
);
},
{
closed = 1;
nodes = (
"697 552 LINE",
"697 692 LINE",
"-20 692 LINE",
"-20 552 LINE"
);
}
);
width = 677;
}
);
leftMetricsKey = "ura-gurmukhi";
rightMetricsKey = "ura-gurmukhi";
unicode = 0A13;
},
{
glyphname = "ka-gurmukhi";
layers = (
{
anchors = (
{
name = bindu;
position = "{565, 682}";
},
{
name = bottom;
position = "{590, 0}";
},
{
name = candra;
position = "{565, 692}";
},
{
name = caret_1;
position = "{356, 0}";
},
{
name = nukta;
position = "{116, -40}";
},
{
name = top;
position = "{568, 672}";
}
);
layerId = "E8BF2718-0C92-4E31-9FCE-6752C723AF07";
paths = (
{
closed = 1;
nodes = (
"676 0 LINE",
"676 10 LINE SMOOTH",
"676 96 OFFCURVE",
"641 208 OFFCURVE",
"575 305 CURVE",
"579 248 LINE",
"631 346 OFFCURVE",
"654 460 OFFCURVE",
"654 546 CURVE SMOOTH",
"654 578 LINE",
"489 578 LINE",
"489 552 LINE SMOOTH",
"489 508 OFFCURVE",
"483 462 OFFCURVE",
"469 418 CURVE",
"414 466 OFFCURVE",
"339 495 OFFCURVE",
"257 495 CURVE SMOOTH",
"96 495 OFFCURVE",
"24 383 OFFCURVE",
"24 285 CURVE SMOOTH",
"24 168 OFFCURVE",
"128 51 OFFCURVE",
"294 51 CURVE SMOOTH",
"392 51 OFFCURVE",
"456 91 OFFCURVE",
"506 148 CURVE",
"478 159 LINE",
"495 109 OFFCURVE",
"501 57 OFFCURVE",
"501 14 CURVE SMOOTH",
"501 0 LINE"
);
},
{
closed = 1;
nodes = (
"230 193 OFFCURVE",
"201 233 OFFCURVE",
"201 273 CURVE SMOOTH",
"201 313 OFFCURVE",
"230 353 OFFCURVE",
"293 353 CURVE SMOOTH",
"356 353 OFFCURVE",
"409 315 OFFCURVE",
"446 252 CURVE",
"443 312 LINE",
"411 237 OFFCURVE",
"360 193 OFFCURVE",
"293 193 CURVE SMOOTH"
);
},
{
closed = 1;
nodes = (
"722 552 LINE",
"722 692 LINE",
"0 692 LINE",
"0 552 LINE"
);
}
);
width = 722;
}
);
leftMetricsKey = "ra-gurmukhi";
rightMetricsKey = "STEM-GURM";
unicode = 0A15;
},
{
glyphname = "kha-gurmukhi";
layers = (
{
anchors = (
{
name = bindu;
position = "{527, 680}";
},
{
name = bottom;
position = "{553, 0}";
},
{
name = candra;
position = "{527, 690}";
},
{
name = caret_1;
position = "{336, 30}";
},
{
name = nukta;
position = "{94, 0}";
},
{
name = top;
position = "{527, 670}";
}
);
components = (
{
name = "pa-gurmukhi";
}
);
layerId = "E8BF2718-0C92-4E31-9FCE-6752C723AF07";
paths = (
{
closed = 1;
nodes = (
"541 354 LINE",
"541 494 LINE",
"193 494 LINE",
"195 354 LINE"
);
}
);
width = 707;
}
);
leftMetricsKey = "pa-gurmukhi";
rightMetricsKey = "pa-gurmukhi";
unicode = 0A16;
},
{
glyphname = "ga-gurmukhi";
layers = (
{
anchors = (
{
name = bindu;
position = "{700, 682}";
},
{
name = bottom;
position = "{726, 0}";
},
{
name = candra;
position = "{700, 690}";
},
{
name = caret_1;
position = "{461, 30}";
},
{
name = nukta;
position = "{58, -30}";
},
{
name = top;
position = "{720, 672}";
}
);
layerId = "E8BF2718-0C92-4E31-9FCE-6752C723AF07";
paths = (
{
closed = 1;
nodes = (
"452 -15 OFFCURVE",
"544 42 OFFCURVE",
"544 166 CURVE",
"544 624 LINE",
"369 624 LINE",
"369 401 LINE",
"414 450 LINE",
"229 450 LINE SMOOTH",
"103 450 OFFCURVE",
"24 381 OFFCURVE",
"24 266 CURVE SMOOTH",
"24 109 OFFCURVE",
"200 -15 OFFCURVE",
"343 -15 CURVE SMOOTH"
);
},
{
closed = 1;
nodes = (
"255 126 OFFCURVE",
"201 184 OFFCURVE",
"201 245 CURVE SMOOTH",
"201 283 OFFCURVE",
"222 310 OFFCURVE",
"266 310 CURVE SMOOTH",
"415 310 LINE",
"370 335 LINE",
"370 186 LINE",
"370 153 OFFCURVE",
"364 126 OFFCURVE",
"320 126 CURVE SMOOTH"
);
},
{
closed = 1;
nodes = (
"671 552 LINE",
"671 692 LINE",
"0 692 LINE",
"0 552 LINE"
);
},
{
closed = 1;
nodes = (
"812 0 LINE",
"812 621 LINE",
"768 552 LINE",
"880 552 LINE",
"880 692 LINE",
"637 692 LINE",
"637 0 LINE"
);
}
);
width = 880;
}
);
leftMetricsKey = "ra-gurmukhi";
rightMetricsKey = "STEM-GURM";
unicode = 0A17;
},
{
glyphname = "gha-gurmukhi";
layers = (
{
anchors = (
{
name = bindu;
position = "{723, 680}";
},
{
name = bottom;
position = "{749, 0}";
},
{
name = candra;
position = "{723, 690}";
},
{
name = caret_1;
position = "{464, 30}";
},
{
name = nukta;
position = "{94, 0}";
},
{
name = top;
position = "{723, 670}";
}
);
layerId = "E8BF2718-0C92-4E31-9FCE-6752C723AF07";
paths = (
{
closed = 1;
nodes = (
"373 83 OFFCURVE",
"422 107 OFFCURVE",
"463 145 CURVE",
"418 148 LINE",
"465 105 OFFCURVE",
"525 83 OFFCURVE",
"580 83 CURVE SMOOTH",
"651 83 OFFCURVE",
"697 101 OFFCURVE",
"734 130 CURVE",
"699 324 LINE",
"670 246 OFFCURVE",
"615 224 OFFCURVE",
"578 224 CURVE SMOOTH",
"535 224 OFFCURVE",
"512 243 OFFCURVE",
"499 262 CURVE",
"499 216 LINE",
"545 298 OFFCURVE",
"563 378 OFFCURVE",
"563 459 CURVE SMOOTH",
"563 516 OFFCURVE",
"554 572 OFFCURVE",
"540 628 CURVE",
"383 628 LINE",
"383 274 LINE",
"354 236 OFFCURVE",
"316 224 OFFCURVE",
"289 224 CURVE SMOOTH",
"230 224 OFFCURVE",
"209 257 OFFCURVE",
"201 286 CURVE",
"188 252 LINE",
"244 283 OFFCURVE",
"304 340 OFFCURVE",
"304 440 CURVE SMOOTH",
"304 554 OFFCURVE",
"207 692 OFFCURVE",
"29 692 CURVE SMOOTH",
"0 692 LINE",
"0 552 LINE",
"36 552 LINE SMOOTH",
"104 552 OFFCURVE",
"132 508 OFFCURVE",
"132 455 CURVE SMOOTH",
"132 396 OFFCURVE",
"98 361 OFFCURVE",
"39 323 CURVE",
"62 165 OFFCURVE",
"184 83 OFFCURVE",
"291 83 CURVE SMOOTH"
);
},
{
closed = 1;
nodes = (
"835 0 LINE",
"835 621 LINE",
"791 552 LINE",
"903 552 LINE",
"903 692 LINE",
"660 692 LINE",
"660 0 LINE"
);
}
);
width = 903;
}
);
leftMetricsKey = "pa-gurmukhi";
rightMetricsKey = "STEM-GURM";
unicode = 0A18;
},
{
glyphname = "nga-gurmukhi";
layers = (
{
anchors = (
{
name = bindu;
position = "{512, 680}";
},
{
name = bottom;
position = "{316, 0}";
},
{
name = candra;
position = "{512, 690}";
},
{
name = caret_1;
position = "{313, 30}";
},
{
name = nukta;
position = "{88, -92}";
},
{
name = top;
position = "{512, 670}";
}
);
layerId = "E8BF2718-0C92-4E31-9FCE-6752C723AF07";
paths = (
{
closed = 1;
nodes = (
"450 161 LINE",
"400 241 OFFCURVE",
"301 294 OFFCURVE",
"190 294 CURVE SMOOTH",
"91 294 OFFCURVE",
"24 252 OFFCURVE",
"24 171 CURVE SMOOTH",
"24 64 OFFCURVE",
"141 -15 OFFCURVE",
"305 -15 CURVE SMOOTH",
"516 -15 OFFCURVE",
"625 116 OFFCURVE",
"625 240 CURVE SMOOTH",
"625 364 OFFCURVE",
"517 480 OFFCURVE",
"324 480 CURVE SMOOTH",
"268 480 LINE",
"268 624 LINE",
"93 624 LINE",
"93 340 LINE",
"340 340 LINE SMOOTH",
"419 340 OFFCURVE",
"456 296 OFFCURVE",
"456 246 CURVE SMOOTH",
"456 181 OFFCURVE",
"394 106 OFFCURVE",
"286 106 CURVE SMOOTH",
"224 106 OFFCURVE",
"180 131 OFFCURVE",
"180 160 CURVE SMOOTH",
"180 177 OFFCURVE",
"195 186 OFFCURVE",
"223 186 CURVE SMOOTH",
"275 186 OFFCURVE",
"337 156 OFFCURVE",
"371 107 CURVE"
);
},
{
closed = 1;
nodes = (
"649 552 LINE",
"649 692 LINE",
"0 692 LINE",
"0 552 LINE"
);
}
);
width = 649;
}
);
rightMetricsKey = "ttha-gurmukhi";
unicode = 0A19;
},
{
glyphname = "ca-gurmukhi";
layers = (
{
anchors = (
{
name = bindu;
position = "{551, 680}";
},
{
name = bottom;
position = "{457, 0}";
},
{
name = candra;
position = "{551, 690}";
},
{
name = caret_1;
position = "{457, 30}";
},
{
name = nukta;
position = "{94, 0}";
},
{
name = top;
position = "{571, 670}";
}
);
layerId = "E8BF2718-0C92-4E31-9FCE-6752C723AF07";
paths = (
{
closed = 1;
nodes = (
"564 -15 OFFCURVE",
"665 44 OFFCURVE",
"665 174 CURVE",
"665 623 LINE",
"491 623 LINE",
"491 197 LINE",
"491 157 OFFCURVE",
"485 127 OFFCURVE",
"435 127 CURVE SMOOTH",
"355 127 OFFCURVE",
"298 202 OFFCURVE",
"298 281 CURVE",
"120 303 LINE",
"120 123 OFFCURVE",
"307 -15 OFFCURVE",
"457 -15 CURVE SMOOTH"
);
},
{
closed = 1;
nodes = (
"292 385 LINE",
"268 457 OFFCURVE",
"137 461 OFFCURVE",
"42 449 CURVE",
"16 316 LINE",
"79 274 OFFCURVE",
"165 270 OFFCURVE",
"228 283 CURVE"
);
},
{
closed = 1;
nodes = (
"516 278 LINE",
"516 418 LINE",
"156 418 LINE",
"156 278 LINE"
);
},
{
closed = 1;
nodes = (
"734 552 LINE",
"734 692 LINE",
"0 692 LINE",
"0 552 LINE"
);
}
);
width = 734;
}
);
leftMetricsKey = "da-gurmukhi";
rightMetricsKey = "STEM-GURM";
unicode = 0A1A;
},
{
glyphname = "cha-gurmukhi";
layers = (
{
anchors = (
{
name = bindu;
position = "{485, 680}";
},
{
name = bottom;
position = "{348, 2}";
},
{
name = candra;
position = "{485, 690}";
},
{
name = caret_1;
position = "{348, 30}";
},
{
name = nukta;
position = "{88, -92}";
},
{
name = top;
position = "{505, 670}";
}
);
layerId = "E8BF2718-0C92-4E31-9FCE-6752C723AF07";
paths = (
{
closed = 1;
nodes = (
"523 -15 OFFCURVE",
"666 36 OFFCURVE",
"666 157 CURVE SMOOTH",
"666 277 OFFCURVE",
"503 322 OFFCURVE",
"348 322 CURVE SMOOTH",
"324 322 OFFCURVE",
"299 322 OFFCURVE",
"275 322 CURVE SMOOTH",
"249 322 OFFCURVE",
"236 333 OFFCURVE",
"236 348 CURVE SMOOTH",
"236 358 OFFCURVE",
"241 373 OFFCURVE",
"262 373 CURVE SMOOTH",
"598 373 LINE",
"598 620 LINE",
"423 620 LINE",
"423 505 LINE",
"224 505 LINE SMOOTH",
"122 505 OFFCURVE",
"59 460 OFFCURVE",
"59 397 CURVE SMOOTH",
"59 346 OFFCURVE",
"91 312 OFFCURVE",
"133 290 CURVE",
"66 264 OFFCURVE",
"24 220 OFFCURVE",
"24 157 CURVE SMOOTH",
"24 39 OFFCURVE",
"177 -15 OFFCURVE",
"348 -15 CURVE SMOOTH"
);
},
{
closed = 1;
nodes = (
"260 112 OFFCURVE",
"192 113 OFFCURVE",
"192 155 CURVE SMOOTH",
"192 194 OFFCURVE",
"249 196 OFFCURVE",
"324 196 CURVE SMOOTH",
"424 196 OFFCURVE",
"498 199 OFFCURVE",
"498 155 CURVE SMOOTH",
"498 113 OFFCURVE",
"430 112 OFFCURVE",
"345 112 CURVE SMOOTH"
);
},
{
closed = 1;
nodes = (
"388 94 LINE",
"388 208 LINE",
"302 208 LINE",
"302 94 LINE"
);
},
{
closed = 1;
nodes = (
"690 552 LINE",
"690 692 LINE",
"0 692 LINE",
"0 552 LINE"
);
}
);
width = 690;
}
);
leftMetricsKey = "ttha-gurmukhi";
rightMetricsKey = "ttha-gurmukhi";
unicode = 0A1B;
},
{
glyphname = "ja-gurmukhi";
layers = (
{
anchors = (
{
name = bindu;
position = "{569, 680}";
},
{
name = bottom;
position = "{595, 0}";
},
{
name = candra;
position = "{569, 690}";
},
{
name = caret_1;
position = "{410, 30}";
},
{
name = nukta;
position = "{410, -121}";
},
{
name = top;
position = "{589, 670}";
}
);
layerId = "E8BF2718-0C92-4E31-9FCE-6752C723AF07";
paths = (
{
closed = 1;
nodes = (
"307 49 OFFCURVE",
"310 98 OFFCURVE",
"314 147 CURVE SMOOTH",
"316 180 OFFCURVE",
"319 212 OFFCURVE",
"321 245 CURVE",
"551 245 LINE",
"551 385 LINE",
"270 385 LINE",
"222 422 OFFCURVE",
"147 438 OFFCURVE",
"72 448 CURVE",
"18 322 LINE",
"50 293 OFFCURVE",
"101 268 OFFCURVE",
"155 255 CURVE",
"152 226 OFFCURVE",
"148 197 OFFCURVE",
"145 168 CURVE SMOOTH",
"139 118 OFFCURVE",
"134 67 OFFCURVE",
"128 17 CURVE",
"128 1 LINE",
"303 0 LINE"
);
},
{
closed = 1;
nodes = (
"641 552 LINE",
"641 692 LINE",
"0 692 LINE",
"0 552 LINE"
);
},
{
closed = 1;
nodes = (
"681 0 LINE",
"681 621 LINE",
"637 552 LINE",
"749 552 LINE",
"749 692 LINE",
"506 692 LINE",
"506 0 LINE"
);
}
);
width = 749;
}
);
leftMetricsKey = "da-gurmukhi";
rightMetricsKey = "STEM-GURM";
unicode = 0A1C;
},
{
glyphname = "jha-gurmukhi";
layers = (
{
anchors = (
{
name = bindu;
position = "{515, 680}";
},
{
name = bottom;
position = "{249, -79}";
},
{
name = candra;
position = "{515, 690}";
},
{
name = caret_1;
position = "{337, -20}";
},
{
name = nukta;
position = "{49, -36}";
},
{
name = top;
position = "{535, 670}";
}
);
layerId = "E8BF2718-0C92-4E31-9FCE-6752C723AF07";
paths = (
{
closed = 1;
nodes = (
"337 -79 LINE",
"356 60 LINE",
"313 15 LINE",
"321 15 OFFCURVE",
"329 15 OFFCURVE",
"337 15 CURVE SMOOTH",
"524 15 OFFCURVE",
"625 107 OFFCURVE",
"625 213 CURVE SMOOTH",
"625 289 OFFCURVE",
"573 347 OFFCURVE",
"462 393 CURVE",
"465 356 LINE",
"579 388 OFFCURVE",
"625 480 OFFCURVE",
"629 568 CURVE",
"458 573 LINE",
"443 485 OFFCURVE",
"383 439 OFFCURVE",
"329 439 CURVE SMOOTH",
"277 439 OFFCURVE",
"230 482 OFFCURVE",
"231 575 CURVE",
"55 566 LINE",
"59 521 OFFCURVE",
"86 478 OFFCURVE",
"126 440 CURVE",
"72 440 LINE",
"76 325 LINE",
"325 325 LINE SMOOTH",
"411 325 OFFCURVE",
"455 288 OFFCURVE",
"455 242 CURVE SMOOTH",
"455 199 OFFCURVE",
"417 146 OFFCURVE",
"311 146 CURVE SMOOTH",
"298 146 OFFCURVE",
"284 146 OFFCURVE",
"269 148 CURVE",
"328 137 LINE",
"300 175 OFFCURVE",
"250 195 OFFCURVE",
"210 207 CURVE SMOOTH",
"173 218 OFFCURVE",
"134 225 OFFCURVE",
"101 228 CURVE",
"47 112 LINE",
"77 77 OFFCURVE",
"126 48 OFFCURVE",
"176 33 CURVE",
"162 -63 LINE",
"162 -79 LINE"
);
},
{
closed = 1;
nodes = (
"675 552 LINE",
"675 692 LINE",
"0 692 LINE",
"0 552 LINE"
);
}
);
width = 675;
}
);
leftMetricsKey = "ta-gurmukhi";
rightMetricsKey = "ta-gurmukhi";
unicode = 0A1D;
},
{
glyphname = "nya-gurmukhi";
layers = (
{
anchors = (
{
name = bindu;
position = "{471, 680}";
},
{
name = bottom;
position = "{411, 0}";
},
{
name = candra;
position = "{471, 690}";
},
{
name = caret_1;
position = "{401, 30}";
},
{
name = nukta;
position = "{102, -44}";
},
{
name = top;
position = "{491, 670}";
}
);
components = (
{
name = "va-gurmukhi";
}
);
layerId = "E8BF2718-0C92-4E31-9FCE-6752C723AF07";
paths = (
{
closed = 1;
nodes = (
"361 493 LINE",
"268 493 OFFCURVE",
"216 530 OFFCURVE",
"214 577 CURVE",
"38 584 LINE",
"38 509 OFFCURVE",
"167 439 OFFCURVE",
"352 439 CURVE"
);
}
);
width = 651;
}
);
leftMetricsKey = "va-gurmukhi";
rightMetricsKey = "va-gurmukhi";
unicode = 0A1E;
},
{
glyphname = "tta-gurmukhi";
layers = (
{
anchors = (
{
name = bindu;
position = "{491, 680}";
},
{
name = bottom;
position = "{385, 0}";
},
{
name = candra;
position = "{491, 690}";
},
{
name = caret_1;
position = "{384, 30}";
},
{
name = nukta;
position = "{84, -40}";
},
{
name = top;
position = "{471, 670}";
}
);
layerId = "E8BF2718-0C92-4E31-9FCE-6752C723AF07";
paths = (
{
closed = 1;
nodes = (
"466 -15 OFFCURVE",
"537 0 OFFCURVE",
"596 28 CURVE",
"561 160 LINE",
"505 140 OFFCURVE",
"441 127 OFFCURVE",
"381 127 CURVE SMOOTH",
"287 127 OFFCURVE",
"204 159 OFFCURVE",
"175 250 CURVE",
"174 179 LINE",
"213 257 OFFCURVE",
"309 319 OFFCURVE",
"498 320 CURVE",
"557 320 LINE",
"557 623 LINE",
"382 623 LINE",
"382 382 LINE",
"444 461 LINE",
"231 457 OFFCURVE",
"86 361 OFFCURVE",
"24 253 CURVE",
"71 68 OFFCURVE",
"241 -15 OFFCURVE",
"399 -15 CURVE SMOOTH"
);
},
{
closed = 1;
nodes = (
"625 552 LINE",
"625 692 LINE",
"0 692 LINE",
"0 552 LINE"
);
}
);
width = 625;
}
);
leftMetricsKey = "ra-gurmukhi";
rightMetricsKey = "STEM-GURM";
unicode = 0A1F;
},
{
glyphname = "ttha-gurmukhi";
layers = (
{
anchors = (
{
name = bindu;
position = "{509, 680}";
},
{
name = bottom;
position = "{335, 2}";
},
{
name = candra;
position = "{336, 690}";
},
{
name = caret_1;
position = "{335, 30}";
},
{
name = nukta;
position = "{38, -40}";
},
{
name = top;
position = "{509, 670}";
}
);
layerId = "E8BF2718-0C92-4E31-9FCE-6752C723AF07";
paths = (
{
closed = 1;
nodes = (
"499 -15 OFFCURVE",
"646 72 OFFCURVE",
"646 227 CURVE SMOOTH",
"646 381 OFFCURVE",
"489 463 OFFCURVE",
"336 463 CURVE SMOOTH",
"173 463 OFFCURVE",
"24 381 OFFCURVE",
"24 227 CURVE SMOOTH",
"24 72 OFFCURVE",
"183 -15 OFFCURVE",
"336 -15 CURVE SMOOTH"
);
},
{
closed = 1;
nodes = (
"261 127 OFFCURVE",
"201 165 OFFCURVE",
"201 225 CURVE SMOOTH",
"201 287 OFFCURVE",
"263 321 OFFCURVE",
"335 321 CURVE SMOOTH",
"407 321 OFFCURVE",
"469 287 OFFCURVE",
"469 225 CURVE SMOOTH",
"469 165 OFFCURVE",
"409 127 OFFCURVE",
"335 127 CURVE SMOOTH"
);
},
{
closed = 1;
nodes = (
"422 372 LINE",
"422 641 LINE",
"248 641 LINE",
"248 372 LINE"
);
},
{
closed = 1;
nodes = (
"670 552 LINE",
"670 692 LINE",
"0 692 LINE",
"0 552 LINE"
);
}
);
width = 670;
}
);
unicode = 0A20;
},
{
glyphname = "dda-gurmukhi";
layers = (
{
anchors = (
{
name = bindu;
position = "{494, 680}";
},
{
name = bottom;
position = "{313, 2}";
},
{
name = candra;
position = "{494, 690}";
},
{
name = caret_1;
position = "{296, 30}";
},
{
name = nukta;
position = "{73, -76}";
},
{
name = top;
position = "{474, 670}";
}
);
layerId = "E8BF2718-0C92-4E31-9FCE-6752C723AF07";
paths = (
{
closed = 1;
nodes = (
"487 -15 OFFCURVE",
"584 96 OFFCURVE",
"584 208 CURVE SMOOTH",
"584 284 OFFCURVE",
"539 360 OFFCURVE",
"442 403 CURVE",
"450 370 LINE",
"528 415 OFFCURVE",
"562 489 OFFCURVE",
"562 595 CURVE",
"387 596 LINE",
"387 528 OFFCURVE",
"372 486 OFFCURVE",
"304 474 CURVE",
"362 473 LINE",
"321 495 OFFCURVE",
"265 504 OFFCURVE",
"212 504 CURVE SMOOTH",
"166 504 OFFCURVE",
"121 497 OFFCURVE",
"88 486 CURVE",
"98 348 LINE",
"135 336 OFFCURVE",
"177 330 OFFCURVE",
"222 330 CURVE SMOOTH",
"274 330 OFFCURVE",
"330 338 OFFCURVE",
"380 351 CURVE",
"319 354 LINE",
"383 344 OFFCURVE",
"413 290 OFFCURVE",
"413 236 CURVE SMOOTH",
"413 172 OFFCURVE",
"371 106 OFFCURVE",
"284 106 CURVE SMOOTH",
"230 106 OFFCURVE",
"183 131 OFFCURVE",
"183 160 CURVE SMOOTH",
"183 177 OFFCURVE",
"199 186 OFFCURVE",
"223 186 CURVE SMOOTH",
"266 186 OFFCURVE",
"333 155 OFFCURVE",
"361 109 CURVE",
"422 174 LINE",
"382 243 OFFCURVE",
"283 294 OFFCURVE",
"185 294 CURVE SMOOTH",
"97 294 OFFCURVE",
"27 252 OFFCURVE",
"27 170 CURVE SMOOTH",
"27 65 OFFCURVE",
"145 -15 OFFCURVE",
"302 -15 CURVE SMOOTH"
);
},
{
closed = 1;
nodes = (
"616 552 LINE",
"616 692 LINE",
"0 692 LINE",
"0 552 LINE"
);
}
);
width = 616;
}
);
leftMetricsKey = "ta-gurmukhi";
rightMetricsKey = "ta-gurmukhi";
unicode = 0A21;
},
{
glyphname = "ddha-gurmukhi";
layers = (
{
anchors = (
{
name = bindu;
position = "{575, 680}";
},
{
name = bottom;
position = "{462, 0}";
},
{
name = candra;
position = "{575, 690}";
},
{
name = caret_1;
position = "{441, 30}";
},
{
name = nukta;
position = "{104, 0}";
},
{
name = top;
position = "{555, 670}";
}
);
layerId = "E8BF2718-0C92-4E31-9FCE-6752C723AF07";
paths = (
{
closed = 1;
nodes = (
"616 -14 OFFCURVE",
"711 67 OFFCURVE",
"711 159 CURVE SMOOTH",
"711 251 OFFCURVE",
"617 299 OFFCURVE",
"516 299 CURVE SMOOTH",
"420 299 OFFCURVE",
"312 256 OFFCURVE",
"275 172 CURVE",
"339 113 LINE",
"370 161 OFFCURVE",
"447 190 OFFCURVE",
"501 190 CURVE SMOOTH",
"532 190 OFFCURVE",
"555 180 OFFCURVE",
"555 159 CURVE SMOOTH",
"555 129 OFFCURVE",
"504 106 OFFCURVE",
"437 106 CURVE SMOOTH",
"336 106 OFFCURVE",
"275 158 OFFCURVE",
"275 258 CURVE SMOOTH",
"275 379 LINE",
"233 334 LINE",
"642 334 LINE",
"642 660 LINE",
"468 660 LINE",
"468 459 LINE",
"212 459 LINE",
"272 445 LINE",
"233 475 OFFCURVE",
"143 493 OFFCURVE",
"42 493 CURVE",
"16 358 LINE",
"48 340 OFFCURVE",
"85 331 OFFCURVE",
"123 327 CURVE",
"123 275 LINE SMOOTH",
"123 108 OFFCURVE",
"272 -14 OFFCURVE",
"462 -14 CURVE SMOOTH"
);
},
{
closed = 1;
nodes = (
"732 552 LINE",
"732 692 LINE",
"0 692 LINE",
"0 552 LINE"
);
}
);
width = 732;
}
);
leftMetricsKey = "da-gurmukhi";
rightMetricsKey = "ttha-gurmukhi";
unicode = 0A22;
},
{
glyphname = "nna-gurmukhi";
layers = (
{
anchors = (
{
name = bindu;
position = "{467, 680}";
},
{
name = bottom;
position = "{409, 0}";
},
{
name = candra;
position = "{467, 690}";
},
{
name = caret_1;
position = "{388, 30}";
},
{
name = nukta;
position = "{87, -46}";
},
{
name = top;
position = "{467, 670}";
}
);
layerId = "E8BF2718-0C92-4E31-9FCE-6752C723AF07";
paths = (
{
closed = 1;
nodes = (
"471 -15 OFFCURVE",
"545 1 OFFCURVE",
"604 30 CURVE",
"566 162 LINE",
"506 142 OFFCURVE",
"437 127 OFFCURVE",
"372 127 CURVE SMOOTH",
"280 127 OFFCURVE",
"198 157 OFFCURVE",
"169 243 CURVE",
"169 164 LINE",
"203 212 OFFCURVE",
"282 240 OFFCURVE",
"427 244 CURVE",
"427 446 LINE",
"252 448 LINE",
"252 277 LINE",
"321 374 LINE",
"183 372 OFFCURVE",
"68 308 OFFCURVE",
"24 238 CURVE",
"68 63 OFFCURVE",
"240 -15 OFFCURVE",
"399 -15 CURVE SMOOTH"
);
},
{
closed = 1;
nodes = (
"582 460 LINE",
"376 469 OFFCURVE",
"310 519 OFFCURVE",
"308 604 CURVE",
"142 622 LINE",
"144 452 OFFCURVE",
"359 324 OFFCURVE",
"575 320 CURVE"
);
},
{
closed = 1;
nodes = (
"649 552 LINE",
"649 692 LINE",
"0 692 LINE",
"0 552 LINE"
);
}
);
width = 649;
}
);
leftMetricsKey = "ra-gurmukhi";
unicode = 0A23;
},
{
glyphname = "ta-gurmukhi";
layers = (
{
anchors = (
{
name = bindu;
position = "{487, 680}";
},
{
name = bottom;
position = "{296, 0}";
},
{
name = candra;
position = "{487, 690}";
},
{
name = caret_1;
position = "{272, 30}";
},
{
name = nukta;
position = "{84, -102}";
},
{
name = top;
position = "{467, 670}";
}
);
layerId = "E8BF2718-0C92-4E31-9FCE-6752C723AF07";
paths = (
{
closed = 1;
nodes = (
"468 -15 OFFCURVE",
"571 90 OFFCURVE",
"571 190 CURVE SMOOTH",
"571 260 OFFCURVE",
"520 328 OFFCURVE",
"415 357 CURVE",
"427 331 LINE",
"505 364 OFFCURVE",
"553 442 OFFCURVE",
"553 545 CURVE SMOOTH",
"553 588 LINE",
"378 589 LINE",
"378 556 LINE SMOOTH",
"378 489 OFFCURVE",
"356 435 OFFCURVE",
"296 420 CURVE",
"344 426 LINE",
"320 434 OFFCURVE",
"277 439 OFFCURVE",
"227 439 CURVE SMOOTH",
"178 439 OFFCURVE",
"123 434 OFFCURVE",
"79 425 CURVE",
"89 287 LINE",
"126 276 OFFCURVE",
"168 271 OFFCURVE",
"212 271 CURVE SMOOTH",
"263 271 OFFCURVE",
"315 279 OFFCURVE",
"364 290 CURVE",
"291 289 LINE",
"362 289 OFFCURVE",
"395 255 OFFCURVE",
"395 217 CURVE SMOOTH",
"395 174 OFFCURVE",
"350 127 OFFCURVE",
"254 127 CURVE SMOOTH",
"198 127 OFFCURVE",
"119 143 OFFCURVE",
"62 164 CURVE",
"27 32 LINE",
"91 5 OFFCURVE",
"186 -15 OFFCURVE",
"272 -15 CURVE SMOOTH"
);
},
{
closed = 1;
nodes = (
"608 552 LINE",
"608 692 LINE",
"0 692 LINE",
"0 552 LINE"
);
}
);
width = 608;
}
);
unicode = 0A24;
},
{
glyphname = "tha-gurmukhi";
layers = (
{
anchors = (
{
name = bindu;
position = "{527, 680}";
},
{
name = bottom;
position = "{553, 0}";
},
{
name = candra;
position = "{527, 690}";
},
{
name = caret_1;
position = "{317, 30}";
},
{
name = nukta;
position = "{94, 0}";
},
{
name = top;
position = "{547, 670}";
}
);
components = (
{
name = "dha-gurmukhi";
}
);
layerId = "E8BF2718-0C92-4E31-9FCE-6752C723AF07";
paths = (
{
closed = 1;
nodes = (
"551 354 LINE",
"551 439 LINE",
"186 439 LINE",
"186 354 LINE"
);
}
);
width = 707;
}
);
leftMetricsKey = "pa-gurmukhi";
rightMetricsKey = "pa-gurmukhi";
unicode = 0A25;
},
{
glyphname = "da-gurmukhi";
layers = (
{
anchors = (
{
name = bindu;
position = "{565, 680}";
},
{
name = bottom;
position = "{461, 0}";
},
{
name = candra;
position = "{565, 690}";
},
{
name = caret_1;
position = "{465, 30}";
},
{
name = nukta;
position = "{114, 0}";
},
{
name = top;
position = "{545, 670}";
}
);
layerId = "E8BF2718-0C92-4E31-9FCE-6752C723AF07";
paths = (
{
closed = 1;
nodes = (
"542 -15 OFFCURVE",
"608 1 OFFCURVE",
"660 28 CURVE",
"625 160 LINE",
"572 142 OFFCURVE",
"515 127 OFFCURVE",
"458 127 CURVE SMOOTH",
"362 127 OFFCURVE",
"288 164 OFFCURVE",
"288 258 CURVE SMOOTH",
"288 344 LINE",
"243 299 LINE",
"632 299 LINE",
"632 624 LINE",
"457 624 LINE",
"457 439 LINE",
"221 439 LINE",
"284 423 LINE",
"238 457 OFFCURVE",
"163 477 OFFCURVE",
"44 477 CURVE",
"17 344 LINE",
"46 328 OFFCURVE",
"84 317 OFFCURVE",
"123 311 CURVE",
"123 275 LINE SMOOTH",
"123 104 OFFCURVE",
"289 -15 OFFCURVE",
"471 -15 CURVE SMOOTH"
);
},
{
closed = 1;
nodes = (
"700 552 LINE",
"700 692 LINE",
"0 692 LINE",
"0 552 LINE"
);
}
);
width = 700;
}
);
rightMetricsKey = "STEM-GURM";
unicode = 0A26;
},
{
glyphname = "dha-gurmukhi";
layers = (
{
anchors = (
{
name = bindu;
position = "{527, 680}";
},
{
name = bottom;
position = "{553, 0}";
},
{
name = candra;
position = "{527, 690}";
},
{
name = caret_1;
position = "{317, 30}";
},
{
name = nukta;
position = "{94, 0}";
},
{
name = top;
position = "{547, 670}";
}
);
components = (
{
name = "pa-gurmukhi";
}
);
layerId = "E8BF2718-0C92-4E31-9FCE-6752C723AF07";
paths = (
{
closed = 1;
nodes = (
"608 552 LINE",
"608 692 LINE",
"10 692 LINE",
"10 552 LINE"
);
}
);
width = 707;
}
);
leftMetricsKey = "pa-gurmukhi";
rightMetricsKey = "pa-gurmukhi";
unicode = 0A27;
},
{
glyphname = "na-gurmukhi";
layers = (
{
anchors = (
{
name = bindu;
position = "{509, 680}";
},
{
name = bottom;
position = "{418, 2}";
},
{
name = candra;
position = "{336, 690}";
},
{
name = caret_1;
position = "{335, 30}";
},
{
name = nukta;
position = "{38, -40}";
},
{
name = top;
position = "{509, 670}";
}
);
layerId = "E8BF2718-0C92-4E31-9FCE-6752C723AF07";
paths = (
{
closed = 1;
nodes = (
"294 131 LINE",
"240 142 OFFCURVE",
"201 176 OFFCURVE",
"201 225 CURVE SMOOTH",
"201 287 OFFCURVE",
"263 321 OFFCURVE",
"335 321 CURVE SMOOTH",
"407 321 OFFCURVE",
"469 287 OFFCURVE",
"469 225 CURVE SMOOTH",
"469 177 OFFCURVE",
"430 143 OFFCURVE",
"376 131 CURVE",
"392 -11 LINE",
"531 6 OFFCURVE",
"646 91 OFFCURVE",
"646 225 CURVE SMOOTH",
"646 381 OFFCURVE",
"492 463 OFFCURVE",
"334 463 CURVE SMOOTH",
"175 463 OFFCURVE",
"24 381 OFFCURVE",
"24 227 CURVE SMOOTH",
"24 91 OFFCURVE",
"143 11 OFFCURVE",
"278 -11 CURVE"
);
},
{
closed = 1;
nodes = (
"422 372 LINE",
"422 641 LINE",
"248 641 LINE",
"248 372 LINE"
);
},
{
closed = 1;
nodes = (
"670 552 LINE",
"670 692 LINE",
"0 692 LINE",
"0 552 LINE"
);
}
);
width = 670;
}
);
leftMetricsKey = "ttha-gurmukhi";
rightMetricsKey = "ttha-gurmukhi";
unicode = 0A28;
},
{
glyphname = "pa-gurmukhi";
layers = (
{
anchors = (
{
name = bindu;
position = "{527, 680}";
},
{
name = bottom;
position = "{553, 0}";
},
{
name = candra;
position = "{527, 690}";
},
{
name = caret_1;
position = "{317, 30}";
},
{
name = nukta;
position = "{94, 0}";
},
{
name = top;
position = "{527, 670}";
}
);
layerId = "E8BF2718-0C92-4E31-9FCE-6752C723AF07";
paths = (
{
closed = 1;
nodes = (
"406 83 OFFCURVE",
"465 101 OFFCURVE",
"511 130 CURVE",
"476 324 LINE",
"438 246 OFFCURVE",
"364 224 OFFCURVE",
"315 224 CURVE SMOOTH",
"211 224 OFFCURVE",
"199 285 OFFCURVE",
"195 314 CURVE",
"152 234 LINE",
"216 261 OFFCURVE",
"304 319 OFFCURVE",
"304 440 CURVE SMOOTH",
"304 554 OFFCURVE",
"207 692 OFFCURVE",
"29 692 CURVE SMOOTH",
"0 692 LINE",
"0 552 LINE",
"36 552 LINE SMOOTH",
"104 552 OFFCURVE",
"132 508 OFFCURVE",
"132 455 CURVE SMOOTH",
"132 396 OFFCURVE",
"98 361 OFFCURVE",
"39 323 CURVE",
"64 165 OFFCURVE",
"199 83 OFFCURVE",
"317 83 CURVE SMOOTH"
);
},
{
closed = 1;
nodes = (
"639 0 LINE",
"639 621 LINE",
"595 552 LINE",
"707 552 LINE",
"707 692 LINE",
"464 692 LINE",
"464 0 LINE"
);
}
);
width = 707;
}
);
leftMetricsKey = "ma-gurmukhi";
rightMetricsKey = "STEM-GURM";
unicode = 0A2A;
},
{
glyphname = "pha-gurmukhi";
layers = (
{
anchors = (
{
name = bindu;
position = "{491, 680}";
},
{
name = bottom;
position = "{378, 0}";
},
{
name = candra;
position = "{491, 690}";
},
{
name = caret_1;
position = "{356, 30}";
},
{
name = nukta;
position = "{61, -40}";
},
{
name = top;
position = "{471, 670}";
}
);
layerId = "E8BF2718-0C92-4E31-9FCE-6752C723AF07";
paths = (
{
closed = 1;
nodes = (
"253 109 LINE",
"280 159 OFFCURVE",
"362 190 OFFCURVE",
"417 190 CURVE SMOOTH",
"448 190 OFFCURVE",
"471 180 OFFCURVE",
"471 159 CURVE SMOOTH",
"471 129 OFFCURVE",
"420 106 OFFCURVE",
"354 106 CURVE SMOOTH",
"265 106 OFFCURVE",
"171 148 OFFCURVE",
"171 228 CURVE SMOOTH",
"171 285 OFFCURVE",
"220 340 OFFCURVE",
"325 340 CURVE SMOOTH",
"558 340 LINE",
"558 624 LINE",
"383 624 LINE",
"383 480 LINE",
"311 480 LINE SMOOTH",
"117 480 OFFCURVE",
"25 368 OFFCURVE",
"25 253 CURVE SMOOTH",
"25 122 OFFCURVE",
"144 -14 OFFCURVE",
"366 -14 CURVE SMOOTH",
"540 -14 OFFCURVE",
"627 69 OFFCURVE",
"627 158 CURVE SMOOTH",
"627 251 OFFCURVE",
"531 298 OFFCURVE",
"427 298 CURVE SMOOTH",
"322 298 OFFCURVE",
"206 251 OFFCURVE",
"176 156 CURVE"
);
},
{
closed = 1;
nodes = (
"649 552 LINE",
"649 692 LINE",
"0 692 LINE",
"0 552 LINE"
);
}
);
width = 649;
}
);
leftMetricsKey = "ra-gurmukhi";
rightMetricsKey = "ttha-gurmukhi";
unicode = 0A2B;
},
{
glyphname = "ba-gurmukhi";
layers = (
{
anchors = (
{
name = bindu;
position = "{530, 680}";
},
{
name = bottom;
position = "{556, 0}";
},
{
name = candra;
position = "{530, 690}";
},
{
name = caret_1;
position = "{347, 30}";
},
{
name = nukta;
position = "{107, -50}";
},
{
name = top;
position = "{550, 670}";
}
);
layerId = "E8BF2718-0C92-4E31-9FCE-6752C723AF07";
paths = (
{
closed = 1;
nodes = (
"401 28 OFFCURVE",
"463 45 OFFCURVE",
"514 77 CURVE",
"494 264 LINE",
"446 189 OFFCURVE",
"376 169 OFFCURVE",
"312 169 CURVE SMOOTH",
"232 169 OFFCURVE",
"205 202 OFFCURVE",
"194 223 CURVE",
"191 192 LINE",
"233 259 OFFCURVE",
"324 308 OFFCURVE",
"495 309 CURVE SMOOTH",
"544 309 LINE",
"544 431 LINE",
"431 431 LINE SMOOTH",
"311 432 OFFCURVE",
"245 500 OFFCURVE",
"243 587 CURVE",
"68 594 LINE",
"68 504 OFFCURVE",
"134 418 OFFCURVE",
"241 373 CURVE",
"242 401 LINE",
"144 367 OFFCURVE",
"74 311 OFFCURVE",
"35 250 CURVE",
"83 97 OFFCURVE",
"213 28 OFFCURVE",
"339 28 CURVE SMOOTH"
);
},
{
closed = 1;
nodes = (
"561 552 LINE",
"561 692 LINE",
"0 692 LINE",
"0 552 LINE"
);
},
{
closed = 1;
nodes = (
"642 0 LINE",
"642 621 LINE",
"598 552 LINE",
"710 552 LINE",
"710 692 LINE",
"467 692 LINE",
"467 0 LINE"
);
}
);
width = 710;
}
);
leftMetricsKey = "ra-gurmukhi";
rightMetricsKey = "STEM-GURM";
unicode = 0A2C;
},
{
glyphname = "bha-gurmukhi";
layers = (
{
anchors = (
{
name = bindu;
position = "{493, 680}";
},
{
name = bottom;
position = "{290, 2}";
},
{
name = candra;
position = "{493, 690}";
},
{
name = caret_1;
position = "{277, 30}";
},
{
name = nukta;
position = "{62, -103}";
},
{
name = top;
position = "{473, 670}";
}
);
layerId = "E8BF2718-0C92-4E31-9FCE-6752C723AF07";
paths = (
{
closed = 1;
nodes = (
"468 -15 OFFCURVE",
"569 90 OFFCURVE",
"569 206 CURVE SMOOTH",
"569 266 OFFCURVE",
"541 329 OFFCURVE",
"485 383 CURVE",
"491 331 LINE",
"538 395 OFFCURVE",
"563 473 OFFCURVE",
"563 540 CURVE SMOOTH",
"563 585 LINE",
"393 585 LINE",
"393 552 LINE",
"393 502 OFFCURVE",
"390 469 OFFCURVE",
"372 433 CURVE",
"407 448 LINE",
"347 481 OFFCURVE",
"277 500 OFFCURVE",
"216 500 CURVE SMOOTH",
"121 500 OFFCURVE",
"31 454 OFFCURVE",
"31 352 CURVE SMOOTH",
"31 237 OFFCURVE",
"147 190 OFFCURVE",
"247 190 CURVE SMOOTH",
"328 190 OFFCURVE",
"388 221 OFFCURVE",
"440 272 CURVE",
"406 282 LINE",
"416 264 OFFCURVE",
"421 246 OFFCURVE",
"421 228 CURVE SMOOTH",
"421 171 OFFCURVE",
"365 127 OFFCURVE",
"258 127 CURVE SMOOTH",
"192 127 OFFCURVE",
"117 144 OFFCURVE",
"62 164 CURVE",
"27 32 LINE",
"91 5 OFFCURVE",
"186 -15 OFFCURVE",
"272 -15 CURVE SMOOTH"
);
},
{
closed = 1;
nodes = (
"211 315 OFFCURVE",
"177 325 OFFCURVE",
"177 352 CURVE SMOOTH",
"177 376 OFFCURVE",
"206 389 OFFCURVE",
"247 389 CURVE SMOOTH",
"291 389 OFFCURVE",
"338 374 OFFCURVE",
"367 340 CURVE",
"358 385 LINE",
"344 340 OFFCURVE",
"296 315 OFFCURVE",
"244 315 CURVE SMOOTH"
);
},
{
closed = 1;
nodes = (
"602 552 LINE",
"602 692 LINE",
"0 692 LINE",
"0 552 LINE"
);
}
);
width = 602;
}
);
leftMetricsKey = "ta-gurmukhi";
rightMetricsKey = "ta-gurmukhi";
unicode = 0A2D;
},
{
glyphname = "ma-gurmukhi";
layers = (
{
anchors = (
{
name = bindu;
position = "{547, 680}";
},
{
name = bottom;
position = "{573, 0}";
},
{
name = candra;
position = "{547, 690}";
},
{
name = caret_1;
position = "{358, 30}";
},
{
name = nukta;
position = "{358, 20}";
},
{
name = top;
position = "{547, 670}";
}
);
layerId = "E8BF2718-0C92-4E31-9FCE-6752C723AF07";
paths = (
{
closed = 1;
nodes = (
"255 121 OFFCURVE",
"306 285 OFFCURVE",
"306 409 CURVE SMOOTH",
"306 588 OFFCURVE",
"189 692 OFFCURVE",
"21 692 CURVE SMOOTH",
"0 692 LINE",
"0 552 LINE",
"34 552 LINE SMOOTH",
"114 552 OFFCURVE",
"142 490 OFFCURVE",
"142 422 CURVE SMOOTH",
"142 376 OFFCURVE",
"138 344 OFFCURVE",
"131 315 CURVE",
"163 357 LINE",
"56 296 OFFCURVE",
"45 153 OFFCURVE",
"50 61 CURVE",
"193 35 LINE"
);
},
{
closed = 1;
nodes = (
"545 213 LINE",
"545 353 LINE",
"212 353 LINE",
"201 213 LINE"
);
},
{
closed = 1;
nodes = (
"659 0 LINE",
"659 621 LINE",
"615 552 LINE",
"727 552 LINE",
"727 692 LINE",
"484 692 LINE",
"484 0 LINE"
);
}
);
width = 727;
}
);
rightMetricsKey = "STEM-GURM";
unicode = 0A2E;
},
{
glyphname = "ya-gurmukhi";
layers = (
{
anchors = (
{
name = bindu;
position = "{664, 680}";
},
{
name = bottom;
position = "{690, 0}";
},
{
name = candra;
position = "{664, 690}";
},
{
name = caret_1;
position = "{409, 30}";
},
{
name = nukta;
position = "{118, -10}";
},
{
name = top;
position = "{684, 670}";
}
);
layerId = "E8BF2718-0C92-4E31-9FCE-6752C723AF07";
paths = (
{
closed = 1;
nodes = (
"437 83 OFFCURVE",
"535 147 OFFCURVE",
"535 277 CURVE",
"535 315 LINE",
"490 279 LINE",
"621 279 LINE",
"621 419 LINE",
"375 419 LINE",
"375 303 LINE",
"375 238 OFFCURVE",
"327 224 OFFCURVE",
"295 224 CURVE SMOOTH",
"231 224 OFFCURVE",
"210 256 OFFCURVE",
"200 285 CURVE",
"188 251 LINE",
"244 284 OFFCURVE",
"304 340 OFFCURVE",
"304 440 CURVE SMOOTH",
"304 554 OFFCURVE",
"207 692 OFFCURVE",
"29 692 CURVE SMOOTH",
"0 692 LINE",
"0 552 LINE",
"36 552 LINE SMOOTH",
"104 552 OFFCURVE",
"132 508 OFFCURVE",
"132 455 CURVE SMOOTH",
"132 396 OFFCURVE",
"98 361 OFFCURVE",
"39 323 CURVE",
"63 165 OFFCURVE",
"191 83 OFFCURVE",
"304 83 CURVE SMOOTH"
);
},
{
closed = 1;
nodes = (
"637 552 LINE",
"637 692 LINE",
"5 692 LINE",
"5 552 LINE"
);
},
{
closed = 1;
nodes = (
"776 0 LINE",
"776 621 LINE",
"732 552 LINE",
"844 552 LINE",
"844 692 LINE",
"601 692 LINE",
"601 0 LINE"
);
}
);
width = 844;
}
);
leftMetricsKey = "pa-gurmukhi";
rightMetricsKey = "STEM-GURM";
unicode = 0A2F;
},
{
glyphname = "ra-gurmukhi";
layers = (
{
anchors = (
{
name = bindu;
position = "{459, 680}";
},
{
name = bottom;
position = "{372, 0}";
},
{
name = candra;
position = "{459, 690}";
},
{
name = caret_1;
position = "{372, 30}";
},
{
name = nukta;
position = "{58, -30}";
},
{
name = top;
position = "{479, 670}";
}
);
layerId = "E8BF2718-0C92-4E31-9FCE-6752C723AF07";
paths = (
{
closed = 1;
nodes = (
"481 -15 OFFCURVE",
"573 42 OFFCURVE",
"573 166 CURVE",
"573 624 LINE",
"398 624 LINE",
"398 401 LINE",
"443 450 LINE",
"229 450 LINE SMOOTH",
"103 450 OFFCURVE",
"24 381 OFFCURVE",
"24 266 CURVE SMOOTH",
"24 109 OFFCURVE",
"215 -15 OFFCURVE",
"372 -15 CURVE SMOOTH"
);
},
{
closed = 1;
nodes = (
"268 125 OFFCURVE",
"201 183 OFFCURVE",
"201 245 CURVE SMOOTH",
"201 283 OFFCURVE",
"222 310 OFFCURVE",
"266 310 CURVE SMOOTH",
"444 310 LINE",
"399 335 LINE",
"399 186 LINE",
"399 152 OFFCURVE",
"393 125 OFFCURVE",
"349 125 CURVE SMOOTH"
);
},
{
closed = 1;
nodes = (
"641 552 LINE",
"641 692 LINE",
"0 692 LINE",
"0 552 LINE"
);
}
);
width = 641;
}
);
rightMetricsKey = "STEM-GURM";
unicode = 0A30;
},
{
glyphname = "la-gurmukhi";
layers = (
{
anchors = (
{
name = bindu;
position = "{591, 680}";
},
{
name = bottom;
position = "{549, 21}";
},
{
name = candra;
position = "{373, 690}";
},
{
name = caret_1;
position = "{372, 30}";
},
{
name = nukta;
position = "{374, -41}";
},
{
name = top;
position = "{571, 670}";
}
);
layerId = "E8BF2718-0C92-4E31-9FCE-6752C723AF07";
paths = (
{
closed = 1;
nodes = (
"302 131 LINE",
"248 142 OFFCURVE",
"209 176 OFFCURVE",
"209 225 CURVE SMOOTH",
"209 261 OFFCURVE",
"230 288 OFFCURVE",
"263 305 CURVE",
"305 280 OFFCURVE",
"349 259 OFFCURVE",
"389 242 CURVE",
"426 261 OFFCURVE",
"461 279 OFFCURVE",
"493 299 CURVE",
"520 283 OFFCURVE",
"537 258 OFFCURVE",
"537 225 CURVE SMOOTH",
"537 177 OFFCURVE",
"498 143 OFFCURVE",
"444 131 CURVE",
"460 -11 LINE",
"599 5 OFFCURVE",
"714 87 OFFCURVE",
"714 215 CURVE SMOOTH",
"714 292 OFFCURVE",
"673 357 OFFCURVE",
"609 399 CURVE",
"644 444 OFFCURVE",
"664 499 OFFCURVE",
"663 570 CURVE",
"486 570 LINE",
"490 486 OFFCURVE",
"422 428 OFFCURVE",
"359 401 CURVE",
"305 427 OFFCURVE",
"258 474 OFFCURVE",
"261 571 CURVE",
"84 571 LINE",
"83 507 OFFCURVE",
"104 454 OFFCURVE",
"137 410 CURVE",
"74 370 OFFCURVE",
"32 309 OFFCURVE",
"32 227 CURVE SMOOTH",
"32 91 OFFCURVE",
"150 11 OFFCURVE",
"286 -11 CURVE"
);
},
{
closed = 1;
nodes = (
"746 552 LINE",
"746 692 LINE",
"0 692 LINE",
"0 552 LINE"
);
}
);
width = 746;
}
);
rightMetricsKey = "ta-gurmukhi";
unicode = 0A32;
},
{
glyphname = "va-gurmukhi";
layers = (
{
anchors = (
{
name = bindu;
position = "{471, 680}";
},
{
name = bottom;
position = "{424, 0}";
},
{
name = candra;
position = "{471, 690}";
},
{
name = caret_1;
position = "{401, 30}";
},
{
name = nukta;
position = "{102, -44}";
},
{
name = top;
position = "{491, 670}";
}
);
layerId = "E8BF2718-0C92-4E31-9FCE-6752C723AF07";
paths = (
{
closed = 1;
nodes = (
"539 196 LINE",
"543 311 LINE",
"240 311 LINE",
"214 311 OFFCURVE",
"200 328 OFFCURVE",
"200 343 CURVE SMOOTH",
"200 355 OFFCURVE",
"209 366 OFFCURVE",
"227 366 CURVE",
"583 366 LINE",
"583 615 LINE",
"408 615 LINE",
"408 454 LINE",
"453 493 LINE",
"189 493 LINE",
"83 493 OFFCURVE",
"31 432 OFFCURVE",
"31 365 CURVE SMOOTH",
"31 285 OFFCURVE",
"106 196 OFFCURVE",
"250 196 CURVE"
);
},
{
closed = 1;
nodes = (
"486 -15 OFFCURVE",
"544 -6 OFFCURVE",
"591 8 CURVE",
"556 140 LINE",
"509 132 OFFCURVE",
"459 125 OFFCURVE",
"405 125 CURVE SMOOTH",
"320 125 OFFCURVE",
"274 142 OFFCURVE",
"274 184 CURVE SMOOTH",
"274 202 OFFCURVE",
"274 220 OFFCURVE",
"274 238 CURVE",
"114 238 LINE",
"114 226 OFFCURVE",
"114 213 OFFCURVE",
"114 201 CURVE SMOOTH",
"114 70 OFFCURVE",
"232 -15 OFFCURVE",
"424 -15 CURVE SMOOTH"
);
},
{
closed = 1;
nodes = (
"651 552 LINE",
"651 692 LINE",
"0 692 LINE",
"0 552 LINE"
);
}
);
width = 651;
}
);
leftMetricsKey = "ra-gurmukhi";
unicode = 0A35;
},
{
glyphname = "sa-gurmukhi";
layers = (
{
anchors = (
{
name = bindu;
position = "{549, 680}";
},
{
name = bottom;
position = "{573, 0}";
},
{
name = candra;
position = "{549, 690}";
},
{
name = caret_1;
position = "{358, 30}";
},
{
name = nukta;
position = "{358, 37}";
},
{
name = top;
position = "{569, 670}";
}
);
components = (
{
name = "ma-gurmukhi";
}
);
layerId = "E8BF2718-0C92-4E31-9FCE-6752C723AF07";
paths = (
{
closed = 1;
nodes = (
"636 552 LINE",
"636 692 LINE",
"2 692 LINE",
"2 552 LINE"
);
}
);
width = 727;
}
);
leftMetricsKey = "ma-gurmukhi";
rightMetricsKey = "ma-gurmukhi";
unicode = 0A38;
},
{
glyphname = "ha-gurmukhi";
layers = (
{
anchors = (
{
name = bindu;
position = "{459, 680}";
},
{
name = bottom;
position = "{372, 0}";
},
{
name = candra;
position = "{459, 690}";
},
{
name = caret_1;
position = "{372, 30}";
},
{
name = nukta;
position = "{58, -30}";
},
{
name = top;
position = "{479, 670}";
}
);
layerId = "E8BF2718-0C92-4E31-9FCE-6752C723AF07";
paths = (
{
closed = 1;
nodes = (
"483 -15 OFFCURVE",
"573 42 OFFCURVE",
"573 166 CURVE",
"573 624 LINE",
"398 624 LINE",
"399 186 LINE",
"399 149 OFFCURVE",
"393 125 OFFCURVE",
"347 125 CURVE SMOOTH",
"283 125 OFFCURVE",
"201 171 OFFCURVE",
"201 248 CURVE SMOOTH",
"201 293 OFFCURVE",
"229 310 OFFCURVE",
"316 310 CURVE",
"299 450 LINE",
"114 450 OFFCURVE",
"24 395 OFFCURVE",
"24 271 CURVE SMOOTH",
"24 104 OFFCURVE",
"218 -15 OFFCURVE",
"368 -15 CURVE SMOOTH"
);
},
{
closed = 1;
nodes = (
"641 552 LINE",
"641 692 LINE",
"0 692 LINE",
"0 552 LINE"
);
}
);
width = 641;
}
);
rightMetricsKey = "STEM-GURM";
unicode = 0A39;
},
{
glyphname = "rra-gurmukhi";
layers = (
{
anchors = (
{
name = bindu;
position = "{483, 680}";
},
{
name = bottom;
position = "{326, 25}";
},
{
name = candra;
position = "{483, 690}";
},
{
name = caret_1;
position = "{326, 60}";
},
{
name = top;
position = "{463, 670}";
}
);
layerId = "E8BF2718-0C92-4E31-9FCE-6752C723AF07";
paths = (
{
closed = 1;
nodes = (
"180 0 LINE",
"180 34 LINE SMOOTH",
"180 58 OFFCURVE",
"191 69 OFFCURVE",
"212 69 CURVE SMOOTH",
"250 69 OFFCURVE",
"264 34 OFFCURVE",
"342 34 CURVE SMOOTH",
"369 34 OFFCURVE",
"397 37 OFFCURVE",
"416 46 CURVE",
"365 75 LINE",
"418 0 LINE",
"567 0 LINE",
"567 17 LINE",
"493 135 LINE",
"491 76 LINE",
"542 111 OFFCURVE",
"571 161 OFFCURVE",
"571 213 CURVE SMOOTH",
"571 275 OFFCURVE",
"529 337 OFFCURVE",
"435 367 CURVE",
"448 335 LINE",
"521 381 OFFCURVE",
"553 453 OFFCURVE",
"553 556 CURVE",
"553 576 LINE",
"378 576 LINE",
"378 557 LINE",
"378 489 OFFCURVE",
"363 447 OFFCURVE",
"295 435 CURVE",
"353 434 LINE",
"312 456 OFFCURVE",
"256 465 OFFCURVE",
"202 465 CURVE SMOOTH",
"157 465 OFFCURVE",
"112 458 OFFCURVE",
"79 447 CURVE",
"89 309 LINE",
"126 297 OFFCURVE",
"168 291 OFFCURVE",
"213 291 CURVE SMOOTH",
"267 291 OFFCURVE",
"324 298 OFFCURVE",
"376 313 CURVE",
"309 315 LINE",
"369 310 OFFCURVE",
"402 270 OFFCURVE",
"402 233 CURVE SMOOTH",
"402 199 OFFCURVE",
"374 167 OFFCURVE",
"318 167 CURVE SMOOTH",
"259 167 OFFCURVE",
"247 207 OFFCURVE",
"175 207 CURVE SMOOTH",
"88 207 OFFCURVE",
"27 149 OFFCURVE",
"27 45 CURVE SMOOTH",
"27 0 LINE"
);
},
{
closed = 1;
nodes = (
"609 552 LINE",
"609 692 LINE",
"0 692 LINE",
"0 552 LINE"
);
}
);
width = 609;
}
);
leftMetricsKey = "ta-gurmukhi";
rightMetricsKey = "ta-gurmukhi";
unicode = 0A5C;
},
{
glyphname = "iri-gurmukhi";
layers = (
{
anchors = (
{
name = bindu;
position = "{461, 680}";
},
{
name = bottom;
position = "{397, 2}";
},
{
name = candra;
position = "{461, 690}";
},
{
name = caret_1;
position = "{397, 30}";
},
{
name = nukta;
position = "{108, -54}";
},
{
name = top;
position = "{481, 670}";
}
);
layerId = "E8BF2718-0C92-4E31-9FCE-6752C723AF07";
paths = (
{
closed = 1;
nodes = (
"467 -15 OFFCURVE",
"537 0 OFFCURVE",
"596 28 CURVE",
"561 160 LINE",
"505 140 OFFCURVE",
"441 127 OFFCURVE",
"381 127 CURVE SMOOTH",
"293 127 OFFCURVE",
"213 149 OFFCURVE",
"181 215 CURVE",
"184 177 LINE",
"227 238 OFFCURVE",
"323 286 OFFCURVE",
"498 287 CURVE SMOOTH",
"575 287 LINE",
"575 623 LINE",
"400 623 LINE",
"400 377 LINE",
"442 422 LINE",
"403 422 LINE",
"281 422 OFFCURVE",
"214 491 OFFCURVE",
"212 577 CURVE",
"37 584 LINE",
"37 490 OFFCURVE",
"109 402 OFFCURVE",
"224 357 CURVE",
"225 385 LINE",
"130 349 OFFCURVE",
"61 291 OFFCURVE",
"24 230 CURVE",
"70 63 OFFCURVE",
"240 -15 OFFCURVE",
"397 -15 CURVE SMOOTH"
);
},
{
closed = 1;
nodes = (
"643 552 LINE",
"643 692 LINE",
"-20 692 LINE",
"-20 552 LINE"
);
}
);
width = 643;
}
);
rightMetricsKey = "STEM-GURM";
unicode = 0A72;
},
{
glyphname = "ura-gurmukhi";
layers = (
{
anchors = (
{
name = bindu;
position = "{697, 680}";
},
{
name = bottom;
position = "{405, 2}";
},
{
name = candra;
position = "{830, 650}";
},
{
name = caret_1;
position = "{405, 30}";
},
{
name = nukta;
position = "{92, -20}";
}
);
layerId = "E8BF2718-0C92-4E31-9FCE-6752C723AF07";
paths = (
{
closed = 1;
nodes = (
"551 -15 OFFCURVE",
"634 69 OFFCURVE",
"634 161 CURVE SMOOTH",
"634 243 OFFCURVE",
"567 331 OFFCURVE",
"428 365 CURVE",
"435 297 LINE",
"593 359 OFFCURVE",
"641 458 OFFCURVE",
"641 589 CURVE SMOOTH",
"641 802 OFFCURVE",
"514 954 OFFCURVE",
"322 954 CURVE SMOOTH",
"160 954 OFFCURVE",
"40 841 OFFCURVE",
"40 543 CURVE SMOOTH",
"40 271 OFFCURVE",
"141 -15 OFFCURVE",
"405 -15 CURVE SMOOTH"
);
},
{
closed = 1;
nodes = (
"236 127 OFFCURVE",
"206 366 OFFCURVE",
"206 530 CURVE SMOOTH",
"206 717 OFFCURVE",
"245 812 OFFCURVE",
"341 812 CURVE SMOOTH",
"425 812 OFFCURVE",
"472 746 OFFCURVE",
"472 615 CURVE SMOOTH",
"472 498 OFFCURVE",
"434 419 OFFCURVE",
"269 419 CURVE SMOOTH",
"140 419 LINE",
"140 296 LINE",
"323 296 LINE SMOOTH",
"414 296 OFFCURVE",
"462 240 OFFCURVE",
"462 192 CURVE SMOOTH",
"462 157 OFFCURVE",
"436 127 OFFCURVE",
"382 127 CURVE SMOOTH"
);
},
{
closed = 1;
nodes = (
"697 552 LINE",
"697 692 LINE",
"-20 692 LINE",
"-20 552 LINE"
);
}
);
width = 677;
}
);
unicode = 0A73;
},
{
glyphname = "ekonkar-gurmukhi";
layers = (
{
layerId = "E8BF2718-0C92-4E31-9FCE-6752C723AF07";
paths = (
{
closed = 1;
nodes = (
"1177 -15 OFFCURVE",
"1261 69 OFFCURVE",
"1261 161 CURVE SMOOTH",
"1261 234 OFFCURVE",
"1210 310 OFFCURVE",
"1102 351 CURVE",
"1107 317 LINE",
"1221 376 OFFCURVE",
"1264 461 OFFCURVE",
"1268 568 CURVE",
"1096 567 LINE",
"1086 477 OFFCURVE",
"1037 419 OFFCURVE",
"896 419 CURVE SMOOTH",
"822 419 LINE",
"842 296 LINE",
"950 296 LINE SMOOTH",
"1041 296 OFFCURVE",
"1089 240 OFFCURVE",
"1089 192 CURVE SMOOTH",
"1089 157 OFFCURVE",
"1063 127 OFFCURVE",
"1010 127 CURVE SMOOTH",
"858 127 OFFCURVE",
"833 385 OFFCURVE",
"833 528 CURVE SMOOTH",
"833 745 OFFCURVE",
"873 898 OFFCURVE",
"1162 898 CURVE SMOOTH",
"1178 898 OFFCURVE",
"1198 898 OFFCURVE",
"1217 898 CURVE",
"1116 918 LINE",
"1131 868 OFFCURVE",
"1179 819 OFFCURVE",
"1260 800 CURVE SMOOTH",
"1308 789 OFFCURVE",
"1350 792 OFFCURVE",
"1390 802 CURVE",
"1445 907 LINE",
"1376 964 OFFCURVE",
"1262 1014 OFFCURVE",
"1215 1018 CURVE",
"1236 983 LINE",
"1234 994 OFFCURVE",
"1233 1004 OFFCURVE",
"1233 1014 CURVE SMOOTH",
"1233 1090 OFFCURVE",
"1294 1146 OFFCURVE",
"1381 1146 CURVE SMOOTH",
"1456 1146 OFFCURVE",
"1543 1103 OFFCURVE",
"1590 1022 CURVE",
"1704 1084 LINE",
"1634 1215 OFFCURVE",
"1496 1280 OFFCURVE",
"1373 1280 CURVE SMOOTH",
"1209 1280 OFFCURVE",
"1095 1165 OFFCURVE",
"1095 1027 CURVE SMOOTH",
"1095 1020 OFFCURVE",
"1095 1012 OFFCURVE",
"1096 1005 CURVE",
"1167 1034 LINE",
"1123 1034 OFFCURVE",
"1110 1034 OFFCURVE",
"1105 1034 CURVE SMOOTH",
"841 1034 OFFCURVE",
"667 908 OFFCURVE",
"667 545 CURVE SMOOTH",
"667 271 OFFCURVE",
"767 -15 OFFCURVE",
"1033 -15 CURVE SMOOTH"
);
},
{
closed = 1;
nodes = (
"661 111 LINE",
"624 119 OFFCURVE",
"598 147 OFFCURVE",
"598 185 CURVE SMOOTH",
"598 383 LINE SMOOTH",
"598 595 OFFCURVE",
"455 709 OFFCURVE",
"293 709 CURVE SMOOTH",
"163 709 OFFCURVE",
"43 635 OFFCURVE",
"43 482 CURVE SMOOTH",
"43 319 OFFCURVE",
"180 228 OFFCURVE",
"319 228 CURVE SMOOTH",
"365 228 OFFCURVE",
"413 238 OFFCURVE",
"455 261 CURVE",
"428 293 LINE",
"428 197 LINE SMOOTH",
"428 72 OFFCURVE",
"516 -1 OFFCURVE",
"615 -21 CURVE"
);
},
{
closed = 1;
nodes = (
"256 369 OFFCURVE",
"206 401 OFFCURVE",
"206 465 CURVE SMOOTH",
"206 531 OFFCURVE",
"258 566 OFFCURVE",
"313 566 CURVE SMOOTH",
"376 566 OFFCURVE",
"440 521 OFFCURVE",
"439 406 CURVE",
"441 482 LINE",
"440 410 OFFCURVE",
"375 369 OFFCURVE",
"312 369 CURVE SMOOTH"
);
},
{
closed = 1;
nodes = (
"1324 552 LINE",
"1324 692 LINE",
"832 692 LINE",
"817 552 LINE"
);
}
);
width = 1425;
}
);
leftMetricsKey = "one-gurmukhi";
unicode = 0A74;
},
{
glyphname = "ya-gurmukhi.post";
layers = (
{
anchors = (
{
name = bindu;
position = "{402, 680}";
},
{
name = bottom;
position = "{428, 0}";
},
{
name = candra;
position = "{402, 690}";
},
{
name = caret_1;
position = "{154, 30}";
},
{
name = nukta;
position = "{153, -30}";
},
{
name = top;
position = "{422, 670}";
}
);
layerId = "E8BF2718-0C92-4E31-9FCE-6752C723AF07";
paths = (
{
closed = 1;
nodes = (
"35 83 LINE SMOOTH",
"173 83 OFFCURVE",
"275 145 OFFCURVE",
"275 279 CURVE",
"275 315 LINE",
"230 279 LINE",
"359 279 LINE",
"359 419 LINE",
"112 419 LINE",
"112 303 LINE SMOOTH",
"112 236 OFFCURVE",
"61 221 OFFCURVE",
"27 221 CURVE SMOOTH",
"-89 221 LINE",
"-89 83 LINE"
);
},
{
closed = 1;
nodes = (
"375 552 LINE",
"375 692 LINE",
"0 692 LINE",
"0 552 LINE"
);
},
{
closed = 1;
nodes = (
"514 0 LINE",
"514 621 LINE",
"470 552 LINE",
"582 552 LINE",
"582 692 LINE",
"339 692 LINE",
"339 0 LINE"
);
}
);
width = 582;
}
);
rightMetricsKey = "STEM-GURM";
},
{
glyphname = "ekonkar-gurmukhi.ss01";
layers = (
{
layerId = "E8BF2718-0C92-4E31-9FCE-6752C723AF07";
paths = (
{
closed = 1;
nodes = (
"1096 567 LINE",
"1086 477 OFFCURVE",
"1037 419 OFFCURVE",
"896 419 CURVE SMOOTH",
"822 419 LINE",
"842 296 LINE",
"950 296 LINE SMOOTH",
"1041 296 OFFCURVE",
"1089 240 OFFCURVE",
"1089 192 CURVE SMOOTH",
"1089 157 OFFCURVE",
"1063 127 OFFCURVE",
"1010 127 CURVE SMOOTH",
"850 127 OFFCURVE",
"833 411 OFFCURVE",
"833 530 CURVE SMOOTH",
"833 723 OFFCURVE",
"872 896 OFFCURVE",
"1109 896 CURVE SMOOTH",
"1114 896 OFFCURVE",
"1120 896 OFFCURVE",
"1125 896 CURVE",
"1155 838 OFFCURVE",
"1203 810 OFFCURVE",
"1257 799 CURVE SMOOTH",
"1297 791 OFFCURVE",
"1349 791 OFFCURVE",
"1390 802 CURVE",
"1445 907 LINE",
"1387 954 OFFCURVE",
"1313 993 OFFCURVE",
"1234 1015 CURVE",
"1233 1021 OFFCURVE",
"1233 1027 OFFCURVE",
"1233 1034 CURVE SMOOTH",
"1233 1230 OFFCURVE",
"1384 1364 OFFCURVE",
"1600 1364 CURVE SMOOTH",
"1708 1364 OFFCURVE",
"1825 1331 OFFCURVE",
"1922 1270 CURVE",
"1985 1370 LINE",
"1877 1455 OFFCURVE",
"1732 1501 OFFCURVE",
"1590 1501 CURVE SMOOTH",
"1313 1501 OFFCURVE",
"1095 1326 OFFCURVE",
"1095 1045 CURVE SMOOTH",
"1095 1026 OFFCURVE",
"1095 1008 OFFCURVE",
"1095 989 CURVE",
"1127 1034 LINE",
"1118 1034 OFFCURVE",
"1109 1034 OFFCURVE",
"1100 1034 CURVE SMOOTH",
"839 1034 OFFCURVE",
"667 905 OFFCURVE",
"667 543 CURVE SMOOTH",
"667 272 OFFCURVE",
"767 -15 OFFCURVE",
"1033 -15 CURVE SMOOTH",
"1177 -15 OFFCURVE",
"1261 69 OFFCURVE",
"1261 161 CURVE SMOOTH",
"1261 234 OFFCURVE",
"1210 310 OFFCURVE",
"1102 351 CURVE",
"1107 317 LINE",
"1221 376 OFFCURVE",
"1264 461 OFFCURVE",
"1268 568 CURVE"
);
},
{
closed = 1;
nodes = (
"661 111 LINE",
"624 119 OFFCURVE",
"598 147 OFFCURVE",
"598 185 CURVE SMOOTH",
"598 383 LINE SMOOTH",
"598 595 OFFCURVE",
"455 709 OFFCURVE",
"293 709 CURVE SMOOTH",
"163 709 OFFCURVE",
"43 635 OFFCURVE",
"43 482 CURVE SMOOTH",
"43 319 OFFCURVE",
"180 228 OFFCURVE",
"318 228 CURVE SMOOTH",
"365 228 OFFCURVE",
"413 238 OFFCURVE",
"455 261 CURVE",
"428 293 LINE",
"428 197 LINE SMOOTH",
"428 72 OFFCURVE",
"516 -1 OFFCURVE",
"615 -21 CURVE"
);
},
{
closed = 1;
nodes = (
"256 369 OFFCURVE",
"206 401 OFFCURVE",
"206 465 CURVE SMOOTH",
"206 531 OFFCURVE",
"258 566 OFFCURVE",
"313 566 CURVE SMOOTH",
"376 566 OFFCURVE",
"440 521 OFFCURVE",
"439 406 CURVE",
"441 482 LINE",
"440 410 OFFCURVE",
"375 369 OFFCURVE",
"312 369 CURVE SMOOTH"
);
},
{
closed = 1;
nodes = (
"1324 552 LINE",
"1324 692 LINE",
"832 692 LINE",
"817 552 LINE"
);
}
);
width = 1425;
}
);
leftMetricsKey = "one-gurmukhi";
},
{
glyphname = zero;
layers = (
{
layerId = "E8BF2718-0C92-4E31-9FCE-6752C723AF07";
paths = (
{
closed = 1;
nodes = (
"131 706 OFFCURVE",
"34 580 OFFCURVE",
"34 351 CURVE SMOOTH",
"34 122 OFFCURVE",
"131 -5 OFFCURVE",
"309 -5 CURVE SMOOTH",
"485 -5 OFFCURVE",
"583 122 OFFCURVE",
"583 351 CURVE SMOOTH",
"583 580 OFFCURVE",
"485 706 OFFCURVE",
"309 706 CURVE SMOOTH"
);
},
{
closed = 1;
nodes = (
"379 578 OFFCURVE",
"408 512 OFFCURVE",
"408 351 CURVE SMOOTH",
"408 191 OFFCURVE",
"379 124 OFFCURVE",
"309 124 CURVE SMOOTH",
"238 124 OFFCURVE",
"209 191 OFFCURVE",
"209 351 CURVE SMOOTH",
"209 512 OFFCURVE",
"238 578 OFFCURVE",
"309 578 CURVE SMOOTH"
);
}
);
width = 617;
}
);
note = zero;
unicode = 0030;
},
{
glyphname = one;
layers = (
{
layerId = "E8BF2718-0C92-4E31-9FCE-6752C723AF07";
paths = (
{
closed = 1;
nodes = (
"410 0 LINE",
"410 701 LINE",
"92 701 LINE",
"92 551 LINE",
"227 551 LINE",
"227 0 LINE"
);
}
);
width = 617;
}
);
note = one;
unicode = 0031;
},
{
glyphname = two;
layers = (
{
layerId = "E8BF2718-0C92-4E31-9FCE-6752C723AF07";
paths = (
{
closed = 1;
nodes = (
"213 710 OFFCURVE",
"115 670 OFFCURVE",
"25 604 CURVE",
"94 469 LINE",
"159 524 OFFCURVE",
"231 558 OFFCURVE",
"288 558 CURVE SMOOTH",
"339 558 OFFCURVE",
"368 536 OFFCURVE",
"368 498 CURVE SMOOTH",
"368 468 OFFCURVE",
"339 423 OFFCURVE",
"300 383 CURVE SMOOTH",
"45 121 LINE",
"46 0 LINE",
"580 0 LINE",
"580 147 LINE",
"280 147 LINE",
"424 291 LINE SMOOTH",
"502 370 OFFCURVE",
"560 449 OFFCURVE",
"560 525 CURVE SMOOTH",
"560 636 OFFCURVE",
"457 710 OFFCURVE",
"315 710 CURVE SMOOTH"
);
}
);
width = 617;
}
);
note = two;
unicode = 0032;
},
{
glyphname = three;
layers = (
{
layerId = "E8BF2718-0C92-4E31-9FCE-6752C723AF07";
paths = (
{
closed = 1;
nodes = (
"347 418 LINE",
"536 594 LINE",
"536 700 LINE",
"46 700 LINE",
"47 559 LINE",
"317 559 LINE",
"153 402 LINE",
"153 304 LINE",
"271 304 LINE SMOOTH",
"349 304 OFFCURVE",
"392 275 OFFCURVE",
"392 219 CURVE SMOOTH",
"392 164 OFFCURVE",
"349 132 OFFCURVE",
"272 132 CURVE SMOOTH",
"205 132 OFFCURVE",
"139 162 OFFCURVE",
"84 219 CURVE",
"10 78 LINE",
"78 26 OFFCURVE",
"184 -8 OFFCURVE",
"286 -8 CURVE SMOOTH",
"460 -8 OFFCURVE",
"571 86 OFFCURVE",
"571 221 CURVE SMOOTH",
"571 328 OFFCURVE",
"493 396 OFFCURVE",
"382 413 CURVE SMOOTH"
);
}
);
width = 617;
}
);
note = three;
unicode = 0033;
},
{
glyphname = four;
layers = (
{
layerId = "E8BF2718-0C92-4E31-9FCE-6752C723AF07";
paths = (
{
closed = 1;
nodes = (
"236 702 LINE",
"28 275 LINE",
"28 152 LINE",
"345 152 LINE",
"345 0 LINE",
"513 0 LINE",
"513 152 LINE",
"603 152 LINE",
"603 291 LINE",
"513 291 LINE",
"513 439 LINE",
"345 439 LINE",
"346 291 LINE",
"215 291 LINE",
"410 702 LINE"
);
}
);
width = 617;
}
);
note = four;
unicode = 0034;
},
{
glyphname = five;
layers = (
{
layerId = "E8BF2718-0C92-4E31-9FCE-6752C723AF07";
paths = (
{
closed = 1;
nodes = (
"78 702 LINE",
"78 302 LINE",
"122 305 OFFCURVE",
"237 306 OFFCURVE",
"274 306 CURVE SMOOTH",
"344 306 OFFCURVE",
"384 276 OFFCURVE",
"384 223 CURVE SMOOTH",
"384 166 OFFCURVE",
"344 134 OFFCURVE",
"273 134 CURVE SMOOTH",
"209 134 OFFCURVE",
"145 164 OFFCURVE",
"90 222 CURVE",
"17 80 LINE",
"93 27 OFFCURVE",
"201 -8 OFFCURVE",
"295 -8 CURVE SMOOTH",
"468 -8 OFFCURVE",
"581 88 OFFCURVE",
"581 236 CURVE SMOOTH",
"581 361 OFFCURVE",
"474 448 OFFCURVE",
"309 448 CURVE SMOOTH",
"295 448 OFFCURVE",
"261 448 OFFCURVE",
"246 447 CURVE",
"246 554 LINE",
"549 554 LINE",
"549 702 LINE"
);
}
);
width = 617;
}
);
note = five;
unicode = 0035;
},
{
glyphname = six;
layers = (
{
layerId = "E8BF2718-0C92-4E31-9FCE-6752C723AF07";
paths = (
{
closed = 1;
nodes = (
"163 709 OFFCURVE",
"38 564 OFFCURVE",
"38 340 CURVE SMOOTH",
"38 125 OFFCURVE",
"150 -8 OFFCURVE",
"336 -8 CURVE SMOOTH",
"490 -8 OFFCURVE",
"594 86 OFFCURVE",
"594 234 CURVE SMOOTH",
"594 371 OFFCURVE",
"506 461 OFFCURVE",
"370 461 CURVE SMOOTH",
"294 461 OFFCURVE",
"240 433 OFFCURVE",
"207 386 CURVE",
"205 500 OFFCURVE",
"258 570 OFFCURVE",
"367 570 CURVE SMOOTH",
"421 570 OFFCURVE",
"472 554 OFFCURVE",
"512 525 CURVE",
"579 651 LINE",
"521 687 OFFCURVE",
"434 709 OFFCURVE",
"356 709 CURVE SMOOTH"
);
},
{
closed = 1;
nodes = (
"393 330 OFFCURVE",
"429 294 OFFCURVE",
"429 235 CURVE SMOOTH",
"429 171 OFFCURVE",
"391 136 OFFCURVE",
"329 136 CURVE SMOOTH",
"258 136 OFFCURVE",
"226 181 OFFCURVE",
"226 232 CURVE SMOOTH",
"226 289 OFFCURVE",
"264 330 OFFCURVE",
"331 330 CURVE SMOOTH"
);
}
);
width = 617;
}
);
note = six;
unicode = 0036;
},
{
glyphname = seven;
layers = (
{
layerId = "E8BF2718-0C92-4E31-9FCE-6752C723AF07";
paths = (
{
closed = 1;
nodes = (
"37 702 LINE",
"37 456 LINE",
"199 456 LINE",
"199 554 LINE",
"395 554 LINE",
"139 0 LINE",
"332 0 LINE",
"596 575 LINE",
"596 702 LINE"
);
}
);
width = 617;
}
);
note = seven;
unicode = 0037;
},
{
glyphname = eight;
layers = (
{
layerId = "E8BF2718-0C92-4E31-9FCE-6752C723AF07";
paths = (
{
closed = 1;
nodes = (
"159 710 OFFCURVE",
"62 638 OFFCURVE",
"62 525 CURVE SMOOTH",
"62 466 OFFCURVE",
"98 409 OFFCURVE",
"155 376 CURVE",
"77 343 OFFCURVE",
"27 274 OFFCURVE",
"27 195 CURVE SMOOTH",
"27 71 OFFCURVE",
"137 -8 OFFCURVE",
"308 -8 CURVE SMOOTH",
"480 -8 OFFCURVE",
"591 72 OFFCURVE",
"591 198 CURVE SMOOTH",
"591 276 OFFCURVE",
"544 343 OFFCURVE",
"471 376 CURVE",
"523 406 OFFCURVE",
"555 461 OFFCURVE",
"555 520 CURVE SMOOTH",
"555 636 OFFCURVE",
"459 710 OFFCURVE",
"307 710 CURVE SMOOTH"
);
},
{
closed = 1;
nodes = (
"380 301 OFFCURVE",
"420 270 OFFCURVE",
"420 214 CURVE SMOOTH",
"420 157 OFFCURVE",
"380 126 OFFCURVE",
"308 126 CURVE SMOOTH",
"237 126 OFFCURVE",
"198 157 OFFCURVE",
"198 214 CURVE SMOOTH",
"198 270 OFFCURVE",
"237 301 OFFCURVE",
"309 301 CURVE SMOOTH"
);
},
{
closed = 1;
nodes = (
"369 587 OFFCURVE",
"402 560 OFFCURVE",
"402 510 CURVE SMOOTH",
"402 462 OFFCURVE",
"369 435 OFFCURVE",
"308 435 CURVE SMOOTH",
"248 435 OFFCURVE",
"215 462 OFFCURVE",
"215 510 CURVE SMOOTH",
"215 560 OFFCURVE",
"248 587 OFFCURVE",
"308 587 CURVE SMOOTH"
);
}
);
width = 617;
}
);
note = eight;
unicode = 0038;
},
{
glyphname = nine;
layers = (
{
layerId = "E8BF2718-0C92-4E31-9FCE-6752C723AF07";
paths = (
{
closed = 1;
nodes = (
"456 -8 OFFCURVE",
"580 138 OFFCURVE",
"580 362 CURVE SMOOTH",
"580 577 OFFCURVE",
"468 709 OFFCURVE",
"283 709 CURVE SMOOTH",
"128 709 OFFCURVE",
"26 616 OFFCURVE",
"26 468 CURVE SMOOTH",
"26 331 OFFCURVE",
"112 240 OFFCURVE",
"248 240 CURVE SMOOTH",
"324 240 OFFCURVE",
"378 269 OFFCURVE",
"411 316 CURVE",
"413 201 OFFCURVE",
"360 131 OFFCURVE",
"251 131 CURVE SMOOTH",
"198 131 OFFCURVE",
"147 147 OFFCURVE",
"107 176 CURVE",
"39 50 LINE",
"98 15 OFFCURVE",
"185 -8 OFFCURVE",
"262 -8 CURVE SMOOTH"
);
},
{
closed = 1;
nodes = (
"225 371 OFFCURVE",
"190 407 OFFCURVE",
"190 467 CURVE SMOOTH",
"190 530 OFFCURVE",
"228 566 OFFCURVE",
"290 566 CURVE SMOOTH",
"360 566 OFFCURVE",
"392 521 OFFCURVE",
"391 470 CURVE SMOOTH",
"392 413 OFFCURVE",
"355 371 OFFCURVE",
"287 371 CURVE SMOOTH"
);
}
);
width = 617;
}
);
note = nine;
unicode = 0039;
},
{
glyphname = zero.lf;
layers = (
{
layerId = "E8BF2718-0C92-4E31-9FCE-6752C723AF07";
paths = (
{
closed = 1;
nodes = (
"152 706 OFFCURVE",
"41 579 OFFCURVE",
"41 351 CURVE SMOOTH",
"41 122 OFFCURVE",
"152 -5 OFFCURVE",
"352 -5 CURVE SMOOTH",
"552 -5 OFFCURVE",
"663 122 OFFCURVE",
"663 351 CURVE SMOOTH",
"663 579 OFFCURVE",
"552 706 OFFCURVE",
"352 706 CURVE SMOOTH"
);
},
{
closed = 1;
nodes = (
"437 570 OFFCURVE",
"475 508 OFFCURVE",
"475 351 CURVE SMOOTH",
"475 194 OFFCURVE",
"437 131 OFFCURVE",
"352 131 CURVE SMOOTH",
"265 131 OFFCURVE",
"228 194 OFFCURVE",
"228 351 CURVE SMOOTH",
"228 508 OFFCURVE",
"265 570 OFFCURVE",
"352 570 CURVE SMOOTH"
);
}
);
width = 704;
}
);
},
{
glyphname = one.lf;
layers = (
{
layerId = "E8BF2718-0C92-4E31-9FCE-6752C723AF07";
paths = (
{
closed = 1;
nodes = (
"319 0 LINE",
"319 701 LINE",
"7 701 LINE",
"7 551 LINE",
"135 551 LINE",
"135 0 LINE"
);
}
);
width = 414;
}
);
},
{
glyphname = two.lf;
layers = (
{
layerId = "E8BF2718-0C92-4E31-9FCE-6752C723AF07";
paths = (
{
closed = 1;
nodes = (
"206 708 OFFCURVE",
"110 669 OFFCURVE",
"20 603 CURVE",
"89 468 LINE",
"153 523 OFFCURVE",
"223 557 OFFCURVE",
"280 557 CURVE SMOOTH",
"328 557 OFFCURVE",
"356 536 OFFCURVE",
"356 498 CURVE SMOOTH",
"356 467 OFFCURVE",
"328 422 OFFCURVE",
"291 383 CURVE SMOOTH",
"41 120 LINE",
"41 0 LINE",
"567 0 LINE",
"567 147 LINE",
"276 147 LINE",
"415 290 LINE SMOOTH",
"492 369 OFFCURVE",
"548 448 OFFCURVE",
"548 524 CURVE SMOOTH",
"548 635 OFFCURVE",
"446 708 OFFCURVE",
"308 708 CURVE SMOOTH"
);
}
);
width = 601;
}
);
},
{
glyphname = three.lf;
layers = (
{
layerId = "E8BF2718-0C92-4E31-9FCE-6752C723AF07";
paths = (
{
closed = 1;
nodes = (
"325 418 LINE",
"497 593 LINE",
"497 699 LINE",
"32 699 LINE",
"32 558 LINE",
"285 558 LINE SMOOTH",
"131 401 LINE",
"131 303 LINE",
"245 303 LINE SMOOTH",
"313 303 OFFCURVE",
"350 275 OFFCURVE",
"350 219 CURVE SMOOTH",
"350 164 OFFCURVE",
"313 132 OFFCURVE",
"246 132 CURVE SMOOTH",
"183 132 OFFCURVE",
"123 162 OFFCURVE",
"71 219 CURVE",
"-3 78 LINE",
"62 26 OFFCURVE",
"163 -8 OFFCURVE",
"260 -8 CURVE SMOOTH",
"424 -8 OFFCURVE",
"529 86 OFFCURVE",
"529 220 CURVE SMOOTH",
"529 328 OFFCURVE",
"458 396 OFFCURVE",
"358 412 CURVE SMOOTH"
);
}
);
width = 560;
}
);
},
{
glyphname = four.lf;
layers = (
{
layerId = "E8BF2718-0C92-4E31-9FCE-6752C723AF07";
paths = (
{
closed = 1;
nodes = (
"247 701 LINE",
"27 275 LINE",
"27 151 LINE",
"359 151 LINE",
"359 0 LINE",
"529 0 LINE",
"529 151 LINE",
"623 151 LINE",
"623 291 LINE",
"529 291 LINE",
"529 438 LINE",
"359 438 LINE",
"359 291 LINE",
"215 291 LINE",
"422 701 LINE"
);
}
);
width = 636;
}
);
},
{
glyphname = five.lf;
layers = (
{
layerId = "E8BF2718-0C92-4E31-9FCE-6752C723AF07";
paths = (
{
closed = 1;
nodes = (
"72 701 LINE",
"72 301 LINE",
"115 304 OFFCURVE",
"228 305 OFFCURVE",
"264 305 CURVE SMOOTH",
"331 305 OFFCURVE",
"369 276 OFFCURVE",
"369 223 CURVE SMOOTH",
"369 166 OFFCURVE",
"331 134 OFFCURVE",
"263 134 CURVE SMOOTH",
"201 134 OFFCURVE",
"139 164 OFFCURVE",
"86 222 CURVE",
"13 80 LINE",
"87 27 OFFCURVE",
"193 -8 OFFCURVE",
"285 -8 CURVE SMOOTH",
"455 -8 OFFCURVE",
"566 88 OFFCURVE",
"566 236 CURVE SMOOTH",
"566 361 OFFCURVE",
"461 447 OFFCURVE",
"299 447 CURVE SMOOTH",
"286 447 OFFCURVE",
"255 447 OFFCURVE",
"240 446 CURVE",
"240 554 LINE",
"535 554 LINE",
"535 701 LINE"
);
}
);
width = 596;
}
);
},
{
glyphname = six.lf;
layers = (
{
layerId = "E8BF2718-0C92-4E31-9FCE-6752C723AF07";
paths = (
{
closed = 1;
nodes = (
"168 709 OFFCURVE",
"41 563 OFFCURVE",
"41 340 CURVE SMOOTH",
"41 125 OFFCURVE",
"156 -8 OFFCURVE",
"345 -8 CURVE SMOOTH",
"503 -8 OFFCURVE",
"607 86 OFFCURVE",
"607 234 CURVE SMOOTH",
"607 370 OFFCURVE",
"520 462 OFFCURVE",
"381 462 CURVE SMOOTH",
"305 462 OFFCURVE",
"250 434 OFFCURVE",
"217 390 CURVE",
"215 499 OFFCURVE",
"268 565 OFFCURVE",
"378 565 CURVE SMOOTH",
"432 565 OFFCURVE",
"484 549 OFFCURVE",
"524 519 CURVE",
"594 650 LINE",
"535 686 OFFCURVE",
"445 709 OFFCURVE",
"366 709 CURVE SMOOTH"
);
},
{
closed = 1;
nodes = (
"402 326 OFFCURVE",
"437 293 OFFCURVE",
"437 235 CURVE SMOOTH",
"437 174 OFFCURVE",
"399 141 OFFCURVE",
"337 141 CURVE SMOOTH",
"267 141 OFFCURVE",
"235 183 OFFCURVE",
"235 233 CURVE SMOOTH",
"235 287 OFFCURVE",
"273 326 OFFCURVE",
"340 326 CURVE SMOOTH"
);
}
);
width = 634;
}
);
leftMetricsKey = zero.lf;
},
{
glyphname = seven.lf;
layers = (
{
layerId = "E8BF2718-0C92-4E31-9FCE-6752C723AF07";
paths = (
{
closed = 1;
nodes = (
"32 701 LINE",
"32 456 LINE",
"194 456 LINE",
"194 554 LINE",
"379 554 LINE",
"131 0 LINE",
"324 0 LINE",
"581 574 LINE",
"581 701 LINE"
);
}
);
width = 597;
}
);
},
{
glyphname = eight.lf;
layers = (
{
layerId = "E8BF2718-0C92-4E31-9FCE-6752C723AF07";
paths = (
{
closed = 1;
nodes = (
"168 708 OFFCURVE",
"70 637 OFFCURVE",
"70 524 CURVE SMOOTH",
"70 465 OFFCURVE",
"107 408 OFFCURVE",
"166 375 CURVE",
"85 343 OFFCURVE",
"33 274 OFFCURVE",
"33 195 CURVE SMOOTH",
"33 71 OFFCURVE",
"146 -8 OFFCURVE",
"322 -8 CURVE SMOOTH",
"498 -8 OFFCURVE",
"610 72 OFFCURVE",
"610 198 CURVE SMOOTH",
"610 276 OFFCURVE",
"562 343 OFFCURVE",
"487 375 CURVE",
"540 405 OFFCURVE",
"574 460 OFFCURVE",
"574 519 CURVE SMOOTH",
"574 635 OFFCURVE",
"475 708 OFFCURVE",
"321 708 CURVE SMOOTH"
);
},
{
closed = 1;
nodes = (
"396 301 OFFCURVE",
"438 270 OFFCURVE",
"438 214 CURVE SMOOTH",
"438 157 OFFCURVE",
"396 127 OFFCURVE",
"322 127 CURVE SMOOTH",
"247 127 OFFCURVE",
"206 157 OFFCURVE",
"206 214 CURVE SMOOTH",
"206 270 OFFCURVE",
"247 301 OFFCURVE",
"321 301 CURVE SMOOTH"
);
},
{
closed = 1;
nodes = (
"385 586 OFFCURVE",
"420 559 OFFCURVE",
"420 509 CURVE SMOOTH",
"420 461 OFFCURVE",
"385 434 OFFCURVE",
"322 434 CURVE SMOOTH",
"259 434 OFFCURVE",
"224 461 OFFCURVE",
"224 509 CURVE SMOOTH",
"224 559 OFFCURVE",
"259 586 OFFCURVE",
"322 586 CURVE SMOOTH"
);
}
);
width = 643;
}
);
},
{
glyphname = zero.osf;
layers = (
{
layerId = "E8BF2718-0C92-4E31-9FCE-6752C723AF07";
paths = (
{
closed = 1;
nodes = (
"165 606 OFFCURVE",
"41 484 OFFCURVE",
"41 301 CURVE SMOOTH",
"41 117 OFFCURVE",
"165 -5 OFFCURVE",
"352 -5 CURVE SMOOTH",
"539 -5 OFFCURVE",
"663 117 OFFCURVE",
"663 301 CURVE SMOOTH",
"663 484 OFFCURVE",
"539 606 OFFCURVE",
"352 606 CURVE SMOOTH"
);
},
{
closed = 1;
nodes = (
"427 468 OFFCURVE",
"475 405 OFFCURVE",
"475 301 CURVE SMOOTH",
"475 196 OFFCURVE",
"427 133 OFFCURVE",
"352 133 CURVE SMOOTH",
"277 133 OFFCURVE",
"228 196 OFFCURVE",
"228 301 CURVE SMOOTH",
"228 405 OFFCURVE",
"277 468 OFFCURVE",
"352 468 CURVE SMOOTH"
);
}
);
width = 704;
}
);
},
{
glyphname = one.osf;
layers = (
{
layerId = "E8BF2718-0C92-4E31-9FCE-6752C723AF07";
paths = (
{
closed = 1;
nodes = (
"319 0 LINE",
"319 601 LINE",
"7 601 LINE",
"7 451 LINE",
"135 451 LINE",
"135 0 LINE"
);
}
);
width = 414;
}
);
},
{
glyphname = two.osf;
layers = (
{
layerId = "E8BF2718-0C92-4E31-9FCE-6752C723AF07";
paths = (
{
closed = 1;
nodes = (
"191 609 OFFCURVE",
"104 574 OFFCURVE",
"20 516 CURVE",
"88 382 LINE",
"147 428 OFFCURVE",
"208 459 OFFCURVE",
"257 459 CURVE SMOOTH",
"292 459 OFFCURVE",
"311 445 OFFCURVE",
"311 420 CURVE SMOOTH",
"311 398 OFFCURVE",
"289 366 OFFCURVE",
"260 337 CURVE SMOOTH",
"41 118 LINE",
"41 0 LINE",
"516 0 LINE",
"516 146 LINE",
"277 146 LINE",
"385 246 LINE",
"453 312 OFFCURVE",
"503 379 OFFCURVE",
"503 448 CURVE SMOOTH",
"503 545 OFFCURVE",
"411 609 OFFCURVE",
"286 609 CURVE SMOOTH"
);
}
);
width = 550;
}
);
leftMetricsKey = two.lf;
rightMetricsKey = two.lf;
},
{
glyphname = three.osf;
layers = (
{
layerId = "E8BF2718-0C92-4E31-9FCE-6752C723AF07";
paths = (
{
closed = 1;
nodes = (
"325 318 LINE",
"497 493 LINE",
"497 599 LINE",
"32 599 LINE",
"32 458 LINE",
"285 458 LINE SMOOTH",
"131 302 LINE",
"131 203 LINE",
"246 203 LINE SMOOTH",
"313 203 OFFCURVE",
"350 175 OFFCURVE",
"350 119 CURVE SMOOTH",
"350 64 OFFCURVE",
"313 32 OFFCURVE",
"246 32 CURVE SMOOTH",
"184 32 OFFCURVE",
"123 62 OFFCURVE",
"71 119 CURVE",
"-3 -22 LINE",
"62 -74 OFFCURVE",
"163 -108 OFFCURVE",
"260 -108 CURVE SMOOTH",
"424 -108 OFFCURVE",
"530 -14 OFFCURVE",
"530 121 CURVE SMOOTH",
"530 228 OFFCURVE",
"458 296 OFFCURVE",
"358 312 CURVE SMOOTH"
);
}
);
width = 560;
}
);
},
{
glyphname = four.osf;
layers = (
{
layerId = "E8BF2718-0C92-4E31-9FCE-6752C723AF07";
paths = (
{
closed = 1;
nodes = (
"247 601 LINE",
"27 175 LINE",
"27 51 LINE",
"359 51 LINE",
"359 -100 LINE",
"529 -100 LINE",
"529 51 LINE",
"623 51 LINE",
"623 191 LINE",
"529 191 LINE",
"529 339 LINE",
"359 339 LINE",
"359 191 LINE",
"215 191 LINE",
"422 601 LINE"
);
}
);
width = 636;
}
);
},
{
glyphname = five.osf;
layers = (
{
layerId = "E8BF2718-0C92-4E31-9FCE-6752C723AF07";
paths = (
{
closed = 1;
nodes = (
"72 601 LINE",
"72 202 LINE",
"115 204 OFFCURVE",
"228 205 OFFCURVE",
"264 205 CURVE SMOOTH",
"331 205 OFFCURVE",
"369 176 OFFCURVE",
"369 123 CURVE SMOOTH",
"369 66 OFFCURVE",
"331 34 OFFCURVE",
"263 34 CURVE SMOOTH",
"201 34 OFFCURVE",
"138 64 OFFCURVE",
"86 122 CURVE",
"13 -20 LINE",
"87 -73 OFFCURVE",
"193 -108 OFFCURVE",
"285 -108 CURVE SMOOTH",
"455 -108 OFFCURVE",
"566 -12 OFFCURVE",
"566 136 CURVE SMOOTH",
"566 261 OFFCURVE",
"461 347 OFFCURVE",
"299 347 CURVE SMOOTH",
"286 347 OFFCURVE",
"254 347 OFFCURVE",
"240 346 CURVE",
"240 453 LINE",
"535 453 LINE",
"534 601 LINE"
);
}
);
width = 596;
}
);
},
{
glyphname = six.osf;
layers = (
{
layerId = "E8BF2718-0C92-4E31-9FCE-6752C723AF07";
paths = (
{
closed = 1;
nodes = (
"168 709 OFFCURVE",
"41 563 OFFCURVE",
"41 340 CURVE SMOOTH",
"41 125 OFFCURVE",
"156 -8 OFFCURVE",
"345 -8 CURVE SMOOTH",
"503 -8 OFFCURVE",
"607 86 OFFCURVE",
"607 234 CURVE SMOOTH",
"607 370 OFFCURVE",
"520 462 OFFCURVE",
"381 462 CURVE SMOOTH",
"305 462 OFFCURVE",
"250 434 OFFCURVE",
"217 390 CURVE",
"215 499 OFFCURVE",
"268 565 OFFCURVE",
"378 565 CURVE SMOOTH",
"432 565 OFFCURVE",
"484 549 OFFCURVE",
"524 519 CURVE",
"594 650 LINE",
"535 686 OFFCURVE",
"445 709 OFFCURVE",
"366 709 CURVE SMOOTH"
);
},
{
closed = 1;
nodes = (
"402 326 OFFCURVE",
"437 293 OFFCURVE",
"437 235 CURVE SMOOTH",
"437 174 OFFCURVE",
"399 141 OFFCURVE",
"337 141 CURVE SMOOTH",
"267 141 OFFCURVE",
"235 183 OFFCURVE",
"235 233 CURVE SMOOTH",
"235 287 OFFCURVE",
"273 326 OFFCURVE",
"340 326 CURVE SMOOTH"
);
}
);
width = 634;
}
);
leftMetricsKey = zero.lf;
},
{
glyphname = seven.osf;
layers = (
{
layerId = "E8BF2718-0C92-4E31-9FCE-6752C723AF07";
paths = (
{
closed = 1;
nodes = (
"32 601 LINE",
"32 355 LINE",
"193 355 LINE",
"194 453 LINE",
"379 453 LINE",
"130 -100 LINE",
"324 -100 LINE",
"581 474 LINE",
"581 601 LINE"
);
}
);
width = 597;
}
);
},
{
glyphname = eight.osf;
layers = (
{
layerId = "E8BF2718-0C92-4E31-9FCE-6752C723AF07";
paths = (
{
closed = 1;
nodes = (
"168 708 OFFCURVE",
"70 637 OFFCURVE",
"70 524 CURVE SMOOTH",
"70 465 OFFCURVE",
"107 408 OFFCURVE",
"166 375 CURVE",
"85 343 OFFCURVE",
"33 274 OFFCURVE",
"33 195 CURVE SMOOTH",
"33 71 OFFCURVE",
"146 -8 OFFCURVE",
"322 -8 CURVE SMOOTH",
"498 -8 OFFCURVE",
"610 72 OFFCURVE",
"610 198 CURVE SMOOTH",
"610 276 OFFCURVE",
"562 343 OFFCURVE",
"487 375 CURVE",
"540 405 OFFCURVE",
"574 460 OFFCURVE",
"574 519 CURVE SMOOTH",
"574 635 OFFCURVE",
"475 708 OFFCURVE",
"321 708 CURVE SMOOTH"
);
},
{
closed = 1;
nodes = (
"396 301 OFFCURVE",
"438 270 OFFCURVE",
"438 214 CURVE SMOOTH",
"438 157 OFFCURVE",
"396 127 OFFCURVE",
"322 127 CURVE SMOOTH",
"247 127 OFFCURVE",
"206 157 OFFCURVE",
"206 214 CURVE SMOOTH",
"206 270 OFFCURVE",
"247 301 OFFCURVE",
"321 301 CURVE SMOOTH"
);
},
{
closed = 1;
nodes = (
"385 586 OFFCURVE",
"420 559 OFFCURVE",
"420 509 CURVE SMOOTH",
"420 461 OFFCURVE",
"385 434 OFFCURVE",
"322 434 CURVE SMOOTH",
"259 434 OFFCURVE",
"224 461 OFFCURVE",
"224 509 CURVE SMOOTH",
"224 559 OFFCURVE",
"259 586 OFFCURVE",
"322 586 CURVE SMOOTH"
);
}
);
width = 643;
}
);
},
{
glyphname = zero.tosf;
layers = (
{
layerId = "E8BF2718-0C92-4E31-9FCE-6752C723AF07";
paths = (
{
closed = 1;
nodes = (
"140 606 OFFCURVE",
"28 484 OFFCURVE",
"28 301 CURVE SMOOTH",
"28 118 OFFCURVE",
"140 -5 OFFCURVE",
"309 -5 CURVE SMOOTH",
"478 -5 OFFCURVE",
"590 118 OFFCURVE",
"590 301 CURVE SMOOTH",
"590 484 OFFCURVE",
"478 606 OFFCURVE",
"309 606 CURVE SMOOTH"
);
},
{
closed = 1;
nodes = (
"376 479 OFFCURVE",
"421 411 OFFCURVE",
"421 301 CURVE SMOOTH",
"421 190 OFFCURVE",
"376 122 OFFCURVE",
"308 122 CURVE SMOOTH",
"241 122 OFFCURVE",
"196 190 OFFCURVE",
"196 301 CURVE SMOOTH",
"196 411 OFFCURVE",
"241 479 OFFCURVE",
"308 479 CURVE SMOOTH"
);
}
);
width = 617;
}
);
userData = {
RMXScaler = {
source = zero.osf;
};
};
},
{
glyphname = one.tosf;
layers = (
{
layerId = "E8BF2718-0C92-4E31-9FCE-6752C723AF07";
paths = (
{
closed = 1;
nodes = (
"416 0 LINE",
"416 601 LINE",
"98 601 LINE",
"98 451 LINE",
"233 451 LINE",
"233 0 LINE"
);
}
);
width = 617;
}
);
userData = {
RMXScaler = {
source = one.osf;
};
};
},
{
glyphname = two.tosf;
layers = (
{
layerId = "E8BF2718-0C92-4E31-9FCE-6752C723AF07";
paths = (
{
closed = 1;
nodes = (
"218 610 OFFCURVE",
"125 575 OFFCURVE",
"37 517 CURVE",
"106 382 LINE",
"168 429 OFFCURVE",
"235 460 OFFCURVE",
"289 460 CURVE SMOOTH",
"333 460 OFFCURVE",
"357 446 OFFCURVE",
"357 421 CURVE SMOOTH",
"357 399 OFFCURVE",
"332 367 OFFCURVE",
"298 337 CURVE SMOOTH",
"58 119 LINE",
"58 0 LINE",
"567 0 LINE",
"567 147 LINE",
"294 147 LINE",
"422 246 LINE",
"496 313 OFFCURVE",
"549 380 OFFCURVE",
"549 449 CURVE SMOOTH",
"549 545 OFFCURVE",
"451 610 OFFCURVE",
"317 610 CURVE SMOOTH"
);
}
);
width = 617;
}
);
userData = {
RMXScaler = {
source = two.osf;
};
};
},
{
glyphname = three.tosf;
layers = (
{
layerId = "E8BF2718-0C92-4E31-9FCE-6752C723AF07";
paths = (
{
closed = 1;
nodes = (
"346 318 LINE",
"536 494 LINE",
"536 600 LINE",
"46 600 LINE",
"47 459 LINE",
"316 459 LINE",
"153 302 LINE",
"153 204 LINE",
"271 204 LINE SMOOTH",
"348 204 OFFCURVE",
"391 175 OFFCURVE",
"391 119 CURVE SMOOTH",
"391 64 OFFCURVE",
"349 32 OFFCURVE",
"272 32 CURVE SMOOTH",
"204 32 OFFCURVE",
"139 62 OFFCURVE",
"84 119 CURVE",
"10 -22 LINE",
"78 -74 OFFCURVE",
"184 -108 OFFCURVE",
"286 -108 CURVE SMOOTH",
"460 -108 OFFCURVE",
"570 -14 OFFCURVE",
"570 121 CURVE SMOOTH",
"570 228 OFFCURVE",
"493 296 OFFCURVE",
"382 313 CURVE SMOOTH"
);
}
);
width = 617;
}
);
},
{
glyphname = four.tosf;
layers = (
{
layerId = "E8BF2718-0C92-4E31-9FCE-6752C723AF07";
paths = (
{
closed = 1;
nodes = (
"236 602 LINE",
"28 175 LINE",
"28 52 LINE",
"345 52 LINE",
"345 -100 LINE",
"513 -100 LINE",
"513 52 LINE",
"603 52 LINE",
"603 191 LINE",
"513 191 LINE",
"513 339 LINE",
"345 339 LINE",
"345 191 LINE",
"214 191 LINE",
"409 602 LINE"
);
}
);
width = 617;
}
);
},
{
glyphname = five.tosf;
layers = (
{
layerId = "E8BF2718-0C92-4E31-9FCE-6752C723AF07";
paths = (
{
closed = 1;
nodes = (
"78 602 LINE",
"78 202 LINE",
"122 205 OFFCURVE",
"237 206 OFFCURVE",
"274 206 CURVE SMOOTH",
"344 206 OFFCURVE",
"383 176 OFFCURVE",
"383 123 CURVE SMOOTH",
"383 66 OFFCURVE",
"344 34 OFFCURVE",
"273 34 CURVE SMOOTH",
"208 34 OFFCURVE",
"145 64 OFFCURVE",
"90 122 CURVE",
"17 -20 LINE",
"92 -73 OFFCURVE",
"200 -108 OFFCURVE",
"294 -108 CURVE SMOOTH",
"468 -108 OFFCURVE",
"580 -12 OFFCURVE",
"580 136 CURVE SMOOTH",
"580 261 OFFCURVE",
"474 348 OFFCURVE",
"308 348 CURVE SMOOTH",
"295 348 OFFCURVE",
"261 348 OFFCURVE",
"246 347 CURVE",
"246 454 LINE",
"549 454 LINE",
"549 602 LINE"
);
}
);
width = 617;
}
);
},
{
glyphname = six.tosf;
layers = (
{
layerId = "E8BF2718-0C92-4E31-9FCE-6752C723AF07";
paths = (
{
closed = 1;
nodes = (
"163 709 OFFCURVE",
"38 564 OFFCURVE",
"38 340 CURVE SMOOTH",
"38 125 OFFCURVE",
"151 -8 OFFCURVE",
"336 -8 CURVE SMOOTH",
"491 -8 OFFCURVE",
"594 86 OFFCURVE",
"594 234 CURVE SMOOTH",
"594 371 OFFCURVE",
"507 461 OFFCURVE",
"371 461 CURVE SMOOTH",
"295 461 OFFCURVE",
"240 433 OFFCURVE",
"207 386 CURVE",
"205 500 OFFCURVE",
"259 570 OFFCURVE",
"367 570 CURVE SMOOTH",
"421 570 OFFCURVE",
"473 554 OFFCURVE",
"512 525 CURVE",
"580 651 LINE",
"522 687 OFFCURVE",
"434 709 OFFCURVE",
"357 709 CURVE SMOOTH"
);
},
{
closed = 1;
nodes = (
"393 330 OFFCURVE",
"429 294 OFFCURVE",
"429 235 CURVE SMOOTH",
"429 171 OFFCURVE",
"391 136 OFFCURVE",
"329 136 CURVE SMOOTH",
"258 136 OFFCURVE",
"226 181 OFFCURVE",
"226 232 CURVE SMOOTH",
"226 289 OFFCURVE",
"264 330 OFFCURVE",
"331 330 CURVE SMOOTH"
);
}
);
width = 617;
}
);
},
{
glyphname = seven.tosf;
layers = (
{
layerId = "E8BF2718-0C92-4E31-9FCE-6752C723AF07";
paths = (
{
closed = 1;
nodes = (
"37 602 LINE",
"37 356 LINE",
"199 356 LINE",
"199 454 LINE",
"394 454 LINE",
"139 -100 LINE",
"332 -100 LINE",
"596 475 LINE",
"596 602 LINE"
);
}
);
width = 617;
}
);
},
{
glyphname = eight.tosf;
layers = (
{
layerId = "E8BF2718-0C92-4E31-9FCE-6752C723AF07";
paths = (
{
closed = 1;
nodes = (
"159 710 OFFCURVE",
"63 638 OFFCURVE",
"63 525 CURVE SMOOTH",
"63 466 OFFCURVE",
"99 409 OFFCURVE",
"155 376 CURVE",
"77 343 OFFCURVE",
"27 274 OFFCURVE",
"27 195 CURVE SMOOTH",
"27 71 OFFCURVE",
"137 -8 OFFCURVE",
"309 -8 CURVE SMOOTH",
"481 -8 OFFCURVE",
"591 72 OFFCURVE",
"591 198 CURVE SMOOTH",
"591 276 OFFCURVE",
"545 343 OFFCURVE",
"471 376 CURVE",
"523 406 OFFCURVE",
"555 461 OFFCURVE",
"555 520 CURVE SMOOTH",
"555 636 OFFCURVE",
"459 710 OFFCURVE",
"308 710 CURVE SMOOTH"
);
},
{
closed = 1;
nodes = (
"379 301 OFFCURVE",
"420 270 OFFCURVE",
"420 214 CURVE SMOOTH",
"420 157 OFFCURVE",
"379 126 OFFCURVE",
"308 126 CURVE SMOOTH",
"237 126 OFFCURVE",
"198 157 OFFCURVE",
"198 214 CURVE SMOOTH",
"198 270 OFFCURVE",
"237 301 OFFCURVE",
"308 301 CURVE SMOOTH"
);
},
{
closed = 1;
nodes = (
"369 587 OFFCURVE",
"402 560 OFFCURVE",
"402 510 CURVE SMOOTH",
"402 462 OFFCURVE",
"369 435 OFFCURVE",
"309 435 CURVE SMOOTH",
"249 435 OFFCURVE",
"215 462 OFFCURVE",
"215 510 CURVE SMOOTH",
"215 560 OFFCURVE",
"249 587 OFFCURVE",
"309 587 CURVE SMOOTH"
);
}
);
width = 617;
}
);
},
{
glyphname = nine.tosf;
layers = (
{
layerId = "E8BF2718-0C92-4E31-9FCE-6752C723AF07";
paths = (
{
closed = 1;
nodes = (
"456 -108 OFFCURVE",
"580 38 OFFCURVE",
"580 262 CURVE SMOOTH",
"580 477 OFFCURVE",
"468 609 OFFCURVE",
"283 609 CURVE SMOOTH",
"128 609 OFFCURVE",
"26 516 OFFCURVE",
"26 368 CURVE SMOOTH",
"26 231 OFFCURVE",
"112 140 OFFCURVE",
"248 140 CURVE SMOOTH",
"324 140 OFFCURVE",
"378 169 OFFCURVE",
"411 216 CURVE",
"413 101 OFFCURVE",
"360 31 OFFCURVE",
"251 31 CURVE SMOOTH",
"198 31 OFFCURVE",
"146 47 OFFCURVE",
"107 76 CURVE",
"39 -50 LINE",
"98 -85 OFFCURVE",
"185 -108 OFFCURVE",
"261 -108 CURVE SMOOTH"
);
},
{
closed = 1;
nodes = (
"225 271 OFFCURVE",
"190 307 OFFCURVE",
"190 367 CURVE SMOOTH",
"190 430 OFFCURVE",
"228 466 OFFCURVE",
"289 466 CURVE SMOOTH",
"359 466 OFFCURVE",
"391 421 OFFCURVE",
"391 370 CURVE SMOOTH",
"391 313 OFFCURVE",
"354 271 OFFCURVE",
"287 271 CURVE SMOOTH"
);
}
);
width = 617;
}
);
},
{
glyphname = zero.dnom;
layers = (
{
layerId = "E8BF2718-0C92-4E31-9FCE-6752C723AF07";
paths = (
{
closed = 1;
nodes = (
"107 421 OFFCURVE",
"31 339 OFFCURVE",
"31 209 CURVE SMOOTH",
"31 78 OFFCURVE",
"107 -4 OFFCURVE",
"227 -4 CURVE SMOOTH",
"348 -4 OFFCURVE",
"423 78 OFFCURVE",
"423 209 CURVE SMOOTH",
"423 339 OFFCURVE",
"348 421 OFFCURVE",
"227 421 CURVE SMOOTH"
);
},
{
closed = 1;
nodes = (
"279 324 OFFCURVE",
"310 281 OFFCURVE",
"310 209 CURVE SMOOTH",
"310 137 OFFCURVE",
"279 93 OFFCURVE",
"227 93 CURVE SMOOTH",
"175 93 OFFCURVE",
"144 137 OFFCURVE",
"144 209 CURVE SMOOTH",
"144 281 OFFCURVE",
"175 324 OFFCURVE",
"227 324 CURVE SMOOTH"
);
}
);
width = 454;
}
);
},
{
glyphname = one.dnom;
layers = (
{
layerId = "E8BF2718-0C92-4E31-9FCE-6752C723AF07";
paths = (
{
closed = 1;
nodes = (
"213 418 LINE",
"9 418 LINE",
"9 320 LINE",
"88 320 LINE",
"88 0 LINE",
"213 0 LINE"
);
}
);
width = 276;
}
);
},
{
glyphname = two.dnom;
layers = (
{
layerId = "E8BF2718-0C92-4E31-9FCE-6752C723AF07";
paths = (
{
closed = 1;
nodes = (
"137 422 OFFCURVE",
"75 399 OFFCURVE",
"17 358 CURVE",
"64 270 LINE",
"105 303 OFFCURVE",
"149 323 OFFCURVE",
"182 323 CURVE",
"209 323 OFFCURVE",
"223 313 OFFCURVE",
"223 294 CURVE",
"223 277 OFFCURVE",
"207 253 OFFCURVE",
"186 231 CURVE SMOOTH",
"32 77 LINE",
"32 0 LINE",
"364 0 LINE",
"364 94 LINE",
"191 94 LINE",
"271 172 LINE SMOOTH",
"320 218 OFFCURVE",
"354 265 OFFCURVE",
"354 312 CURVE",
"354 378 OFFCURVE",
"290 422 OFFCURVE",
"202 422 CURVE"
);
}
);
width = 389;
}
);
},
{
glyphname = three.dnom;
layers = (
{
layerId = "E8BF2718-0C92-4E31-9FCE-6752C723AF07";
paths = (
{
closed = 1;
nodes = (
"220 250 LINE",
"322 347 LINE",
"322 416 LINE",
"26 416 LINE",
"26 327 LINE",
"181 327 LINE",
"88 240 LINE",
"88 175 LINE",
"162 175 LINE SMOOTH",
"199 175 OFFCURVE",
"220 161 OFFCURVE",
"220 131 CURVE SMOOTH",
"220 102 OFFCURVE",
"199 85 OFFCURVE",
"162 85 CURVE SMOOTH",
"123 85 OFFCURVE",
"86 104 OFFCURVE",
"54 141 CURVE",
"4 48 LINE",
"44 16 OFFCURVE",
"110 -5 OFFCURVE",
"172 -5 CURVE SMOOTH",
"276 -5 OFFCURVE",
"342 52 OFFCURVE",
"342 132 CURVE SMOOTH",
"342 195 OFFCURVE",
"299 236 OFFCURVE",
"240 246 CURVE SMOOTH"
);
}
);
width = 366;
}
);
},
{
glyphname = four.dnom;
layers = (
{
layerId = "E8BF2718-0C92-4E31-9FCE-6752C723AF07";
paths = (
{
closed = 1;
nodes = (
"276 418 LINE",
"156 418 LINE",
"23 167 LINE",
"23 86 LINE",
"230 86 LINE",
"230 0 LINE",
"346 0 LINE",
"346 86 LINE",
"404 86 LINE",
"404 173 LINE",
"346 173 LINE",
"346 260 LINE",
"230 260 LINE",
"230 173 LINE",
"150 173 LINE"
);
}
);
width = 416;
}
);
},
{
glyphname = five.dnom;
layers = (
{
layerId = "E8BF2718-0C92-4E31-9FCE-6752C723AF07";
paths = (
{
closed = 1;
nodes = (
"344 418 LINE",
"50 418 LINE",
"50 173 LINE",
"76 175 OFFCURVE",
"150 176 OFFCURVE",
"170 176 CURVE",
"208 176 OFFCURVE",
"229 161 OFFCURVE",
"229 133 CURVE",
"229 102 OFFCURVE",
"208 86 OFFCURVE",
"171 86 CURVE",
"132 86 OFFCURVE",
"94 105 OFFCURVE",
"62 142 CURVE",
"12 48 LINE",
"58 16 OFFCURVE",
"127 -5 OFFCURVE",
"186 -5 CURVE",
"294 -5 OFFCURVE",
"364 53 OFFCURVE",
"364 141 CURVE",
"364 217 OFFCURVE",
"298 265 OFFCURVE",
"195 265 CURVE",
"189 265 OFFCURVE",
"172 264 OFFCURVE",
"165 263 CURVE",
"165 323 LINE",
"344 323 LINE"
);
}
);
width = 388;
}
);
},
{
glyphname = six.dnom;
layers = (
{
layerId = "E8BF2718-0C92-4E31-9FCE-6752C723AF07";
paths = (
{
closed = 1;
nodes = (
"112 422 OFFCURVE",
"31 336 OFFCURVE",
"31 203 CURVE SMOOTH",
"31 75 OFFCURVE",
"104 -5 OFFCURVE",
"223 -5 CURVE SMOOTH",
"324 -5 OFFCURVE",
"390 51 OFFCURVE",
"390 140 CURVE SMOOTH",
"390 221 OFFCURVE",
"334 276 OFFCURVE",
"249 276 CURVE SMOOTH",
"202 276 OFFCURVE",
"169 259 OFFCURVE",
"151 235 CURVE",
"149 296 OFFCURVE",
"182 328 OFFCURVE",
"245 328 CURVE SMOOTH",
"280 328 OFFCURVE",
"311 319 OFFCURVE",
"335 301 CURVE",
"383 387 LINE",
"346 409 OFFCURVE",
"288 422 OFFCURVE",
"238 422 CURVE SMOOTH"
);
},
{
closed = 1;
nodes = (
"254 188 OFFCURVE",
"273 171 OFFCURVE",
"273 141 CURVE SMOOTH",
"273 109 OFFCURVE",
"254 93 OFFCURVE",
"218 93 CURVE SMOOTH",
"181 93 OFFCURVE",
"163 112 OFFCURVE",
"163 139 CURVE",
"163 169 OFFCURVE",
"183 188 OFFCURVE",
"220 188 CURVE SMOOTH"
);
}
);
width = 411;
}
);
},
{
glyphname = seven.dnom;
layers = (
{
layerId = "E8BF2718-0C92-4E31-9FCE-6752C723AF07";
paths = (
{
closed = 1;
nodes = (
"375 418 LINE",
"26 418 LINE",
"26 264 LINE",
"136 264 LINE",
"136 323 LINE",
"237 323 LINE",
"86 0 LINE",
"218 0 LINE",
"375 335 LINE"
);
}
);
width = 389;
}
);
},
{
glyphname = eight.dnom;
layers = (
{
layerId = "E8BF2718-0C92-4E31-9FCE-6752C723AF07";
paths = (
{
closed = 1;
nodes = (
"111 422 OFFCURVE",
"48 379 OFFCURVE",
"48 312 CURVE SMOOTH",
"48 278 OFFCURVE",
"70 244 OFFCURVE",
"105 223 CURVE",
"56 204 OFFCURVE",
"25 162 OFFCURVE",
"25 116 CURVE SMOOTH",
"25 43 OFFCURVE",
"96 -5 OFFCURVE",
"208 -5 CURVE SMOOTH",
"320 -5 OFFCURVE",
"391 43 OFFCURVE",
"391 118 CURVE SMOOTH",
"391 163 OFFCURVE",
"362 204 OFFCURVE",
"317 223 CURVE",
"348 242 OFFCURVE",
"368 275 OFFCURVE",
"368 308 CURVE SMOOTH",
"368 378 OFFCURVE",
"305 422 OFFCURVE",
"207 422 CURVE SMOOTH"
);
},
{
closed = 1;
nodes = (
"251 175 OFFCURVE",
"274 158 OFFCURVE",
"274 129 CURVE SMOOTH",
"274 99 OFFCURVE",
"251 83 OFFCURVE",
"209 83 CURVE SMOOTH",
"166 83 OFFCURVE",
"144 99 OFFCURVE",
"144 129 CURVE SMOOTH",
"144 158 OFFCURVE",
"167 175 OFFCURVE",
"208 175 CURVE SMOOTH"
);
},
{
closed = 1;
nodes = (
"244 343 OFFCURVE",
"263 328 OFFCURVE",
"263 302 CURVE SMOOTH",
"263 276 OFFCURVE",
"244 262 OFFCURVE",
"208 262 CURVE SMOOTH",
"172 262 OFFCURVE",
"153 276 OFFCURVE",
"153 302 CURVE SMOOTH",
"153 328 OFFCURVE",
"172 343 OFFCURVE",
"208 343 CURVE SMOOTH"
);
}
);
width = 417;
}
);
},
{
glyphname = nine.dnom;
layers = (
{
layerId = "E8BF2718-0C92-4E31-9FCE-6752C723AF07";
paths = (
{
closed = 1;
nodes = (
"300 -5 OFFCURVE",
"382 81 OFFCURVE",
"382 214 CURVE SMOOTH",
"382 342 OFFCURVE",
"309 422 OFFCURVE",
"190 422 CURVE SMOOTH",
"89 422 OFFCURVE",
"23 366 OFFCURVE",
"23 278 CURVE SMOOTH",
"23 196 OFFCURVE",
"78 141 OFFCURVE",
"163 141 CURVE SMOOTH",
"211 141 OFFCURVE",
"244 159 OFFCURVE",
"262 182 CURVE",
"264 121 OFFCURVE",
"231 89 OFFCURVE",
"168 89 CURVE SMOOTH",
"133 89 OFFCURVE",
"102 98 OFFCURVE",
"78 116 CURVE",
"30 31 LINE",
"67 8 OFFCURVE",
"124 -5 OFFCURVE",
"175 -5 CURVE SMOOTH"
);
},
{
closed = 1;
nodes = (
"158 230 OFFCURVE",
"139 247 OFFCURVE",
"139 277 CURVE SMOOTH",
"139 309 OFFCURVE",
"159 325 OFFCURVE",
"194 325 CURVE SMOOTH",
"232 325 OFFCURVE",
"249 306 OFFCURVE",
"249 277 CURVE",
"249 248 OFFCURVE",
"229 230 OFFCURVE",
"193 230 CURVE SMOOTH"
);
}
);
width = 412;
}
);
},
{
glyphname = zero.numr;
layers = (
{
layerId = "E8BF2718-0C92-4E31-9FCE-6752C723AF07";
paths = (
{
closed = 1;
nodes = (
"107 704 OFFCURVE",
"31 622 OFFCURVE",
"31 492 CURVE SMOOTH",
"31 361 OFFCURVE",
"107 279 OFFCURVE",
"227 279 CURVE SMOOTH",
"348 279 OFFCURVE",
"423 361 OFFCURVE",
"423 492 CURVE SMOOTH",
"423 622 OFFCURVE",
"348 704 OFFCURVE",
"227 704 CURVE SMOOTH"
);
},
{
closed = 1;
nodes = (
"279 607 OFFCURVE",
"310 563 OFFCURVE",
"310 492 CURVE SMOOTH",
"310 420 OFFCURVE",
"279 376 OFFCURVE",
"227 376 CURVE SMOOTH",
"175 376 OFFCURVE",
"144 420 OFFCURVE",
"144 492 CURVE SMOOTH",
"144 563 OFFCURVE",
"175 607 OFFCURVE",
"227 607 CURVE SMOOTH"
);
}
);
width = 454;
}
);
},
{
glyphname = one.numr;
layers = (
{
layerId = "E8BF2718-0C92-4E31-9FCE-6752C723AF07";
paths = (
{
closed = 1;
nodes = (
"213 701 LINE",
"9 701 LINE",
"9 603 LINE",
"88 603 LINE",
"88 283 LINE",
"213 283 LINE"
);
}
);
width = 276;
}
);
},
{
glyphname = two.numr;
layers = (
{
layerId = "E8BF2718-0C92-4E31-9FCE-6752C723AF07";
paths = (
{
closed = 1;
nodes = (
"137 705 OFFCURVE",
"75 681 OFFCURVE",
"17 641 CURVE",
"64 553 LINE",
"105 586 OFFCURVE",
"149 606 OFFCURVE",
"182 606 CURVE",
"209 606 OFFCURVE",
"223 596 OFFCURVE",
"223 577 CURVE",
"223 560 OFFCURVE",
"207 536 OFFCURVE",
"186 514 CURVE SMOOTH",
"32 360 LINE",
"32 283 LINE",
"364 283 LINE",
"364 377 LINE",
"191 377 LINE",
"271 454 LINE SMOOTH",
"320 501 OFFCURVE",
"354 547 OFFCURVE",
"354 594 CURVE",
"354 661 OFFCURVE",
"290 705 OFFCURVE",
"202 705 CURVE"
);
}
);
width = 389;
}
);
},
{
glyphname = three.numr;
layers = (
{
layerId = "E8BF2718-0C92-4E31-9FCE-6752C723AF07";
paths = (
{
closed = 1;
nodes = (
"220 533 LINE",
"322 630 LINE",
"322 699 LINE",
"26 699 LINE",
"26 610 LINE",
"181 610 LINE",
"88 523 LINE",
"88 458 LINE",
"162 458 LINE SMOOTH",
"199 458 OFFCURVE",
"220 443 OFFCURVE",
"220 414 CURVE SMOOTH",
"220 385 OFFCURVE",
"199 368 OFFCURVE",
"162 368 CURVE SMOOTH",
"123 368 OFFCURVE",
"86 387 OFFCURVE",
"54 423 CURVE",
"4 330 LINE",
"44 298 OFFCURVE",
"110 277 OFFCURVE",
"172 277 CURVE SMOOTH",
"276 277 OFFCURVE",
"342 334 OFFCURVE",
"342 414 CURVE SMOOTH",
"342 478 OFFCURVE",
"299 519 OFFCURVE",
"240 529 CURVE SMOOTH"
);
}
);
width = 366;
}
);
},
{
glyphname = four.numr;
layers = (
{
layerId = "E8BF2718-0C92-4E31-9FCE-6752C723AF07";
paths = (
{
closed = 1;
nodes = (
"276 701 LINE",
"156 701 LINE",
"23 450 LINE",
"23 368 LINE",
"230 368 LINE",
"230 283 LINE",
"346 283 LINE",
"346 368 LINE",
"404 368 LINE",
"404 456 LINE",
"346 456 LINE",
"346 543 LINE",
"230 543 LINE",
"230 456 LINE",
"150 456 LINE"
);
}
);
width = 416;
}
);
},
{
glyphname = five.numr;
layers = (
{
layerId = "E8BF2718-0C92-4E31-9FCE-6752C723AF07";
paths = (
{
closed = 1;
nodes = (
"344 701 LINE",
"50 701 LINE",
"50 456 LINE",
"76 458 OFFCURVE",
"150 458 OFFCURVE",
"170 458 CURVE",
"208 458 OFFCURVE",
"229 443 OFFCURVE",
"229 416 CURVE",
"229 385 OFFCURVE",
"208 368 OFFCURVE",
"171 368 CURVE",
"132 368 OFFCURVE",
"94 387 OFFCURVE",
"62 425 CURVE",
"12 331 LINE",
"58 299 OFFCURVE",
"127 278 OFFCURVE",
"186 278 CURVE",
"294 278 OFFCURVE",
"364 336 OFFCURVE",
"364 424 CURVE",
"364 500 OFFCURVE",
"298 548 OFFCURVE",
"195 548 CURVE",
"189 548 OFFCURVE",
"172 547 OFFCURVE",
"165 546 CURVE",
"165 606 LINE",
"344 606 LINE"
);
}
);
width = 388;
}
);
},
{
glyphname = six.numr;
layers = (
{
layerId = "E8BF2718-0C92-4E31-9FCE-6752C723AF07";
paths = (
{
closed = 1;
nodes = (
"112 705 OFFCURVE",
"31 619 OFFCURVE",
"31 486 CURVE SMOOTH",
"31 358 OFFCURVE",
"104 277 OFFCURVE",
"223 277 CURVE SMOOTH",
"324 277 OFFCURVE",
"390 334 OFFCURVE",
"390 423 CURVE SMOOTH",
"390 504 OFFCURVE",
"334 559 OFFCURVE",
"249 559 CURVE SMOOTH",
"202 559 OFFCURVE",
"169 542 OFFCURVE",
"151 518 CURVE",
"149 578 OFFCURVE",
"182 611 OFFCURVE",
"245 611 CURVE SMOOTH",
"280 611 OFFCURVE",
"311 602 OFFCURVE",
"335 584 CURVE",
"383 670 LINE",
"346 691 OFFCURVE",
"288 705 OFFCURVE",
"238 705 CURVE SMOOTH"
);
},
{
closed = 1;
nodes = (
"254 470 OFFCURVE",
"273 454 OFFCURVE",
"273 424 CURVE SMOOTH",
"273 392 OFFCURVE",
"254 375 OFFCURVE",
"218 375 CURVE SMOOTH",
"181 375 OFFCURVE",
"163 395 OFFCURVE",
"163 422 CURVE",
"163 452 OFFCURVE",
"183 470 OFFCURVE",
"220 470 CURVE SMOOTH"
);
}
);
width = 411;
}
);
},
{
glyphname = seven.numr;
layers = (
{
layerId = "E8BF2718-0C92-4E31-9FCE-6752C723AF07";
paths = (
{
closed = 1;
nodes = (
"375 701 LINE",
"26 701 LINE",
"26 547 LINE",
"136 547 LINE",
"136 606 LINE",
"237 606 LINE",
"86 283 LINE",
"218 283 LINE",
"375 618 LINE"
);
}
);
width = 389;
}
);
},
{
glyphname = eight.numr;
layers = (
{
layerId = "E8BF2718-0C92-4E31-9FCE-6752C723AF07";
paths = (
{
closed = 1;
nodes = (
"111 705 OFFCURVE",
"48 662 OFFCURVE",
"48 595 CURVE SMOOTH",
"48 560 OFFCURVE",
"70 527 OFFCURVE",
"105 506 CURVE",
"56 487 OFFCURVE",
"25 445 OFFCURVE",
"25 399 CURVE SMOOTH",
"25 325 OFFCURVE",
"96 277 OFFCURVE",
"208 277 CURVE SMOOTH",
"320 277 OFFCURVE",
"391 325 OFFCURVE",
"391 401 CURVE SMOOTH",
"391 446 OFFCURVE",
"362 487 OFFCURVE",
"317 506 CURVE",
"348 525 OFFCURVE",
"368 557 OFFCURVE",
"368 591 CURVE SMOOTH",
"368 661 OFFCURVE",
"305 705 OFFCURVE",
"207 705 CURVE SMOOTH"
);
},
{
closed = 1;
nodes = (
"251 457 OFFCURVE",
"274 441 OFFCURVE",
"274 412 CURVE SMOOTH",
"274 381 OFFCURVE",
"251 366 OFFCURVE",
"209 366 CURVE SMOOTH",
"166 366 OFFCURVE",
"144 382 OFFCURVE",
"144 412 CURVE SMOOTH",
"144 441 OFFCURVE",
"167 457 OFFCURVE",
"208 457 CURVE SMOOTH"
);
},
{
closed = 1;
nodes = (
"244 626 OFFCURVE",
"263 611 OFFCURVE",
"263 584 CURVE SMOOTH",
"263 559 OFFCURVE",
"244 545 OFFCURVE",
"208 545 CURVE SMOOTH",
"172 545 OFFCURVE",
"153 559 OFFCURVE",
"153 584 CURVE SMOOTH",
"153 611 OFFCURVE",
"172 626 OFFCURVE",
"208 626 CURVE SMOOTH"
);
}
);
width = 417;
}
);
},
{
glyphname = nine.numr;
layers = (
{
layerId = "E8BF2718-0C92-4E31-9FCE-6752C723AF07";
paths = (
{
closed = 1;
nodes = (
"300 277 OFFCURVE",
"382 364 OFFCURVE",
"382 497 CURVE SMOOTH",
"382 625 OFFCURVE",
"309 705 OFFCURVE",
"190 705 CURVE SMOOTH",
"89 705 OFFCURVE",
"23 649 OFFCURVE",
"23 560 CURVE SMOOTH",
"23 478 OFFCURVE",
"78 423 OFFCURVE",
"163 423 CURVE SMOOTH",
"211 423 OFFCURVE",
"244 441 OFFCURVE",
"262 465 CURVE",
"264 404 OFFCURVE",
"231 372 OFFCURVE",
"168 372 CURVE SMOOTH",
"133 372 OFFCURVE",
"102 381 OFFCURVE",
"78 399 CURVE",
"30 314 LINE",
"67 291 OFFCURVE",
"124 277 OFFCURVE",
"175 277 CURVE SMOOTH"
);
},
{
closed = 1;
nodes = (
"158 513 OFFCURVE",
"139 529 OFFCURVE",
"139 559 CURVE SMOOTH",
"139 591 OFFCURVE",
"159 608 OFFCURVE",
"194 608 CURVE SMOOTH",
"232 608 OFFCURVE",
"249 589 OFFCURVE",
"249 560 CURVE",
"249 531 OFFCURVE",
"229 513 OFFCURVE",
"193 513 CURVE SMOOTH"
);
}
);
width = 412;
}
);
},
{
glyphname = onesuperior;
layers = (
{
layerId = "E8BF2718-0C92-4E31-9FCE-6752C723AF07";
paths = (
{
closed = 1;
nodes = (
"213 701 LINE",
"9 701 LINE",
"9 603 LINE",
"88 603 LINE",
"88 283 LINE",
"213 283 LINE"
);
}
);
width = 276;
}
);
unicode = 00B9;
},
{
glyphname = twosuperior;
layers = (
{
layerId = "E8BF2718-0C92-4E31-9FCE-6752C723AF07";
paths = (
{
closed = 1;
nodes = (
"137 705 OFFCURVE",
"75 681 OFFCURVE",
"17 641 CURVE",
"64 553 LINE",
"105 586 OFFCURVE",
"149 606 OFFCURVE",
"182 606 CURVE",
"209 606 OFFCURVE",
"223 596 OFFCURVE",
"223 577 CURVE",
"223 560 OFFCURVE",
"207 536 OFFCURVE",
"186 514 CURVE SMOOTH",
"32 360 LINE",
"32 283 LINE",
"364 283 LINE",
"364 377 LINE",
"191 377 LINE",
"271 454 LINE SMOOTH",
"320 501 OFFCURVE",
"354 547 OFFCURVE",
"354 594 CURVE",
"354 661 OFFCURVE",
"290 705 OFFCURVE",
"202 705 CURVE"
);
}
);
width = 389;
}
);
unicode = 00B2;
},
{
glyphname = threesuperior;
layers = (
{
layerId = "E8BF2718-0C92-4E31-9FCE-6752C723AF07";
paths = (
{
closed = 1;
nodes = (
"220 533 LINE",
"322 630 LINE",
"322 699 LINE",
"26 699 LINE",
"26 610 LINE",
"181 610 LINE",
"88 523 LINE",
"88 458 LINE",
"162 458 LINE SMOOTH",
"199 458 OFFCURVE",
"220 443 OFFCURVE",
"220 414 CURVE SMOOTH",
"220 385 OFFCURVE",
"199 368 OFFCURVE",
"162 368 CURVE SMOOTH",
"123 368 OFFCURVE",
"86 387 OFFCURVE",
"54 423 CURVE",
"4 330 LINE",
"44 298 OFFCURVE",
"110 277 OFFCURVE",
"172 277 CURVE SMOOTH",
"276 277 OFFCURVE",
"342 334 OFFCURVE",
"342 414 CURVE SMOOTH",
"342 478 OFFCURVE",
"299 519 OFFCURVE",
"240 529 CURVE SMOOTH"
);
}
);
width = 366;
}
);
unicode = 00B3;
},
{
glyphname = fraction;
layers = (
{
layerId = "E8BF2718-0C92-4E31-9FCE-6752C723AF07";
paths = (
{
closed = 1;
nodes = (
"391 701 LINE",
"225 701 LINE",
"-274 0 LINE",
"-107 0 LINE"
);
}
);
width = 120;
}
);
unicode = 2044;
},
{
glyphname = "zero-gurmukhi";
layers = (
{
layerId = "E8BF2718-0C92-4E31-9FCE-6752C723AF07";
paths = (
{
closed = 1;
nodes = (
"599 43 OFFCURVE",
"713 186 OFFCURVE",
"713 342 CURVE SMOOTH",
"713 502 OFFCURVE",
"594 651 OFFCURVE",
"377 651 CURVE SMOOTH",
"165 651 OFFCURVE",
"52 509 OFFCURVE",
"52 353 CURVE SMOOTH",
"52 193 OFFCURVE",
"171 43 OFFCURVE",
"390 43 CURVE SMOOTH"
);
},
{
closed = 1;
nodes = (
"299 184 OFFCURVE",
"228 242 OFFCURVE",
"228 342 CURVE SMOOTH",
"228 447 OFFCURVE",
"304 509 OFFCURVE",
"388 509 CURVE SMOOTH",
"467 509 OFFCURVE",
"537 452 OFFCURVE",
"537 349 CURVE SMOOTH",
"537 244 OFFCURVE",
"462 184 OFFCURVE",
"379 184 CURVE SMOOTH"
);
}
);
width = 765;
}
);
unicode = 0A66;
},
{
glyphname = "one-gurmukhi";
layers = (
{
layerId = "E8BF2718-0C92-4E31-9FCE-6752C723AF07";
paths = (
{
closed = 1;
nodes = (
"598 0 LINE",
"598 383 LINE SMOOTH",
"598 595 OFFCURVE",
"457 709 OFFCURVE",
"289 709 CURVE SMOOTH",
"163 709 OFFCURVE",
"43 635 OFFCURVE",
"43 480 CURVE SMOOTH",
"43 319 OFFCURVE",
"184 228 OFFCURVE",
"314 228 CURVE SMOOTH",
"366 228 OFFCURVE",
"412 237 OFFCURVE",
"454 260 CURVE",
"428 293 LINE",
"428 0 LINE"
);
},
{
closed = 1;
nodes = (
"257 369 OFFCURVE",
"206 401 OFFCURVE",
"206 465 CURVE SMOOTH",
"206 531 OFFCURVE",
"259 566 OFFCURVE",
"312 566 CURVE SMOOTH",
"377 566 OFFCURVE",
"439 523 OFFCURVE",
"439 405 CURVE",
"442 483 LINE",
"438 407 OFFCURVE",
"374 369 OFFCURVE",
"311 369 CURVE SMOOTH"
);
}
);
width = 658;
}
);
unicode = 0A67;
},
{
glyphname = "two-gurmukhi";
layers = (
{
layerId = "E8BF2718-0C92-4E31-9FCE-6752C723AF07";
paths = (
{
closed = 1;
nodes = (
"598 10 LINE",
"598 93 OFFCURVE",
"552 214 OFFCURVE",
"438 281 CURVE",
"440 241 LINE",
"521 292 OFFCURVE",
"565 364 OFFCURVE",
"565 456 CURVE SMOOTH",
"565 628 OFFCURVE",
"411 712 OFFCURVE",
"246 712 CURVE SMOOTH",
"162 712 OFFCURVE",
"88 690 OFFCURVE",
"32 643 CURVE",
"99 519 LINE",
"150 548 OFFCURVE",
"214 566 OFFCURVE",
"270 566 CURVE SMOOTH",
"344 566 OFFCURVE",
"403 534 OFFCURVE",
"403 460 CURVE SMOOTH",
"403 396 OFFCURVE",
"359 349 OFFCURVE",
"270 336 CURVE",
"340 334 LINE",
"295 353 OFFCURVE",
"245 363 OFFCURVE",
"197 363 CURVE SMOOTH",
"154 363 OFFCURVE",
"112 355 OFFCURVE",
"74 339 CURVE",
"84 201 LINE",
"118 190 OFFCURVE",
"158 185 OFFCURVE",
"203 185 CURVE SMOOTH",
"257 185 OFFCURVE",
"318 192 OFFCURVE",
"368 209 CURVE",
"305 211 LINE",
"415 193 OFFCURVE",
"423 82 OFFCURVE",
"423 14 CURVE",
"423 1 LINE",
"598 0 LINE"
);
}
);
width = 630;
}
);
unicode = 0A68;
},
{
glyphname = "three-gurmukhi";
layers = (
{
layerId = "E8BF2718-0C92-4E31-9FCE-6752C723AF07";
paths = (
{
closed = 1;
nodes = (
"320 -119 LINE",
"339 16 LINE",
"290 -14 LINE",
"297 -14 OFFCURVE",
"303 -14 OFFCURVE",
"310 -14 CURVE SMOOTH",
"493 -14 OFFCURVE",
"594 76 OFFCURVE",
"594 180 CURVE SMOOTH",
"594 257 OFFCURVE",
"539 320 OFFCURVE",
"430 354 CURVE",
"433 329 LINE",
"530 358 OFFCURVE",
"585 412 OFFCURVE",
"585 494 CURVE SMOOTH",
"585 640 OFFCURVE",
"429 711 OFFCURVE",
"278 711 CURVE SMOOTH",
"192 711 OFFCURVE",
"108 688 OFFCURVE",
"54 643 CURVE",
"121 519 LINE",
"165 547 OFFCURVE",
"235 566 OFFCURVE",
"298 566 CURVE SMOOTH",
"360 566 OFFCURVE",
"415 548 OFFCURVE",
"415 495 CURVE SMOOTH",
"415 452 OFFCURVE",
"379 415 OFFCURVE",
"272 418 CURVE",
"358 409 LINE",
"305 430 OFFCURVE",
"258 436 OFFCURVE",
"215 436 CURVE SMOOTH",
"182 436 OFFCURVE",
"151 432 OFFCURVE",
"121 425 CURVE",
"131 287 LINE",
"165 276 OFFCURVE",
"204 271 OFFCURVE",
"244 271 CURVE SMOOTH",
"293 271 OFFCURVE",
"345 279 OFFCURVE",
"390 293 CURVE",
"322 292 LINE",
"391 289 OFFCURVE",
"422 252 OFFCURVE",
"422 207 CURVE SMOOTH",
"422 141 OFFCURVE",
"358 117 OFFCURVE",
"286 117 CURVE SMOOTH",
"280 117 OFFCURVE",
"275 117 OFFCURVE",
"269 117 CURVE",
"320 96 LINE",
"283 161 OFFCURVE",
"188 187 OFFCURVE",
"96 198 CURVE",
"52 82 LINE",
"78 49 OFFCURVE",
"119 21 OFFCURVE",
"162 5 CURVE",
"145 -103 LINE",
"145 -119 LINE"
);
}
);
width = 650;
}
);
unicode = 0A69;
},
{
glyphname = "four-gurmukhi";
layers = (
{
layerId = "E8BF2718-0C92-4E31-9FCE-6752C723AF07";
paths = (
{
closed = 1;
nodes = (
"526 -8 OFFCURVE",
"635 65 OFFCURVE",
"635 172 CURVE SMOOTH",
"635 233 OFFCURVE",
"589 286 OFFCURVE",
"510 319 CURVE",
"511 289 LINE",
"595 326 OFFCURVE",
"654 392 OFFCURVE",
"654 490 CURVE SMOOTH",
"654 608 OFFCURVE",
"540 688 OFFCURVE",
"410 705 CURVE",
"394 563 LINE",
"442 554 OFFCURVE",
"477 529 OFFCURVE",
"477 488 CURVE SMOOTH",
"477 434 OFFCURVE",
"419 402 OFFCURVE",
"353 402 CURVE",
"287 402 OFFCURVE",
"229 434 OFFCURVE",
"229 487 CURVE SMOOTH",
"229 528 OFFCURVE",
"264 554 OFFCURVE",
"312 563 CURVE",
"296 705 LINE",
"161 690 OFFCURVE",
"52 613 OFFCURVE",
"52 499 CURVE SMOOTH",
"52 418 OFFCURVE",
"112 361 OFFCURVE",
"198 332 CURVE",
"187 360 LINE",
"120 324 OFFCURVE",
"71 268 OFFCURVE",
"71 182 CURVE SMOOTH",
"71 69 OFFCURVE",
"182 -8 OFFCURVE",
"356 -8 CURVE SMOOTH"
);
},
{
closed = 1;
nodes = (
"278 113 OFFCURVE",
"244 152 OFFCURVE",
"244 193 CURVE SMOOTH",
"244 234 OFFCURVE",
"281 277 OFFCURVE",
"353 277 CURVE SMOOTH",
"425 277 OFFCURVE",
"461 237 OFFCURVE",
"461 196 CURVE SMOOTH",
"461 155 OFFCURVE",
"424 113 OFFCURVE",
"348 113 CURVE SMOOTH"
);
}
);
width = 706;
}
);
unicode = 0A6A;
},
{
glyphname = "five-gurmukhi";
layers = (
{
layerId = "E8BF2718-0C92-4E31-9FCE-6752C723AF07";
paths = (
{
closed = 1;
nodes = (
"398 83 OFFCURVE",
"476 99 OFFCURVE",
"524 130 CURVE",
"489 324 LINE",
"450 244 OFFCURVE",
"381 224 OFFCURVE",
"327 224 CURVE SMOOTH",
"206 224 OFFCURVE",
"191 292 OFFCURVE",
"188 314 CURVE",
"165 234 LINE",
"258 293 OFFCURVE",
"287 380 OFFCURVE",
"287 474 CURVE SMOOTH",
"287 546 OFFCURVE",
"270 621 OFFCURVE",
"252 692 CURVE",
"87 692 LINE",
"87 676 LINE",
"105 624 OFFCURVE",
"118 567 OFFCURVE",
"118 511 CURVE SMOOTH",
"118 439 OFFCURVE",
"96 371 OFFCURVE",
"32 323 CURVE",
"60 170 OFFCURVE",
"190 83 OFFCURVE",
"339 83 CURVE SMOOTH"
);
},
{
closed = 1;
nodes = (
"652 0 LINE",
"652 692 LINE",
"477 692 LINE",
"477 0 LINE"
);
}
);
width = 712;
}
);
unicode = 0A6B;
},
{
glyphname = "six-gurmukhi";
layers = (
{
layerId = "E8BF2718-0C92-4E31-9FCE-6752C723AF07";
paths = (
{
closed = 1;
nodes = (
"432 -15 OFFCURVE",
"510 -2 OFFCURVE",
"570 28 CURVE",
"535 160 LINE",
"486 144 OFFCURVE",
"410 127 OFFCURVE",
"344 127 CURVE SMOOTH",
"273 127 OFFCURVE",
"212 146 OFFCURVE",
"212 201 CURVE SMOOTH",
"212 249 OFFCURVE",
"259 286 OFFCURVE",
"389 279 CURVE",
"300 288 LINE",
"341 275 OFFCURVE",
"378 271 OFFCURVE",
"412 271 CURVE SMOOTH",
"445 271 OFFCURVE",
"476 275 OFFCURVE",
"506 282 CURVE",
"516 420 LINE",
"476 431 OFFCURVE",
"429 436 OFFCURVE",
"386 436 CURVE SMOOTH",
"332 436 OFFCURVE",
"280 428 OFFCURVE",
"234 413 CURVE",
"295 407 LINE",
"246 419 OFFCURVE",
"225 451 OFFCURVE",
"225 488 CURVE SMOOTH",
"225 549 OFFCURVE",
"282 571 OFFCURVE",
"346 571 CURVE SMOOTH",
"353 571 OFFCURVE",
"360 570 OFFCURVE",
"367 570 CURVE",
"308 587 LINE",
"351 552 OFFCURVE",
"407 534 OFFCURVE",
"463 534 CURVE SMOOTH",
"487 534 OFFCURVE",
"511 537 OFFCURVE",
"533 543 CURVE",
"558 665 LINE",
"504 689 OFFCURVE",
"428 709 OFFCURVE",
"351 711 CURVE",
"399 692 LINE",
"386 699 OFFCURVE",
"376 721 OFFCURVE",
"376 746 CURVE SMOOTH",
"376 795 OFFCURVE",
"412 818 OFFCURVE",
"450 818 CURVE SMOOTH",
"464 818 OFFCURVE",
"479 815 OFFCURVE",
"493 809 CURVE",
"550 917 LINE",
"520 940 OFFCURVE",
"483 949 OFFCURVE",
"443 949 CURVE SMOOTH",
"337 949 OFFCURVE",
"238 887 OFFCURVE",
"238 749 CURVE SMOOTH",
"238 723 OFFCURVE",
"241 699 OFFCURVE",
"251 674 CURVE",
"282 709 LINE",
"276 708 OFFCURVE",
"271 708 OFFCURVE",
"265 707 CURVE SMOOTH",
"129 688 OFFCURVE",
"59 605 OFFCURVE",
"59 517 CURVE SMOOTH",
"59 452 OFFCURVE",
"99 383 OFFCURVE",
"181 335 CURVE",
"184 371 LINE",
"95 337 OFFCURVE",
"52 279 OFFCURVE",
"52 206 CURVE SMOOTH",
"52 61 OFFCURVE",
"225 -15 OFFCURVE",
"371 -15 CURVE SMOOTH"
);
}
);
width = 622;
}
);
unicode = 0A6C;
},
{
glyphname = "seven-gurmukhi";
layers = (
{
layerId = "E8BF2718-0C92-4E31-9FCE-6752C723AF07";
paths = (
{
closed = 1;
nodes = (
"199 709 OFFCURVE",
"109 603 OFFCURVE",
"109 486 CURVE SMOOTH",
"109 437 OFFCURVE",
"125 390 OFFCURVE",
"150 349 CURVE",
"298 408 LINE",
"292 422 OFFCURVE",
"283 456 OFFCURVE",
"283 479 CURVE SMOOTH",
"283 521 OFFCURVE",
"314 563 OFFCURVE",
"370 563 CURVE SMOOTH",
"453 563 OFFCURVE",
"493 473 OFFCURVE",
"493 372 CURVE SMOOTH",
"493 210 OFFCURVE",
"390 127 OFFCURVE",
"249 127 CURVE SMOOTH",
"193 127 OFFCURVE",
"131 140 OFFCURVE",
"67 164 CURVE",
"32 32 LINE",
"108 1 OFFCURVE",
"191 -15 OFFCURVE",
"269 -15 CURVE SMOOTH",
"475 -15 OFFCURVE",
"660 96 OFFCURVE",
"660 361 CURVE SMOOTH",
"660 557 OFFCURVE",
"548 709 OFFCURVE",
"361 709 CURVE SMOOTH"
);
}
);
width = 712;
}
);
unicode = 0A6D;
},
{
glyphname = "eight-gurmukhi";
layers = (
{
layerId = "E8BF2718-0C92-4E31-9FCE-6752C723AF07";
paths = (
{
closed = 1;
nodes = (
"579 -15 OFFCURVE",
"645 1 OFFCURVE",
"697 28 CURVE",
"662 160 LINE",
"609 142 OFFCURVE",
"552 127 OFFCURVE",
"495 127 CURVE SMOOTH",
"399 127 OFFCURVE",
"325 164 OFFCURVE",
"325 258 CURVE SMOOTH",
"325 440 LINE",
"669 440 LINE",
"669 580 LINE",
"296 580 LINE",
"251 629 OFFCURVE",
"149 651 OFFCURVE",
"68 658 CURVE",
"15 543 LINE",
"54 495 OFFCURVE",
"107 466 OFFCURVE",
"160 451 CURVE",
"160 275 LINE SMOOTH",
"160 104 OFFCURVE",
"326 -15 OFFCURVE",
"508 -15 CURVE SMOOTH"
);
}
);
width = 749;
}
);
unicode = 0A6E;
},
{
glyphname = "nine-gurmukhi";
layers = (
{
components = (
{
name = "eight-gurmukhi";
}
);
layerId = "E8BF2718-0C92-4E31-9FCE-6752C723AF07";
paths = (
{
closed = 1;
nodes = (
"668 430 OFFCURVE",
"696 435 OFFCURVE",
"721 443 CURVE",
"669 580 LINE",
"657 575 OFFCURVE",
"644 573 OFFCURVE",
"632 573 CURVE SMOOTH",
"591 573 OFFCURVE",
"554 596 OFFCURVE",
"554 646 CURVE SMOOTH",
"554 695 OFFCURVE",
"590 718 OFFCURVE",
"628 718 CURVE SMOOTH",
"642 718 OFFCURVE",
"657 715 OFFCURVE",
"671 709 CURVE",
"728 817 LINE",
"698 840 OFFCURVE",
"660 849 OFFCURVE",
"622 849 CURVE SMOOTH",
"514 849 OFFCURVE",
"416 787 OFFCURVE",
"416 649 CURVE SMOOTH",
"416 499 OFFCURVE",
"530 430 OFFCURVE",
"641 430 CURVE SMOOTH"
);
}
);
width = 770;
}
);
leftMetricsKey = "eight-gurmukhi";
unicode = 0A6F;
},
{
glyphname = asterisk;
layers = (
{
layerId = "E8BF2718-0C92-4E31-9FCE-6752C723AF07";
paths = (
{
closed = 1;
nodes = (
"358 504 LINE",
"274 551 LINE",
"358 596 LINE",
"314 673 LINE",
"233 624 LINE",
"235 719 LINE",
"146 719 LINE",
"147 624 LINE",
"66 674 LINE",
"22 596 LINE",
"105 551 LINE",
"22 504 LINE",
"66 428 LINE",
"148 477 LINE",
"146 382 LINE",
"235 382 LINE",
"232 476 LINE",
"314 427 LINE"
);
}
);
width = 381;
}
);
unicode = 002A;
},
{
glyphname = bullet;
layers = (
{
layerId = "E8BF2718-0C92-4E31-9FCE-6752C723AF07";
paths = (
{
closed = 1;
nodes = (
"90 407 OFFCURVE",
"37 355 OFFCURVE",
"37 281 CURVE SMOOTH",
"37 205 OFFCURVE",
"90 153 OFFCURVE",
"164 153 CURVE SMOOTH",
"239 153 OFFCURVE",
"292 205 OFFCURVE",
"292 281 CURVE SMOOTH",
"292 355 OFFCURVE",
"239 407 OFFCURVE",
"164 407 CURVE SMOOTH"
);
}
);
width = 328;
}
);
leftMetricsKey = period;
rightMetricsKey = period;
unicode = 2022;
},
{
glyphname = comma;
layers = (
{
layerId = "E8BF2718-0C92-4E31-9FCE-6752C723AF07";
paths = (
{
closed = 1;
nodes = (
"26 -98 LINE",
"111 -98 LINE",
"185 11 LINE SMOOTH",
"198 31 OFFCURVE",
"208 53 OFFCURVE",
"208 79 CURVE SMOOTH",
"208 134 OFFCURVE",
"168 164 OFFCURVE",
"123 164 CURVE SMOOTH",
"74 164 OFFCURVE",
"38 129 OFFCURVE",
"38 79 CURVE SMOOTH",
"38 31 OFFCURVE",
"71 -9 OFFCURVE",
"146 -6 CURVE",
"98 76 LINE"
);
}
);
width = 243;
}
);
unicode = 002C;
},
